#N canvas 396 253 1175 775 10;
#X obj 609 152 snapshot~;
#X obj 678 117 tgl 15 0 empty empty empty 17 7 0 10 -262144 -1 -1 0
1;
#X obj 609 402 f;
#X obj 108 129 hsl 128 15 1.27 127 1 1 \$0-adsr-attack-s \$0-adsr-attack-r
ATTACK 135 7 0 10 -262144 -1 -1 9500 1;
#X obj 652 297 * 0.00787402;
#X obj 652 319 * 1990;
#X obj 652 341 + 10;
#X obj 652 363 +;
#X obj 652 385 clip 10 2000;
#X obj 609 530 vline~;
#X obj 108 174 hsl 128 15 1.27 127 1 1 \$0-adsr-release-s \$0-adsr-release-r
RELEASE 135 7 0 10 -262144 -1 -1 8700 1;
#X obj 1013 352 * 0.00787402;
#X obj 1013 396 + 10;
#X obj 1013 418 +;
#X msg 609 446 1 \$1 \, \$3 \$2 \$1;
#X obj 609 424 pack f f f;
#X obj 108 144 hsl 128 15 1.27 127 1 1 \$0-adsr-decay-s \$0-adsr-decay-r
DECAY 135 7 0 10 -262144 -1 -1 0 1;
#X obj 751 319 * 0.00787402;
#X obj 751 341 * 1990;
#X obj 751 363 + 10;
#X obj 751 385 +;
#X obj 751 407 clip 10 2000;
#X obj 108 159 hsl 128 15 0 127 0 1 \$0-adsr-sustain-s \$0-adsr-sustain-r
SUSTAIN 135 7 0 10 -262144 -1 -1 12700 1;
#X obj 874 319 * 0.00787402;
#X obj 874 385 +;
#X obj 874 407 clip 0.2 0.8;
#X obj 998 468 f;
#X obj 609 208 t f f;
#X obj 998 247 sel 1;
#X obj 998 269 t b;
#X obj 1013 374 * 3990;
#X obj 1013 440 clip 10 4000;
#X obj 609 174 change;
#X obj 609 230 > 0;
#X obj 609 271 sel 1;
#X obj 609 566 *~;
#X obj 610 628 *~;
#X obj 336 501 * 0.00787402;
#X obj 108 189 hsl 128 15 0 127 0 1 \$0-adsr-curve-s \$0-adsr-curve-r
CURVE 135 7 0 10 -262144 -1 -1 0 1;
#X obj 874 363 + 0.1;
#X obj 874 341 * 0.8;
#X obj 678 135 metro 10;
#X obj 998 225 < 0.1;
#X obj 611 26 inlet~;
#X obj 678 43 env~;
#X obj 678 65 > 0;
#X obj 678 87 change;
#X obj 652 270 r \$0-adsr-attack-s;
#X obj 751 297 r \$0-adsr-decay-s;
#X obj 874 296 r \$0-adsr-sustain-s;
#X obj 1013 326 r \$0-adsr-release-s;
#X obj 336 475 r \$0-adsr-curve-s;
#X obj 119 120 cnv 5 5 5 empty empty ADSR 0 0 0 12 -262144 -66577 0
;
#X obj 105 115 cnv 10 10 10 empty \$0-adsr-gui-r empty 20 12 0 14 -33289
-262144 0;
#X floatatom 501 247 5 0 0 0 - - -, f 5;
#X obj 501 266 + 12;
#X obj 501 310 s \$0-adsr-gui-r;
#X obj 105 109 cnv 5 5 5 empty empty GATE 0 0 0 8 -262144 -226533 0
;
#X msg 501 288 color \$1;
#X floatatom 749 88 5 0 0 0 - - -, f 5;
#X obj 610 677 outlet~;
#X obj 552 628 *~;
#X obj 336 523 t f f;
#X msg 336 545 1 \$1;
#X obj 336 567 -;
#X obj 336 589 pack 0 50;
#X obj 336 611 line~;
#X obj 443 591 pack 0 50;
#X obj 443 611 line~;
#X obj 609 588 *~;
#N canvas 297 27 648 297 parameter-nudging-system 0;
#N canvas 0 22 484 497 param-nudge 0;
#X obj 124 234 random;
#X obj 232 335 f;
#X obj 232 368 +;
#X obj 257 166 random 2;
#X obj 124 275 t f f;
#X obj 124 351 t b f;
#X obj 124 297 *;
#X obj 257 188 sel 0 1;
#X msg 257 280 -1;
#X msg 335 280 1;
#X obj 124 149 t b b b;
#X obj 124 123 r NUDGE!;
#X obj 157 193 r NUDGE-RANGE;
#X obj 247 308 inlet;
#X obj 232 397 outlet;
#X floatatom 316 396 5 0 0 0 - - -, f 5;
#X connect 0 0 4 0;
#X connect 1 0 2 0;
#X connect 2 0 14 0;
#X connect 2 0 15 0;
#X connect 3 0 7 0;
#X connect 4 0 6 0;
#X connect 5 0 2 0;
#X connect 5 1 2 1;
#X connect 6 0 5 0;
#X connect 7 0 8 0;
#X connect 7 1 9 0;
#X connect 8 0 6 1;
#X connect 9 0 6 1;
#X connect 10 0 0 0;
#X connect 10 1 1 0;
#X connect 10 2 3 0;
#X connect 11 0 10 0;
#X connect 12 0 0 1;
#X connect 13 0 1 1;
#X restore 23 45 pd param-nudge;
#N canvas 0 22 484 497 param-nudge 0;
#X obj 124 234 random;
#X obj 232 335 f;
#X obj 232 368 +;
#X obj 257 166 random 2;
#X obj 124 275 t f f;
#X obj 124 351 t b f;
#X obj 124 297 *;
#X obj 257 188 sel 0 1;
#X msg 257 280 -1;
#X msg 335 280 1;
#X obj 124 149 t b b b;
#X obj 124 123 r NUDGE!;
#X obj 157 193 r NUDGE-RANGE;
#X obj 247 308 inlet;
#X obj 232 397 outlet;
#X connect 0 0 4 0;
#X connect 1 0 2 0;
#X connect 2 0 14 0;
#X connect 3 0 7 0;
#X connect 4 0 6 0;
#X connect 5 0 2 0;
#X connect 5 1 2 1;
#X connect 6 0 5 0;
#X connect 7 0 8 0;
#X connect 7 1 9 0;
#X connect 8 0 6 1;
#X connect 9 0 6 1;
#X connect 10 0 0 0;
#X connect 10 1 1 0;
#X connect 10 2 3 0;
#X connect 11 0 10 0;
#X connect 12 0 0 1;
#X connect 13 0 1 1;
#X restore 214 47 pd param-nudge;
#N canvas 0 22 484 497 param-nudge 0;
#X obj 124 234 random;
#X obj 232 335 f;
#X obj 232 368 +;
#X obj 257 166 random 2;
#X obj 124 275 t f f;
#X obj 124 351 t b f;
#X obj 124 297 *;
#X obj 257 188 sel 0 1;
#X msg 257 280 -1;
#X msg 335 280 1;
#X obj 124 149 t b b b;
#X obj 124 123 r NUDGE!;
#X obj 157 193 r NUDGE-RANGE;
#X obj 247 308 inlet;
#X obj 232 397 outlet;
#X connect 0 0 4 0;
#X connect 1 0 2 0;
#X connect 2 0 14 0;
#X connect 3 0 7 0;
#X connect 4 0 6 0;
#X connect 5 0 2 0;
#X connect 5 1 2 1;
#X connect 6 0 5 0;
#X connect 7 0 8 0;
#X connect 7 1 9 0;
#X connect 8 0 6 1;
#X connect 9 0 6 1;
#X connect 10 0 0 0;
#X connect 10 1 1 0;
#X connect 10 2 3 0;
#X connect 11 0 10 0;
#X connect 12 0 0 1;
#X connect 13 0 1 1;
#X restore 407 47 pd param-nudge;
#N canvas 0 22 484 497 param-nudge 0;
#X obj 124 234 random;
#X obj 232 335 f;
#X obj 232 368 +;
#X obj 257 166 random 2;
#X obj 124 275 t f f;
#X obj 124 351 t b f;
#X obj 124 297 *;
#X obj 257 188 sel 0 1;
#X msg 257 280 -1;
#X msg 335 280 1;
#X obj 124 149 t b b b;
#X obj 124 123 r NUDGE!;
#X obj 157 193 r NUDGE-RANGE;
#X obj 247 308 inlet;
#X obj 232 397 outlet;
#X connect 0 0 4 0;
#X connect 1 0 2 0;
#X connect 2 0 14 0;
#X connect 3 0 7 0;
#X connect 4 0 6 0;
#X connect 5 0 2 0;
#X connect 5 1 2 1;
#X connect 6 0 5 0;
#X connect 7 0 8 0;
#X connect 7 1 9 0;
#X connect 8 0 6 1;
#X connect 9 0 6 1;
#X connect 10 0 0 0;
#X connect 10 1 1 0;
#X connect 10 2 3 0;
#X connect 11 0 10 0;
#X connect 12 0 0 1;
#X connect 13 0 1 1;
#X restore 21 149 pd param-nudge;
#N canvas 0 22 484 497 param-nudge 0;
#X obj 124 234 random;
#X obj 232 335 f;
#X obj 232 368 +;
#X obj 257 166 random 2;
#X obj 124 275 t f f;
#X obj 124 351 t b f;
#X obj 124 297 *;
#X obj 257 188 sel 0 1;
#X msg 257 280 -1;
#X msg 335 280 1;
#X obj 124 149 t b b b;
#X obj 124 123 r NUDGE!;
#X obj 157 193 r NUDGE-RANGE;
#X obj 247 308 inlet;
#X obj 232 397 outlet;
#X connect 0 0 4 0;
#X connect 1 0 2 0;
#X connect 2 0 14 0;
#X connect 3 0 7 0;
#X connect 4 0 6 0;
#X connect 5 0 2 0;
#X connect 5 1 2 1;
#X connect 6 0 5 0;
#X connect 7 0 8 0;
#X connect 7 1 9 0;
#X connect 8 0 6 1;
#X connect 9 0 6 1;
#X connect 10 0 0 0;
#X connect 10 1 1 0;
#X connect 10 2 3 0;
#X connect 11 0 10 0;
#X connect 12 0 0 1;
#X connect 13 0 1 1;
#X restore 213 151 pd param-nudge;
#X obj 21 171 clip 0 127;
#X obj 213 173 clip 0 127;
#X obj 23 67 clip 0 127;
#X obj 214 69 clip 0 127;
#X obj 407 71 clip 0 127;
#X obj 23 22 r \$0-adsr-attack-s;
#X obj 23 95 s \$0-adsr-attack-r;
#X obj 214 24 r \$0-adsr-decay-s;
#X obj 214 97 s \$0-adsr-decay-r;
#X obj 407 24 r \$0-adsr-sustain-s;
#X obj 407 97 s \$0-adsr-sustain-r;
#X obj 21 126 r \$0-adsr-release-s;
#X obj 21 198 s \$0-adsr-release-r;
#X obj 213 128 r \$0-adsr-curve-s;
#X obj 213 199 s \$0-adsr-curve-r;
#X connect 0 0 7 0;
#X connect 1 0 8 0;
#X connect 2 0 9 0;
#X connect 3 0 5 0;
#X connect 4 0 6 0;
#X connect 5 0 17 0;
#X connect 6 0 19 0;
#X connect 7 0 11 0;
#X connect 8 0 13 0;
#X connect 9 0 15 0;
#X connect 10 0 0 0;
#X connect 12 0 1 0;
#X connect 14 0 2 0;
#X connect 16 0 3 0;
#X connect 18 0 4 0;
#X restore 96 253 pd parameter-nudging-system;
#X obj 609 300 t b b;
#X msg 624 339 0 1;
#X obj 97 316 canvasargs;
#X obj 97 278 argspack \$0-adsr-attack \$1 \$0-adsr-decay \$2 \$0-adsr-sustain
\$3 \$0-adsr-release \$4 \$0-adsr-curve \$5;
#X msg 998 512 0 \$1 1;
#X connect 0 0 32 0;
#X connect 1 0 41 0;
#X connect 2 0 15 0;
#X connect 4 0 5 0;
#X connect 5 0 6 0;
#X connect 6 0 7 0;
#X connect 7 0 8 0;
#X connect 8 0 2 1;
#X connect 9 0 35 0;
#X connect 9 0 35 1;
#X connect 9 0 61 0;
#X connect 11 0 30 0;
#X connect 12 0 13 0;
#X connect 13 0 31 0;
#X connect 14 0 9 0;
#X connect 15 0 14 0;
#X connect 17 0 18 0;
#X connect 18 0 19 0;
#X connect 19 0 20 0;
#X connect 20 0 21 0;
#X connect 21 0 15 1;
#X connect 23 0 40 0;
#X connect 24 0 25 0;
#X connect 25 0 15 2;
#X connect 26 0 75 0;
#X connect 27 0 33 0;
#X connect 27 1 42 0;
#X connect 28 0 29 0;
#X connect 29 0 26 0;
#X connect 30 0 12 0;
#X connect 31 0 26 1;
#X connect 32 0 27 0;
#X connect 33 0 34 0;
#X connect 33 0 54 0;
#X connect 34 0 71 0;
#X connect 35 0 69 0;
#X connect 35 0 69 1;
#X connect 36 0 60 0;
#X connect 37 0 62 0;
#X connect 39 0 24 0;
#X connect 40 0 39 0;
#X connect 41 0 0 0;
#X connect 42 0 28 0;
#X connect 43 0 0 0;
#X connect 43 0 44 0;
#X connect 44 0 45 0;
#X connect 45 0 46 0;
#X connect 45 0 59 0;
#X connect 46 0 1 0;
#X connect 47 0 4 0;
#X connect 48 0 17 0;
#X connect 49 0 23 0;
#X connect 50 0 11 0;
#X connect 51 0 37 0;
#X connect 54 0 55 0;
#X connect 55 0 58 0;
#X connect 58 0 56 0;
#X connect 61 0 60 0;
#X connect 62 0 63 0;
#X connect 62 1 67 0;
#X connect 63 0 64 0;
#X connect 64 0 65 0;
#X connect 65 0 66 0;
#X connect 66 0 61 1;
#X connect 67 0 68 0;
#X connect 68 0 36 1;
#X connect 69 0 36 0;
#X connect 71 0 2 0;
#X connect 71 1 72 0;
#X connect 72 0 9 0;
#X connect 74 0 73 0;
#X connect 75 0 9 0;
#X coords 0 -1 1 1 200 110 2 100 100;
