#N canvas 35 197 1864 769 10;
#X obj 26 176 t a a;
#X obj 26 119 symbol \$1;
#X obj 97 119 float \$2;
#X obj 53 224 oreceive;
#X obj 1425 702 outlet;
#X obj 53 253 s \$0-1;
#X obj 1426 389 r \$0-1;
#X obj 1396 365 r \$0-pack;
#X obj 1440 412 r \$0-2;
#X obj 1455 435 r \$0-3;
#X obj 1470 458 r \$0-4;
#X obj 1484 481 r \$0-5;
#X obj 1497 505 r \$0-6;
#X obj 1510 529 r \$0-7;
#X obj 1524 552 r \$0-8;
#X obj 183 175 t a a;
#X obj 210 223 oreceive;
#X obj 210 248 t b f;
#X obj 210 297 s \$0-pack;
#X obj 334 174 t a a;
#X obj 361 222 oreceive;
#X obj 361 247 t b f;
#X obj 361 296 s \$0-pack;
#X obj 485 173 t a a;
#X obj 512 221 oreceive;
#X obj 512 246 t b f;
#X obj 512 295 s \$0-pack;
#X obj 1249 166 t a a;
#X obj 1276 211 oreceive;
#X obj 1276 236 t b f;
#X obj 1276 285 s \$0-pack;
#X obj 1395 165 t a a;
#X obj 1422 210 oreceive;
#X obj 1422 235 t b f;
#X obj 1422 284 s \$0-pack;
#X obj 1546 164 t a a;
#X obj 1573 209 oreceive;
#X obj 1573 234 t b f;
#X obj 1573 283 s \$0-pack;
#X obj 1697 163 t a a;
#X obj 1724 208 oreceive;
#X obj 1724 233 t b f;
#X obj 1724 282 s \$0-pack;
#X obj 183 118 symbol \$3;
#X obj 254 118 float \$4;
#X obj 405 117 float \$6;
#X obj 556 116 float \$8;
#X obj 334 117 symbol \$5;
#X obj 485 116 symbol \$7;
#X obj 237 273 s \$0-2;
#X obj 388 272 s \$0-3;
#X obj 540 271 s \$0-4;
#X obj 25 41 symbol \$1;
#X obj 25 66 select \$1;
#X obj 182 62 select \$3;
#X obj 182 37 symbol \$3;
#X obj 333 37 symbol \$5;
#X obj 333 62 select \$5;
#X obj 484 36 symbol \$7;
#X obj 484 61 select \$7;
#X obj 25 15 loadbang;
#X obj 182 14 loadbang;
#X obj 334 13 loadbang;
#X obj 484 12 loadbang;
#X obj 1248 3 loadbang;
#X obj 1395 2 loadbang;
#X obj 1546 1 loadbang;
#X obj 1697 0 loadbang;
#X obj 1697 79 t b b;
#X obj 1697 138 pack s f;
#X obj 26 92 t b b;
#X obj 26 151 pack s f;
#X obj 183 150 pack s f;
#X obj 334 148 pack s f;
#X obj 485 147 pack s f;
#X obj 1249 141 pack s f;
#X obj 1395 140 pack s f;
#X obj 1546 139 pack s f;
#X obj 183 91 t b b;
#X obj 334 90 t b b;
#X obj 485 89 t b b;
#X obj 1249 82 t b b;
#X obj 1395 81 t b b;
#X obj 1546 80 t b b;
#X msg 26 322 \; \$1-r \$2;
#X msg 184 320 \; \$1-r \$2;
#X msg 335 320 \; \$1-r \$2;
#X msg 485 319 \; \$1-r \$2;
#X msg 1249 310 \; \$1-r \$2;
#X msg 1394 309 \; \$1-r \$2;
#X msg 1546 307 \; \$1-r \$2;
#X msg 1697 306 \; \$1-r \$2;
#X msg 53 199 symbol \$1-s;
#X msg 210 198 symbol \$1-s;
#X msg 361 197 symbol \$1-s;
#X msg 512 196 symbol \$1-s;
#X msg 1276 186 symbol \$1-s;
#X msg 1422 185 symbol \$1-s;
#X msg 1573 184 symbol \$1-s;
#X msg 1724 183 symbol \$1-s;
#X obj 632 171 t a a;
#X obj 659 216 oreceive;
#X obj 659 241 t b f;
#X obj 659 290 s \$0-pack;
#X obj 787 170 t a a;
#X obj 814 215 oreceive;
#X obj 814 240 t b f;
#X obj 814 289 s \$0-pack;
#X obj 940 169 t a a;
#X obj 967 214 oreceive;
#X obj 967 239 t b f;
#X obj 967 288 s \$0-pack;
#X obj 1095 168 t a a;
#X obj 1122 213 oreceive;
#X obj 1122 238 t b f;
#X obj 1122 287 s \$0-pack;
#X obj 703 114 float \$10;
#X obj 858 113 float \$12;
#X obj 1011 112 float \$14;
#X obj 1166 111 float \$16;
#X obj 632 114 symbol \$9;
#X obj 788 113 symbol \$11;
#X obj 940 112 symbol \$13;
#X obj 1095 111 symbol \$15;
#X obj 686 266 s \$0-5;
#X obj 841 265 s \$0-6;
#X obj 994 264 s \$0-7;
#X obj 1149 263 s \$0-8;
#X obj 631 59 select \$9;
#X obj 631 34 symbol \$9;
#X obj 787 33 symbol \$11;
#X obj 787 58 select \$11;
#X obj 940 34 symbol \$13;
#X obj 940 59 select \$13;
#X obj 1095 30 symbol \$15;
#X obj 1095 55 select \$15;
#X obj 631 8 loadbang;
#X obj 787 7 loadbang;
#X obj 940 6 loadbang;
#X obj 1095 5 loadbang;
#X obj 1095 84 t b b;
#X obj 1095 143 pack s f;
#X obj 632 146 pack s f;
#X obj 787 145 pack s f;
#X obj 940 144 pack s f;
#X obj 632 87 t b b;
#X obj 787 86 t b b;
#X obj 940 85 t b b;
#X msg 632 315 \; \$1-r \$2;
#X msg 786 314 \; \$1-r \$2;
#X msg 940 312 \; \$1-r \$2;
#X msg 1095 311 \; \$1-r \$2;
#X msg 659 191 symbol \$1-s;
#X msg 814 190 symbol \$1-s;
#X msg 967 189 symbol \$1-s;
#X msg 1122 188 symbol \$1-s;
#X obj 1248 29 symbol \$17;
#X obj 1248 54 select \$17;
#X obj 1395 28 symbol \$19;
#X obj 1395 53 select \$19;
#X obj 1546 29 symbol \$21;
#X obj 1546 54 select \$21;
#X obj 1697 25 symbol \$23;
#X obj 1697 50 select \$23;
#X obj 1249 109 symbol \$17;
#X obj 1396 108 symbol \$19;
#X obj 1546 107 symbol \$21;
#X obj 1697 106 symbol \$23;
#X obj 1320 109 float \$18;
#X obj 1466 108 float \$20;
#X obj 1617 107 float \$22;
#X obj 1768 106 float \$24;
#X obj 1303 261 s \$0-9;
#X obj 1449 260 s \$0-10;
#X obj 1600 259 s \$0-11;
#X obj 1751 258 s \$0-12;
#X obj 1538 576 r \$0-9;
#X obj 1552 601 r \$0-10;
#X obj 1565 388 r \$0-11;
#X obj 1579 412 r \$0-12;
#X obj 644 546 t a a;
#X obj 671 591 oreceive;
#X obj 671 616 t b f;
#X obj 671 665 s \$0-pack;
#X obj 790 545 t a a;
#X obj 817 590 oreceive;
#X obj 817 615 t b f;
#X obj 817 664 s \$0-pack;
#X obj 941 544 t a a;
#X obj 968 589 oreceive;
#X obj 968 614 t b f;
#X obj 968 663 s \$0-pack;
#X obj 1092 543 t a a;
#X obj 1119 588 oreceive;
#X obj 1119 613 t b f;
#X obj 1119 662 s \$0-pack;
#X obj 643 383 loadbang;
#X obj 790 382 loadbang;
#X obj 941 381 loadbang;
#X obj 1092 380 loadbang;
#X obj 1092 459 t b b;
#X obj 1092 518 pack s f;
#X obj 644 521 pack s f;
#X obj 790 520 pack s f;
#X obj 941 519 pack s f;
#X obj 644 462 t b b;
#X obj 790 461 t b b;
#X obj 941 460 t b b;
#X msg 644 690 \; \$1-r \$2;
#X msg 789 689 \; \$1-r \$2;
#X msg 941 687 \; \$1-r \$2;
#X msg 1092 686 \; \$1-r \$2;
#X msg 671 566 symbol \$1-s;
#X msg 817 565 symbol \$1-s;
#X msg 968 564 symbol \$1-s;
#X msg 1119 563 symbol \$1-s;
#X obj 27 551 t a a;
#X obj 54 596 oreceive;
#X obj 54 621 t b f;
#X obj 54 670 s \$0-pack;
#X obj 182 550 t a a;
#X obj 209 595 oreceive;
#X obj 209 620 t b f;
#X obj 209 669 s \$0-pack;
#X obj 335 549 t a a;
#X obj 362 594 oreceive;
#X obj 362 619 t b f;
#X obj 362 668 s \$0-pack;
#X obj 490 548 t a a;
#X obj 517 593 oreceive;
#X obj 517 618 t b f;
#X obj 517 667 s \$0-pack;
#X obj 26 388 loadbang;
#X obj 182 387 loadbang;
#X obj 335 386 loadbang;
#X obj 490 385 loadbang;
#X obj 490 464 t b b;
#X obj 490 523 pack s f;
#X obj 27 526 pack s f;
#X obj 182 525 pack s f;
#X obj 335 524 pack s f;
#X obj 27 467 t b b;
#X obj 182 466 t b b;
#X obj 335 465 t b b;
#X msg 27 695 \; \$1-r \$2;
#X msg 181 694 \; \$1-r \$2;
#X msg 335 692 \; \$1-r \$2;
#X msg 490 691 \; \$1-r \$2;
#X msg 54 571 symbol \$1-s;
#X msg 209 570 symbol \$1-s;
#X msg 362 569 symbol \$1-s;
#X msg 517 568 symbol \$1-s;
#X obj 26 414 symbol \$25;
#X obj 182 413 symbol \$27;
#X obj 335 414 symbol \$29;
#X obj 490 410 symbol \$31;
#X obj 643 409 symbol \$33;
#X obj 790 408 symbol \$35;
#X obj 941 409 symbol \$37;
#X obj 26 439 select \$25;
#X obj 182 438 select \$27;
#X obj 335 439 select \$29;
#X obj 490 435 select \$31;
#X obj 643 434 select \$33;
#X obj 790 433 select \$35;
#X obj 941 434 select \$37;
#X obj 27 494 symbol \$25;
#X obj 98 494 float \$26;
#X obj 183 493 symbol \$27;
#X obj 253 493 float \$28;
#X obj 335 492 symbol \$29;
#X obj 406 492 float \$30;
#X obj 490 491 symbol \$31;
#X obj 561 491 float \$32;
#X obj 644 489 symbol \$33;
#X obj 715 489 float \$34;
#X obj 791 488 symbol \$35;
#X obj 861 488 float \$36;
#X obj 941 487 symbol \$37;
#X obj 1012 487 float \$38;
#X obj 1092 486 symbol \$39;
#X obj 1163 486 float \$40;
#X obj 1092 405 symbol \$39;
#X obj 1092 430 select \$39;
#X obj 81 646 s \$0-13;
#X obj 236 645 s \$0-14;
#X obj 389 644 s \$0-15;
#X obj 544 643 s \$0-16;
#X obj 698 641 s \$0-17;
#X obj 844 640 s \$0-18;
#X obj 995 639 s \$0-19;
#X obj 1146 638 s \$0-20;
#X obj 1425 677 pack f f f f f f f f f f f f f f f f f f f f;
#X obj 1596 436 r \$0-13;
#X obj 1610 461 r \$0-14;
#X obj 1622 487 r \$0-15;
#X obj 1637 511 r \$0-16;
#X obj 1652 538 r \$0-17;
#X obj 1664 564 r \$0-18;
#X obj 1678 590 r \$0-19;
#X obj 1691 616 r \$0-20;
#X connect 0 0 84 0;
#X connect 0 1 92 0;
#X connect 1 0 71 0;
#X connect 2 0 71 1;
#X connect 3 0 5 0;
#X connect 6 0 292 0;
#X connect 7 0 292 0;
#X connect 8 0 292 1;
#X connect 9 0 292 2;
#X connect 10 0 292 3;
#X connect 11 0 292 4;
#X connect 12 0 292 5;
#X connect 13 0 292 6;
#X connect 14 0 292 7;
#X connect 15 0 85 0;
#X connect 15 1 93 0;
#X connect 16 0 17 0;
#X connect 17 0 18 0;
#X connect 17 1 49 0;
#X connect 19 0 86 0;
#X connect 19 1 94 0;
#X connect 20 0 21 0;
#X connect 21 0 22 0;
#X connect 21 1 50 0;
#X connect 23 0 87 0;
#X connect 23 1 95 0;
#X connect 24 0 25 0;
#X connect 25 0 26 0;
#X connect 25 1 51 0;
#X connect 27 0 88 0;
#X connect 27 1 96 0;
#X connect 28 0 29 0;
#X connect 29 0 30 0;
#X connect 29 1 172 0;
#X connect 31 0 89 0;
#X connect 31 1 97 0;
#X connect 32 0 33 0;
#X connect 33 0 34 0;
#X connect 33 1 173 0;
#X connect 35 0 90 0;
#X connect 35 1 98 0;
#X connect 36 0 37 0;
#X connect 37 0 38 0;
#X connect 37 1 174 0;
#X connect 39 0 91 0;
#X connect 39 1 99 0;
#X connect 40 0 41 0;
#X connect 41 0 42 0;
#X connect 41 1 175 0;
#X connect 43 0 72 0;
#X connect 44 0 72 1;
#X connect 45 0 73 1;
#X connect 46 0 74 1;
#X connect 47 0 73 0;
#X connect 48 0 74 0;
#X connect 52 0 53 0;
#X connect 53 0 70 0;
#X connect 54 0 78 0;
#X connect 55 0 54 0;
#X connect 56 0 57 0;
#X connect 57 0 79 0;
#X connect 58 0 59 0;
#X connect 59 0 80 0;
#X connect 60 0 52 0;
#X connect 61 0 55 0;
#X connect 62 0 56 0;
#X connect 63 0 58 0;
#X connect 64 0 156 0;
#X connect 65 0 158 0;
#X connect 66 0 160 0;
#X connect 67 0 162 0;
#X connect 68 0 167 0;
#X connect 68 1 171 0;
#X connect 69 0 39 0;
#X connect 70 0 1 0;
#X connect 70 1 2 0;
#X connect 71 0 0 0;
#X connect 72 0 15 0;
#X connect 73 0 19 0;
#X connect 74 0 23 0;
#X connect 75 0 27 0;
#X connect 76 0 31 0;
#X connect 77 0 35 0;
#X connect 78 0 43 0;
#X connect 78 1 44 0;
#X connect 79 0 47 0;
#X connect 79 1 45 0;
#X connect 80 0 48 0;
#X connect 80 1 46 0;
#X connect 81 0 164 0;
#X connect 81 1 168 0;
#X connect 82 0 165 0;
#X connect 82 1 169 0;
#X connect 83 0 166 0;
#X connect 83 1 170 0;
#X connect 92 0 3 0;
#X connect 93 0 16 0;
#X connect 94 0 20 0;
#X connect 95 0 24 0;
#X connect 96 0 28 0;
#X connect 97 0 32 0;
#X connect 98 0 36 0;
#X connect 99 0 40 0;
#X connect 100 0 148 0;
#X connect 100 1 152 0;
#X connect 101 0 102 0;
#X connect 102 0 103 0;
#X connect 102 1 124 0;
#X connect 104 0 149 0;
#X connect 104 1 153 0;
#X connect 105 0 106 0;
#X connect 106 0 107 0;
#X connect 106 1 125 0;
#X connect 108 0 150 0;
#X connect 108 1 154 0;
#X connect 109 0 110 0;
#X connect 110 0 111 0;
#X connect 110 1 126 0;
#X connect 112 0 151 0;
#X connect 112 1 155 0;
#X connect 113 0 114 0;
#X connect 114 0 115 0;
#X connect 114 1 127 0;
#X connect 116 0 142 1;
#X connect 117 0 143 1;
#X connect 118 0 144 1;
#X connect 119 0 141 1;
#X connect 120 0 142 0;
#X connect 121 0 143 0;
#X connect 122 0 144 0;
#X connect 123 0 141 0;
#X connect 128 0 145 0;
#X connect 129 0 128 0;
#X connect 130 0 131 0;
#X connect 131 0 146 0;
#X connect 132 0 133 0;
#X connect 133 0 147 0;
#X connect 134 0 135 0;
#X connect 135 0 140 0;
#X connect 136 0 129 0;
#X connect 137 0 130 0;
#X connect 138 0 132 0;
#X connect 139 0 134 0;
#X connect 140 0 123 0;
#X connect 140 1 119 0;
#X connect 141 0 112 0;
#X connect 142 0 100 0;
#X connect 143 0 104 0;
#X connect 144 0 108 0;
#X connect 145 0 120 0;
#X connect 145 1 116 0;
#X connect 146 0 121 0;
#X connect 146 1 117 0;
#X connect 147 0 122 0;
#X connect 147 1 118 0;
#X connect 152 0 101 0;
#X connect 153 0 105 0;
#X connect 154 0 109 0;
#X connect 155 0 113 0;
#X connect 156 0 157 0;
#X connect 157 0 81 0;
#X connect 158 0 159 0;
#X connect 159 0 82 0;
#X connect 160 0 161 0;
#X connect 161 0 83 0;
#X connect 162 0 163 0;
#X connect 163 0 68 0;
#X connect 164 0 75 0;
#X connect 165 0 76 0;
#X connect 166 0 77 0;
#X connect 167 0 69 0;
#X connect 168 0 75 1;
#X connect 169 0 76 1;
#X connect 170 0 77 1;
#X connect 171 0 69 1;
#X connect 176 0 292 8;
#X connect 177 0 292 9;
#X connect 178 0 292 10;
#X connect 179 0 292 11;
#X connect 180 0 208 0;
#X connect 180 1 212 0;
#X connect 181 0 182 0;
#X connect 182 0 183 0;
#X connect 182 1 288 0;
#X connect 184 0 209 0;
#X connect 184 1 213 0;
#X connect 185 0 186 0;
#X connect 186 0 187 0;
#X connect 186 1 289 0;
#X connect 188 0 210 0;
#X connect 188 1 214 0;
#X connect 189 0 190 0;
#X connect 190 0 191 0;
#X connect 190 1 290 0;
#X connect 192 0 211 0;
#X connect 192 1 215 0;
#X connect 193 0 194 0;
#X connect 194 0 195 0;
#X connect 194 1 291 0;
#X connect 196 0 256 0;
#X connect 197 0 257 0;
#X connect 198 0 258 0;
#X connect 199 0 282 0;
#X connect 200 0 280 0;
#X connect 200 1 281 0;
#X connect 201 0 192 0;
#X connect 202 0 180 0;
#X connect 203 0 184 0;
#X connect 204 0 188 0;
#X connect 205 0 274 0;
#X connect 205 1 275 0;
#X connect 206 0 276 0;
#X connect 206 1 277 0;
#X connect 207 0 278 0;
#X connect 207 1 279 0;
#X connect 212 0 181 0;
#X connect 213 0 185 0;
#X connect 214 0 189 0;
#X connect 215 0 193 0;
#X connect 216 0 244 0;
#X connect 216 1 248 0;
#X connect 217 0 218 0;
#X connect 218 0 219 0;
#X connect 218 1 284 0;
#X connect 220 0 245 0;
#X connect 220 1 249 0;
#X connect 221 0 222 0;
#X connect 222 0 223 0;
#X connect 222 1 285 0;
#X connect 224 0 246 0;
#X connect 224 1 250 0;
#X connect 225 0 226 0;
#X connect 226 0 227 0;
#X connect 226 1 286 0;
#X connect 228 0 247 0;
#X connect 228 1 251 0;
#X connect 229 0 230 0;
#X connect 230 0 231 0;
#X connect 230 1 287 0;
#X connect 232 0 252 0;
#X connect 233 0 253 0;
#X connect 234 0 254 0;
#X connect 235 0 255 0;
#X connect 236 0 272 0;
#X connect 236 1 273 0;
#X connect 237 0 228 0;
#X connect 238 0 216 0;
#X connect 239 0 220 0;
#X connect 240 0 224 0;
#X connect 241 0 266 0;
#X connect 241 1 267 0;
#X connect 242 0 268 0;
#X connect 242 1 269 0;
#X connect 243 0 270 0;
#X connect 243 1 271 0;
#X connect 248 0 217 0;
#X connect 249 0 221 0;
#X connect 250 0 225 0;
#X connect 251 0 229 0;
#X connect 252 0 259 0;
#X connect 253 0 260 0;
#X connect 254 0 261 0;
#X connect 255 0 262 0;
#X connect 256 0 263 0;
#X connect 257 0 264 0;
#X connect 258 0 265 0;
#X connect 259 0 241 0;
#X connect 260 0 242 0;
#X connect 261 0 243 0;
#X connect 262 0 236 0;
#X connect 263 0 205 0;
#X connect 264 0 206 0;
#X connect 265 0 207 0;
#X connect 266 0 238 0;
#X connect 267 0 238 1;
#X connect 268 0 239 0;
#X connect 269 0 239 1;
#X connect 270 0 240 0;
#X connect 271 0 240 1;
#X connect 272 0 237 0;
#X connect 273 0 237 1;
#X connect 274 0 202 0;
#X connect 275 0 202 1;
#X connect 276 0 203 0;
#X connect 277 0 203 1;
#X connect 278 0 204 0;
#X connect 279 0 204 1;
#X connect 280 0 201 0;
#X connect 281 0 201 1;
#X connect 282 0 283 0;
#X connect 283 0 200 0;
#X connect 292 0 4 0;
#X connect 293 0 292 12;
#X connect 294 0 292 13;
#X connect 295 0 292 14;
#X connect 296 0 292 15;
#X connect 297 0 292 16;
#X connect 298 0 292 17;
#X connect 299 0 292 18;
#X connect 300 0 292 19;
