#N canvas 484 153 1406 763 10;
#X obj 104 238 hsl 30 15 0 127 0 1 \$0-maestro4-pan1-s \$0-maestro4-pan1-r
PAN1 0 25 0 10 -262144 -1 -1 1400 1;
#X obj 104 155 vsl 17 80 1.27 127 1 1 \$0-maestro4-ch1-s \$0-maestro4-ch1-r
CH1 -1 -9 0 10 -262144 -1 -1 1350 1;
#X obj 122 155 vu 15 80 \$0-maestro4-ch1-meter-r empty -1 -8 0 10 -262144
-1 0 0;
#X obj 149 238 hsl 30 15 0 127 0 1 \$0-maestro4-pan2-s \$0-maestro4-pan2-r
PAN2 0 25 0 10 -262144 -1 -1 1300 1;
#X obj 149 155 vsl 17 80 1.27 127 1 1 \$0-maestro4-ch2-s \$0-maestro4-ch2-r
CH2 -1 -9 0 10 -262144 -1 -1 6050 1;
#X obj 167 155 vu 15 80 \$0-maestro4-ch2-meter-r empty -1 -8 0 10 -262144
-1 0 0;
#X obj 194 238 hsl 30 15 0 127 0 1 \$0-maestro4-pan3-s \$0-maestro4-pan3-r
PAN3 0 25 0 10 -262144 -1 -1 0 1;
#X obj 194 155 vsl 17 80 1.27 127 1 1 \$0-maestro4-ch3-s \$0-maestro4-ch3-r
CH3 -1 -9 0 10 -262144 -1 -1 0 1;
#X obj 212 155 vu 15 80 \$0-maestro4-ch3-meter-r empty -1 -8 0 10 -262144
-1 0 0;
#X obj 239 238 hsl 30 15 0 127 0 1 \$0-maestro4-pan4-s \$0-maestro4-pan4-r
PAN4 0 25 0 10 -262144 -1 -1 0 1;
#X obj 239 155 vsl 17 80 1.27 127 1 1 \$0-maestro4-ch4-s \$0-maestro4-ch4-r
CH4 -1 -9 0 10 -262144 -1 -1 0 1;
#X obj 257 155 vu 15 80 \$0-maestro4-ch4-meter-r empty -1 -8 0 10 -262144
-1 0 0;
#X obj 309 155 vu 15 80 \$0-maestro4-meter-left-r empty -1 -8 0 10
-262144 -1 0 0;
#X obj 327 155 vu 15 80 \$0-maestro4-meter-right-r empty -1 -8 0 10
-262144 -1 0 0;
#X obj 277 155 vsl 30 79 1.27 127 1 1 \$0-maestro4-master-s \$0-maestro4-master-r
MASTER 0 -8 0 10 -262144 -1 -1 7800 1;
#X obj 104 131 cnv 5 5 5 empty empty MAESTRO4 0 0 0 12 -262144 -66577
0;
#X obj 166 109 cnv 5 5 5 empty empty CH2 0 0 0 8 -262144 -66577 0;
#X obj 104 109 cnv 5 5 5 empty empty CH1 0 0 0 8 -262144 -66577 0;
#X obj 234 109 cnv 5 5 5 empty empty CH3 0 0 0 8 -262144 -66577 0;
#X obj 457 311 inlet~ CHANNEL_ONE;
#X obj 467 621 *~;
#X obj 512 621 *~;
#X obj 310 411 r \$0-maestro4-pan1-s;
#X obj 310 461 t f f;
#X msg 310 483 1 \$1;
#X obj 310 505 -;
#X obj 310 527 pack 0 50;
#X obj 310 549 line~;
#X obj 310 572 +~;
#X obj 380 527 pack 0 50;
#X obj 380 549 line~;
#X obj 380 572 +~;
#X obj 467 668 throw~ \$0-left;
#X obj 512 646 throw~ \$0-right;
#X obj 20 362 catch~ \$0-left;
#X obj 65 391 catch~ \$0-right;
#X obj 469 516 *~;
#X obj 484 360 r \$0-maestro4-ch1-s;
#X obj 484 407 * 0.00787402;
#X obj 484 467 pack 0 50;
#X obj 484 489 line~;
#X obj 484 383 - 1.27;
#X obj 625 272 *~;
#X obj 670 272 *~;
#X obj 466 144 t f f;
#X msg 466 166 1 \$1;
#X obj 466 188 -;
#X obj 466 210 pack 0 50;
#X obj 466 232 line~;
#X obj 466 256 +~;
#X obj 536 210 pack 0 50;
#X obj 536 232 line~;
#X obj 536 256 +~;
#X obj 625 319 throw~ \$0-left;
#X obj 670 297 throw~ \$0-right;
#X obj 625 199 *~;
#X obj 640 150 pack 0 50;
#X obj 640 172 line~;
#X obj 640 82 - 1.27;
#X obj 625 31 inlet~ CHANNEL_TWO;
#X obj 640 59 r \$0-maestro4-ch2-s;
#X obj 466 100 r \$0-maestro4-pan2-s;
#X obj 827 627 *~;
#X obj 872 627 *~;
#X obj 668 477 * 0.00787402;
#X obj 668 499 t f f;
#X msg 668 521 1 \$1;
#X obj 668 543 -;
#X obj 668 565 pack 0 50;
#X obj 668 587 line~;
#X obj 668 610 +~;
#X obj 738 565 pack 0 50;
#X obj 738 587 line~;
#X obj 738 610 +~;
#X obj 827 674 throw~ \$0-left;
#X obj 872 652 throw~ \$0-right;
#X obj 827 554 *~;
#X obj 842 438 * 0.00787402;
#X obj 842 505 pack 0 50;
#X obj 842 527 line~;
#X obj 842 414 - 1.27;
#X obj 827 347 inlet~ CHANNEL_THREE;
#X obj 842 391 r \$0-maestro4-ch3-s;
#X obj 668 455 r \$0-maestro4-pan3-s;
#X obj 953 304 *~;
#X obj 998 304 *~;
#X obj 794 154 * 0.00787402;
#X obj 794 176 t f f;
#X msg 794 198 1 \$1;
#X obj 794 220 -;
#X obj 794 242 pack 0 50;
#X obj 794 264 line~;
#X obj 794 287 +~;
#X obj 864 242 pack 0 50;
#X obj 864 264 line~;
#X obj 864 287 +~;
#X obj 953 351 throw~ \$0-left;
#X obj 998 329 throw~ \$0-right;
#X obj 953 231 *~;
#X obj 968 114 * 0.00787402;
#X obj 968 182 pack 0 50;
#X obj 968 204 line~;
#X obj 968 90 - 1.27;
#X obj 953 34 inlet~ CHANNEL_FOUR;
#X obj 968 67 r \$0-maestro4-ch4-s;
#X obj 794 132 r \$0-maestro4-pan4-s;
#X obj 133 630 env~;
#X obj 133 676 s \$0-maestro4-meter-left-r;
#X obj 133 652 - 96;
#X obj 116 542 env~;
#X obj 116 564 - 96;
#X obj 116 588 s \$0-maestro4-meter-right-r;
#X obj 625 340 env~;
#X obj 625 362 - 96;
#X obj 625 384 s \$0-maestro4-ch1-meter-r;
#X obj 765 48 env~;
#X obj 765 71 - 96;
#X obj 968 424 env~;
#X obj 968 446 - 96;
#X obj 1092 101 env~;
#X obj 1092 123 - 96;
#X obj 765 93 s \$0-maestro4-ch2-meter-r;
#X obj 968 468 s \$0-maestro4-ch3-meter-r;
#X obj 1092 145 s \$0-maestro4-ch4-meter-r;
#X obj 65 523 *~;
#X obj 20 523 *~;
#X obj 119 417 r \$0-maestro4-master-s;
#X obj 119 461 * 0.00787402;
#X obj 119 483 pack 0 50;
#X obj 119 506 line~;
#X obj 119 439 - 1.27;
#X obj 326 109 cnv 5 5 5 empty empty PAN4 0 0 0 8 -262144 -66577 0
;
#X obj 128 109 cnv 5 5 5 empty empty PAN1 0 0 0 8 -262144 -66577 0
;
#X obj 197 109 cnv 5 5 5 empty empty PAN2 0 0 0 8 -262144 -66577 0
;
#X obj 268 109 cnv 5 5 5 empty empty PAN3 0 0 0 8 -262144 -66577 0
;
#X obj 304 109 cnv 5 5 5 empty empty CH4 0 0 0 8 -262144 -66577 0;
#X obj 527 526 inlet~ PAN1 CV;
#X obj 527 555 *~ -1;
#X obj 673 238 *~ -1;
#X obj 673 213 inlet~ PAN2 CV;
#X obj 889 593 *~ -1;
#X obj 1016 270 *~ -1;
#X obj 1016 246 inlet~ PAN4 CV;
#X obj 889 568 inlet~ PAN3 CV;
#X obj 1099 329 r \$0-maestro4-sel-fx-s;
#X obj 1099 351 * 0.00787402;
#X obj 1099 373 * 4;
#X obj 1099 395 i;
#X obj 1099 417 sel 0 1 2 3;
#X obj 65 647 hip~ 5;
#X obj 65 668 clip~ -1 1;
#X obj 20 576 hip~ 5;
#X obj 20 597 clip~ -1 1;
#X obj 640 127 clip 0 1;
#X obj 968 136 clip 0 1;
#X obj 640 105 * 0.00787402;
#X obj 842 460 clip 0 1;
#X obj 484 434 clip 0 1;
#X obj 20 549 *~ 1;
#X obj 65 625 *~ 1;
#X obj 19 705 dac~ 1 2;
#X obj 1057 702 outlet~ LEFT;
#X obj 1144 700 outlet~ RIGHT;
#X floatatom 593 463 5 0 0 0 - - -, f 5;
#X floatatom 933 492 5 0 0 0 - - -, f 5;
#X obj 310 438 / 127;
#X obj 466 122 / 127;
#X obj 104 278 cnv 5 5 5 empty empty CH1 0 0 0 8 -262144 -66577 0;
#X obj 287 278 cnv 5 5 5 empty empty LEFT 0 0 0 8 -262144 -66577 0
;
#X obj 323 278 cnv 5 5 5 empty empty RIGHT 0 0 0 8 -262144 -66577 0
;
#X obj 304 705 outlet~ 1L;
#X obj 635 676 outlet~ 2L;
#X obj 746 703 outlet~ 3L;
#X obj 944 703 outlet~ 4L;
#X obj 145 278 cnv 5 5 5 empty empty CH2 0 0 0 8 -262144 -66577 0;
#X obj 193 278 cnv 5 5 5 empty empty CH3 0 0 0 8 -262144 -66577 0;
#X obj 242 278 cnv 5 5 5 empty empty CH4 0 0 0 8 -262144 -66577 0;
#X obj 1009 569 canvasargs;
#X obj 1009 505 argspack \$0-maestro4-ch1 \$1 \$0-maestro4-pan1 \$2
\$0-maestro4-ch2 \$3 \$0-maestro4-pan2 \$4 \$0-maestro4-ch3 \$5 \$0-maestro4-pan3
\$6 \$0-maestro4-ch4 \$7 \$0-maestro4-pan4 \$8 \$0-maestro4-master
\$9;
#X connect 19 0 36 0;
#X connect 20 0 32 0;
#X connect 21 0 33 0;
#X connect 22 0 165 0;
#X connect 23 0 24 0;
#X connect 23 1 29 0;
#X connect 24 0 25 0;
#X connect 25 0 26 0;
#X connect 26 0 27 0;
#X connect 27 0 28 0;
#X connect 28 0 20 1;
#X connect 29 0 30 0;
#X connect 30 0 31 0;
#X connect 31 0 21 1;
#X connect 34 0 125 0;
#X connect 34 0 161 0;
#X connect 35 0 124 0;
#X connect 35 0 162 0;
#X connect 36 0 20 0;
#X connect 36 0 21 0;
#X connect 36 0 112 0;
#X connect 36 0 170 0;
#X connect 37 0 41 0;
#X connect 38 0 157 0;
#X connect 39 0 40 0;
#X connect 40 0 36 1;
#X connect 41 0 38 0;
#X connect 42 0 53 0;
#X connect 43 0 54 0;
#X connect 44 0 45 0;
#X connect 44 1 50 0;
#X connect 45 0 46 0;
#X connect 46 0 47 0;
#X connect 47 0 48 0;
#X connect 48 0 49 0;
#X connect 49 0 42 1;
#X connect 50 0 51 0;
#X connect 51 0 52 0;
#X connect 52 0 43 1;
#X connect 55 0 42 0;
#X connect 55 0 43 0;
#X connect 55 0 115 0;
#X connect 55 0 171 0;
#X connect 56 0 57 0;
#X connect 57 0 55 1;
#X connect 58 0 155 0;
#X connect 59 0 55 0;
#X connect 60 0 58 0;
#X connect 61 0 166 0;
#X connect 62 0 74 0;
#X connect 63 0 75 0;
#X connect 64 0 65 0;
#X connect 65 0 66 0;
#X connect 65 1 71 0;
#X connect 66 0 67 0;
#X connect 67 0 68 0;
#X connect 68 0 69 0;
#X connect 69 0 70 0;
#X connect 70 0 62 1;
#X connect 71 0 72 0;
#X connect 72 0 73 0;
#X connect 73 0 63 1;
#X connect 76 0 62 0;
#X connect 76 0 63 0;
#X connect 76 0 117 0;
#X connect 76 0 172 0;
#X connect 77 0 156 0;
#X connect 78 0 79 0;
#X connect 79 0 76 1;
#X connect 80 0 77 0;
#X connect 81 0 76 0;
#X connect 82 0 80 0;
#X connect 83 0 64 0;
#X connect 84 0 96 0;
#X connect 85 0 97 0;
#X connect 86 0 87 0;
#X connect 87 0 88 0;
#X connect 87 1 93 0;
#X connect 88 0 89 0;
#X connect 89 0 90 0;
#X connect 90 0 91 0;
#X connect 91 0 92 0;
#X connect 92 0 84 1;
#X connect 93 0 94 0;
#X connect 94 0 95 0;
#X connect 95 0 85 1;
#X connect 98 0 84 0;
#X connect 98 0 85 0;
#X connect 98 0 119 0;
#X connect 98 0 173 0;
#X connect 99 0 154 0;
#X connect 100 0 101 0;
#X connect 101 0 98 1;
#X connect 102 0 99 0;
#X connect 103 0 98 0;
#X connect 104 0 102 0;
#X connect 105 0 86 0;
#X connect 106 0 108 0;
#X connect 108 0 107 0;
#X connect 109 0 110 0;
#X connect 110 0 111 0;
#X connect 112 0 113 0;
#X connect 113 0 114 0;
#X connect 115 0 116 0;
#X connect 116 0 121 0;
#X connect 117 0 118 0;
#X connect 118 0 122 0;
#X connect 119 0 120 0;
#X connect 120 0 123 0;
#X connect 124 0 159 0;
#X connect 125 0 158 0;
#X connect 126 0 130 0;
#X connect 127 0 128 0;
#X connect 128 0 129 0;
#X connect 129 0 124 1;
#X connect 129 0 125 1;
#X connect 130 0 127 0;
#X connect 136 0 137 0;
#X connect 136 0 31 1;
#X connect 137 0 28 1;
#X connect 138 0 49 1;
#X connect 139 0 138 0;
#X connect 139 0 52 1;
#X connect 140 0 70 1;
#X connect 141 0 92 1;
#X connect 142 0 141 0;
#X connect 142 0 95 1;
#X connect 143 0 140 0;
#X connect 143 0 73 1;
#X connect 144 0 145 0;
#X connect 145 0 146 0;
#X connect 146 0 147 0;
#X connect 147 0 148 0;
#X connect 149 0 150 0;
#X connect 150 0 160 1;
#X connect 151 0 152 0;
#X connect 152 0 160 0;
#X connect 153 0 56 0;
#X connect 154 0 100 0;
#X connect 155 0 153 0;
#X connect 156 0 78 0;
#X connect 156 0 164 0;
#X connect 157 0 39 0;
#X connect 157 0 163 0;
#X connect 158 0 106 0;
#X connect 158 0 151 0;
#X connect 159 0 109 0;
#X connect 159 0 149 0;
#X connect 165 0 23 0;
#X connect 166 0 44 0;
#X connect 178 0 177 0;
#X coords 0 -1 1 1 250 185 2 100 100;
