#N canvas 447 292 911 623 10;
#X obj 284 502 / 127;
#X obj 284 524 sig~;
#X obj 386 256 > 0;
#X obj 386 465 pack 0 10;
#X obj 386 487 line~;
#X obj 675 269 / 127;
#X obj 675 291 sig~;
#X obj 284 546 outlet~ PITCH;
#X obj 386 509 outlet~ GATE;
#X obj 675 313 outlet~ VELOCITY;
#X obj 137 135 cnv 15 15 15 empty \$0-midi-gui-r empty 20 12 0 14 -33289
-262144 0;
#X obj 405 326 + 12;
#X msg 405 348 color \$1;
#X obj 405 381 s \$0-midi-gui-r;
#X obj 284 332 t f f;
#X floatatom 193 135 3 0 0 2 - #0-vel-r -, f 3;
#X floatatom 105 135 3 0 0 2 - #0-note-r -, f 3;
#X obj 105 157 cnv 5 5 5 empty empty NOTE 0 0 0 8 -262144 -66577 0
;
#X obj 135 157 cnv 5 5 5 empty empty GATE 0 0 0 8 -262144 -66577 0
;
#X obj 197 157 cnv 5 5 5 empty empty VEL 0 0 0 8 -262144 -1 0;
#X obj 103 122 cnv 5 5 5 empty empty MIDI-CV 0 0 0 12 -262144 -66577
0;
#X obj 166 135 cnv 15 15 15 empty \$0-midi-gui-trig-r empty 20 12 0
14 -33289 -262144 0;
#X obj 164 157 cnv 5 5 5 empty empty TRIG 0 0 0 8 -262144 -66577 0
;
#X obj 526 504 outlet~ TRIG;
#X obj 646 459 + 12;
#X msg 646 481 color \$1;
#X obj 646 504 s \$0-midi-gui-trig-r;
#X obj 386 193 t f f f;
#X obj 386 278 t f f f;
#X obj 526 295 select 1;
#X msg 593 363 1;
#X msg 526 387 0;
#X obj 526 442 t f f;
#X obj 257 216 sel 1;
#X obj 284 302 f;
#X obj 369 126 t f f;
#X obj 369 101 f;
#X obj 274 68 t b f;
#X obj 311 362 s \$0-note-r;
#X obj 405 233 s \$0-vel-r;
#X obj 257 193 > 0;
#X obj 526 479 sig~;
#X obj 526 319 t b b b;
#X msg 629 363 0;
#X obj 526 363 delay 2;
#X obj 101 67 canvasargs;
#X obj 101 42 msgpack \$0-midi-cv-ch \$1;
#X obj 101 17 loadbang;
#X obj 274 42 inlet NOTE;
#X obj 384 74 inlet VELOCITY;
#X obj 102 106 cnv 5 5 5 empty empty NOTE 0 0 0 8 -262144 -66577 0
;
#X obj 176 106 cnv 5 5 5 empty empty VELOCITY 0 0 0 8 -262144 -66577
0;
#X connect 0 0 1 0;
#X connect 1 0 7 0;
#X connect 2 0 28 0;
#X connect 3 0 4 0;
#X connect 4 0 8 0;
#X connect 5 0 6 0;
#X connect 6 0 9 0;
#X connect 11 0 12 0;
#X connect 12 0 13 0;
#X connect 14 0 0 0;
#X connect 14 1 38 0;
#X connect 24 0 25 0;
#X connect 25 0 26 0;
#X connect 27 0 2 0;
#X connect 27 1 39 0;
#X connect 27 2 5 0;
#X connect 28 0 3 0;
#X connect 28 1 11 0;
#X connect 28 2 29 0;
#X connect 29 0 42 0;
#X connect 30 0 32 0;
#X connect 31 0 32 0;
#X connect 32 0 41 0;
#X connect 32 1 24 0;
#X connect 33 0 34 0;
#X connect 34 0 14 0;
#X connect 35 0 27 0;
#X connect 35 1 40 0;
#X connect 36 0 35 0;
#X connect 37 0 36 0;
#X connect 37 1 34 1;
#X connect 40 0 33 0;
#X connect 41 0 23 0;
#X connect 42 0 44 0;
#X connect 42 1 30 0;
#X connect 42 2 43 0;
#X connect 43 0 32 0;
#X connect 44 0 31 0;
#X connect 46 0 45 0;
#X connect 47 0 46 0;
#X connect 48 0 37 0;
#X connect 49 0 36 1;
#X coords 0 -1 1 1 119 65 2 100 100;
