#N canvas 695 376 698 518 10;
#X obj 24 298 cnv 15 400 30 empty empty OUTPUTS: 20 12 0 14 -216373
-262144 0;
#X obj 21 160 cnv 15 400 30 empty empty CONTROLS: 20 12 0 14 -216373
-262144 0;
#X obj 21 231 cnv 15 400 30 empty empty INPUTS: 20 12 0 14 -216373
-262144 0;
#X obj 20 17 cnv 15 400 30 empty empty MIDI-MONO-CV: 20 12 0 14 -245500
-262144 0;
#X obj 441 16 midi-mono-cv~ 0 0;
#X text 20 64 The "MIDI-MONO-CV" module accepts MIDI note and velocity
signals from MIDI sources and outputs them as Automatonism signals.
Remember that all external MIDI gear must be connected before launching
PD and selected in the PD MIDI Settings.;
#X text 25 267 /none/;
#X text 25 340 NOTE - MIDI note output;
#X text 25 366 GATE - MIDI gate output;
#X text 25 398 VEL - MIDI velocity output;
#X text 25 198 GLIDE - select the frequency glide duration between
notes;
