#N canvas 406 178 605 572 10;
#X obj 243 120 t f f;
#X floatatom 139 143 3 0 0 2 - #0-vel-r -, f 3;
#X floatatom 105 143 3 0 0 2 - #0-note-r -, f 3;
#X obj 105 165 cnv 5 5 5 empty empty NOTE 0 0 0 8 -262144 -66577 0
;
#X obj 140 165 cnv 5 5 5 empty empty VEL 0 0 0 8 -262144 -1 0;
#X obj 103 110 cnv 5 5 5 empty empty MIDI-IN 0 0 0 12 -262144 -66577
0;
#X obj 243 87 r \$0-note;
#X obj 375 89 r \$0-velocity;
#X obj 102 199 notein;
#X obj 102 480 s \$0-note;
#X obj 118 352 s \$0-velocity;
#X obj 102 455 spigot;
#X obj 135 223 s \$0-channel;
#X obj 134 432 ==;
#X obj 134 387 r \$0-channel;
#X obj 118 325 spigot;
#X obj 150 302 ==;
#X obj 150 257 r \$0-channel;
#X obj 104 122 nbx 3 15 1 16 0 0 \$0-midi-in-ch-s \$0-midi-in-ch-r
CH 40 5 0 10 -262144 -1 -1 1 256 0;
#X obj 165 280 r \$0-midi-in-ch-s;
#X obj 149 407 r \$0-midi-in-ch-s;
#X obj 270 150 s \$0-note-r;
#X obj 402 153 s \$0-vel-r;
#X obj 101 67 canvasargs;
#X obj 101 42 msgpack \$0-midi-in-ch \$1;
#X obj 101 17 loadbang;
#X obj 243 179 outlet NOTE;
#X obj 375 180 outlet VELOCITY;
#X obj 375 120 t f f;
#X connect 0 0 26 0;
#X connect 0 1 21 0;
#X connect 6 0 0 0;
#X connect 7 0 28 0;
#X connect 8 0 11 0;
#X connect 8 1 15 0;
#X connect 8 2 12 0;
#X connect 11 0 9 0;
#X connect 13 0 11 1;
#X connect 14 0 13 0;
#X connect 15 0 10 0;
#X connect 16 0 15 1;
#X connect 17 0 16 0;
#X connect 19 0 16 1;
#X connect 20 0 13 1;
#X connect 24 0 23 0;
#X connect 25 0 24 0;
#X connect 28 0 27 0;
#X connect 28 1 22 0;
#X coords 0 -1 1 1 63 74 2 100 100;
