#N canvas 596 183 957 726 10;
#X obj 307 418 / 127;
#X obj 307 561 sig~;
#X obj 369 131 > 0;
#X obj 413 503 pack 0 10;
#X obj 413 525 line~;
#X obj 630 459 / 127;
#X obj 630 548 sig~;
#X obj 307 583 outlet~ PITCH;
#X obj 413 547 outlet~ GATE;
#X obj 630 570 outlet~ VELOCITY;
#X obj 155 158 cnv 15 15 15 empty \$0-midi-gui-r empty 20 12 0 14 -33289
-262144 0;
#X obj 437 351 + 12;
#X msg 437 373 color \$1;
#X obj 437 396 s \$0-midi-gui-r;
#X obj 307 314 t f f;
#X floatatom 188 158 5 0 0 2 - #0-vel-r -, f 5;
#X floatatom 104 158 5 0 0 2 - #0-note-r -, f 5;
#X obj 104 180 cnv 5 5 5 empty empty NOTE 0 0 0 8 -262144 -66577 0
;
#X obj 153 180 cnv 5 5 5 empty empty GATE 0 0 0 8 -262144 -66577 0
;
#X obj 206 180 cnv 5 5 5 empty empty VEL 0 0 0 8 -262144 -1 0;
#X obj 103 122 cnv 5 5 5 empty empty MIDI-MONO-CV 0 0 0 12 -262144
-66577 0;
#X obj 277 187 sel 1;
#X obj 307 285 f;
#X obj 410 191 expr if($f1 \, $f2+1 \, $f2-1);
#X obj 410 241 > 0;
#X obj 630 383 f;
#X obj 369 103 t f f;
#X obj 369 153 t f f;
#X obj 630 408 t f f;
#X obj 657 433 s \$0-vel-r;
#X obj 334 340 s \$0-note-r;
#X obj 410 217 t f f;
#X obj 353 70 f;
#X obj 297 40 t b f;
#X obj 410 266 t f f f;
#X obj 603 162 sel 0;
#X obj 550 283 sel 0;
#X msg 550 305 0;
#X obj 104 136 hsl 80 15 0 1000 0 0 \$0-midi-mono-cv-glide-s \$0-midi-mono-cv-glide-r
GLIDE 88 5 0 10 -262144 -1 -1 0 1;
#X obj 307 492 line;
#X obj 307 466 pack f f;
#X obj 352 441 r \$0-midi-mono-cv-glide-s;
#X obj 550 628 s \$0-midi-mono-cv-glide-s;
#X obj 717 301 bang;
#X obj 717 326 s \$0-midi-mono-cv-glide-r;
#X obj 550 330 t f f;
#X obj 630 497 pack f f;
#X obj 630 522 line;
#X obj 85 653 canvasargs;
#X msg 562 111 0;
#X obj 203 117 bng 15 250 50 0 \$0-midi-mono-cv-reset-s \$0-midi-mono-cv-reset-r
empty 17 7 0 10 -262144 -1 -1;
#X msg 740 123 0;
#X obj 740 148 s \$0-midi-mono-cv-glide-s;
#X obj 740 98 r \$0-midi-mono-cv-reset-s;
#X obj 740 34 loadbang;
#X obj 740 59 s \$0-midi-mono-cv-reset-r;
#X obj 562 81 r \$0-midi-mono-cv-reset-s;
#X obj 675 466 r \$0-midi-mono-cv-glide-s;
#X obj 604 321 tgl 15 0 empty empty handle\ note-off 17 7 0 8 -262144
-1 -1 0 1;
#X obj 577 354 sel 0;
#X obj 85 628 msgpack \$0-midi-mono-cv-glide \$1 \$0-midi-mono-cv-ch
\$2;
#X obj 85 603 loadbang;
#X obj 297 14 inlet NOTE;
#X obj 368 43 inlet VELOCITY;
#X obj 103 106 cnv 5 5 5 empty empty NOTE 0 0 0 8 -262144 -66577 0
;
#X obj 180 106 cnv 5 5 5 empty empty VELOCITY 0 0 0 8 -262144 -66577
0;
#X connect 0 0 40 0;
#X connect 1 0 7 0;
#X connect 2 0 27 0;
#X connect 3 0 4 0;
#X connect 4 0 8 0;
#X connect 5 0 46 0;
#X connect 6 0 9 0;
#X connect 11 0 12 0;
#X connect 12 0 13 0;
#X connect 14 0 0 0;
#X connect 14 1 30 0;
#X connect 21 0 22 0;
#X connect 22 0 14 0;
#X connect 23 0 31 0;
#X connect 24 0 34 0;
#X connect 25 0 28 0;
#X connect 26 0 2 0;
#X connect 26 1 35 0;
#X connect 27 0 23 0;
#X connect 27 1 21 0;
#X connect 28 0 5 0;
#X connect 28 1 29 0;
#X connect 31 0 24 0;
#X connect 31 1 23 1;
#X connect 32 0 26 0;
#X connect 33 0 32 0;
#X connect 33 1 22 1;
#X connect 34 0 3 0;
#X connect 34 1 11 0;
#X connect 34 2 36 0;
#X connect 35 1 25 0;
#X connect 36 0 37 0;
#X connect 36 1 43 0;
#X connect 37 0 45 0;
#X connect 39 0 1 0;
#X connect 40 0 39 0;
#X connect 41 0 40 1;
#X connect 43 0 44 0;
#X connect 45 0 42 0;
#X connect 45 1 59 0;
#X connect 46 0 47 0;
#X connect 47 0 6 0;
#X connect 49 0 23 1;
#X connect 51 0 52 0;
#X connect 53 0 51 0;
#X connect 54 0 55 0;
#X connect 56 0 49 0;
#X connect 57 0 46 1;
#X connect 58 0 59 1;
#X connect 59 1 25 0;
#X connect 60 0 48 0;
#X connect 61 0 60 0;
#X connect 62 0 33 0;
#X connect 63 0 32 1;
#X coords 0 -1 1 1 124 90 2 100 100;
