#N canvas 159 78 1109 826 10;
#X obj 97 89 inlet~;
#X obj 97 319 *~;
#X obj 128 318 *~;
#X obj 97 343 +~;
#X obj 98 364 powtodb~;
#N canvas 0 22 346 535 init_input_window 0;
#X obj 73 217 / 10;
#X obj 55 278 line 0 0.1;
#X msg 119 246 0;
#X obj 54 176 t f f b;
#X obj 54 239 pack;
#X obj 55 301 t f f;
#X obj 54 152 - 1;
#X obj 74 114 t f f;
#X obj 55 359 * 3.14159;
#X obj 55 381 sin;
#X msg 55 401 \$1 \$1;
#X obj 55 423 *;
#X text 119 334 0...0.99;
#X text 128 359 0...pi;
#X text 79 423 hanning;
#X msg 55 88 4096;
#X obj 100 88 f 4096;
#X obj 99 60 bng 15 250 50 0 empty empty empty 0 -6 0 8 -262144 -1
-1;
#X obj 99 39 loadbang;
#X obj 74 333 / 4096;
#X obj 55 448 tabwrite \$0-window;
#X text 86 381 half-sine;
#X connect 0 0 4 1;
#X connect 1 0 5 0;
#X connect 2 0 1 0;
#X connect 3 0 4 0;
#X connect 3 1 0 0;
#X connect 3 2 2 0;
#X connect 4 0 1 0;
#X connect 5 0 19 0;
#X connect 5 1 20 1;
#X connect 6 0 3 0;
#X connect 7 0 6 0;
#X connect 7 1 19 1;
#X connect 8 0 9 0;
#X connect 9 0 10 0;
#X connect 10 0 11 0;
#X connect 11 0 20 0;
#X connect 15 0 7 0;
#X connect 16 0 7 0;
#X connect 17 0 16 0;
#X connect 18 0 17 0;
#X connect 19 0 8 0;
#X restore 157 263 pd init_input_window;
#N canvas 0 22 450 300 (subpatch) 0;
#X array \$0-lin_scope 2048 float 0 black black;
#X coords 0 100 2047 0 200 140 1;
#X restore 106 608 graph;
#N canvas 0 22 822 328 init_norm 0;
#X obj 43 230 outlet;
#X obj 43 187 - 100;
#X floatatom 43 208 9 0 0 0 - - -, f 9;
#X text 108 169 leistung - techn. dB;
#X msg 43 69 4096;
#X obj 80 68 f 4096;
#X obj 80 47 bng 15 250 50 0 empty empty empty 0 -6 0 8 -262144 -1
-1;
#X obj 80 26 loadbang;
#X obj 43 167 rmstodb;
#X obj 43 110 / 4;
#X text 74 103 faktor 2 wegen hanning;
#X text 74 114 weiterer faktor 2 \, weil wir nur die;
#X text 73 124 erste haelfte des konjungiert komplexen spektrum sehen
;
#X text 108 135 bzw. bearbeiten \, somit nur die haelfte der spektralen
energie;
#X connect 1 0 2 0;
#X connect 2 0 0 0;
#X connect 4 0 9 0;
#X connect 5 0 9 0;
#X connect 6 0 5 0;
#X connect 7 0 6 0;
#X connect 8 0 1 0;
#X connect 9 0 8 0;
#X restore 149 408 pd init_norm;
#X obj 96 218 *~;
#X obj 98 430 -~ 60.206;
#X obj 109 504 *~ 0.98;
#X obj 96 526 +~;
#X obj 97 458 *~ 0.02;
#X msg 310 468 1 \$1;
#X obj 310 489 -;
#X obj 310 445 clip 0 1;
#X obj 310 424 / 100;
#X floatatom 310 400 5 0.5 100 0 - - -, f 5;
#X obj 329 353 loadbang;
#X obj 96 264 fft~;
#X obj 459 544 line 0 0.1;
#X obj 459 589 / 2;
#X obj 459 609 mtof;
#X msg 459 523 6 \, 273 26.7;
#X obj 459 567 t f f;
#X obj 490 589 - 6;
#X obj 459 629 / 44100;
#X obj 459 650 * 4096;
#X msg 652 620 6;
#X obj 652 640 / 2;
#X obj 652 660 mtof;
#X floatatom 652 680 9 0 0 0 - - -, f 9;
#X text 719 681 Hz;
#X obj 750 641 / 2;
#X obj 750 660 mtof;
#X floatatom 750 680 9 0 0 0 - - -, f 9;
#X text 818 680 Hz;
#X msg 750 621 273;
#X obj 652 599 t b b;
#X obj 459 485 tgl 15 0 empty empty empty 0 -6 0 8 -262144 -1 -1 0
1;
#X obj 459 445 loadbang;
#X msg 459 465 1;
#X obj 652 579 loadbang;
#X obj 464 232 loadbang;
#X obj 699 89 inlet;
#X obj 126 240 table \$0-window 4096;
#X obj 133 201 tabreceive~ \$0-window;
#X text 349 390 temporal lowpass;
#X text 351 402 parameter between 0 .. 100 %;
#X text 19 10 spectrum~;
#X text 116 10 draws the power of a spectrum in a logarithmic scale
;
#X text 114 23 (by Thomas Musil);
#X obj 109 483 tabreceive~ \$0-lin_scope;
#X obj 96 551 tabsend~ \$0-lin_scope;
#X obj 459 672 tabread4 \$0-lin_scope;
#X obj 464 254 f \$0;
#X text 549 523 transformation to log scale;
#X msg 329 372 100;
#X obj 310 328 max 0.5;
#X obj 310 306 min 100;
#X obj 436 94 inlet;
#X text 92 68 audio sig;
#X text 696 68 ON/OFF;
#X text 423 73 (0 .. 100);
#X text 404 59 temporal lowpass;
#X obj 529 231 bng 15 250 50 0 empty empty empty 0 -6 0 8 -262144 -1
-1;
#X obj 459 722 tabwrite \$0-s;
#X msg 464 283 \; \$1-s xticks 0 12 2;
#X msg 487 317 \; \$1-s yticks 0 5 2;
#X obj 458 503 metro 100;
#X obj 700 153 switch~ 4096 2;
#X obj 459 698 clip 0 100;
#X obj 769 88 loadbang;
#X msg 769 110 1;
#N canvas 0 22 450 300 (subpatch) 0;
#X array \$0-s 268 float 0 black black;
#X coords 0 100 267 0 267 140 1;
#X restore 725 275 graph;
#X obj 999 290 cnv 15 1 1 empty empty -10 0 0 0 10 -262144 -1 0;
#X obj 999 402 cnv 15 1 1 empty empty -90 0 0 0 10 -262144 -1 0;
#X obj 999 346 cnv 15 1 1 empty empty -50 0 0 0 10 -262144 -1 0;
#X obj 999 318 cnv 15 1 1 empty empty -30 0 0 0 10 -262144 -1 0;
#X obj 999 374 cnv 15 1 1 empty empty -70 0 0 0 10 -262144 -1 0;
#X obj 720 419 cnv 15 1 1 empty empty 10 0 5 0 10 -262144 -1 0;
#X obj 768 419 cnv 15 1 1 empty empty 40 0 5 0 10 -262144 -1 0;
#X obj 817 419 cnv 15 1 1 empty empty 160 0 5 0 10 -262144 -1 0;
#X obj 864 419 cnv 15 1 1 empty empty 640 0 5 0 10 -262144 -1 0;
#X obj 912 419 cnv 15 1 1 empty empty 2k56 0 5 0 10 -262144 -1 0;
#X obj 960 419 cnv 15 1 1 empty empty 10k2 0 5 0 10 -262144 -1 0;
#X obj 840 432 cnv 15 1 1 empty empty 320 0 5 0 10 -262144 -1 0;
#X obj 984 432 cnv 15 1 1 empty empty 20k5 0 5 0 10 -262144 -1 0;
#X obj 744 429 cnv 15 1 1 empty empty 20 0 9 0 10 -262144 -1 0;
#X obj 792 432 cnv 15 1 1 empty empty 80 0 5 0 10 -262144 -1 0;
#X obj 888 432 cnv 15 1 1 empty empty 1k28 0 5 0 10 -262144 -1 0;
#X obj 936 432 cnv 15 1 1 empty empty 5k12 0 5 0 10 -262144 -1 0;
#X obj 748 416 cnv 15 1 1 empty empty | 0 7 0 10 -262144 -1 0;
#X obj 796 416 cnv 15 1 1 empty empty | 0 7 0 10 -262144 -1 0;
#X obj 844 416 cnv 15 1 1 empty empty | 0 7 0 10 -262144 -1 0;
#X obj 892 416 cnv 15 1 1 empty empty | 0 7 0 10 -262144 -1 0;
#X obj 940 416 cnv 15 1 1 empty empty | 0 7 0 10 -262144 -1 0;
#X obj 988 416 cnv 15 1 1 empty empty | 0 7 0 10 -262144 -1 0;
#X connect 0 0 8 0;
#X connect 1 0 3 0;
#X connect 2 0 3 1;
#X connect 3 0 4 0;
#X connect 4 0 9 0;
#X connect 7 0 9 1;
#X connect 8 0 19 0;
#X connect 9 0 12 0;
#X connect 10 0 11 1;
#X connect 11 0 53 0;
#X connect 12 0 11 0;
#X connect 13 0 14 0;
#X connect 14 0 10 1;
#X connect 15 0 13 0;
#X connect 15 0 12 1;
#X connect 16 0 15 0;
#X connect 17 0 16 0;
#X connect 18 0 57 0;
#X connect 19 0 1 0;
#X connect 19 0 1 1;
#X connect 19 1 2 0;
#X connect 19 1 2 1;
#X connect 20 0 24 0;
#X connect 21 0 22 0;
#X connect 22 0 26 0;
#X connect 23 0 20 0;
#X connect 24 0 21 0;
#X connect 24 1 25 0;
#X connect 25 0 66 1;
#X connect 26 0 27 0;
#X connect 27 0 54 0;
#X connect 28 0 29 0;
#X connect 29 0 30 0;
#X connect 30 0 31 0;
#X connect 33 0 34 0;
#X connect 34 0 35 0;
#X connect 37 0 33 0;
#X connect 38 0 28 0;
#X connect 38 1 37 0;
#X connect 39 0 69 0;
#X connect 40 0 41 0;
#X connect 41 0 39 0;
#X connect 42 0 38 0;
#X connect 43 0 55 0;
#X connect 44 0 70 0;
#X connect 46 0 8 1;
#X connect 52 0 10 0;
#X connect 54 0 71 0;
#X connect 55 0 67 0;
#X connect 55 0 68 0;
#X connect 57 0 17 0;
#X connect 58 0 17 0;
#X connect 59 0 58 0;
#X connect 60 0 59 0;
#X connect 65 0 55 0;
#X connect 69 0 23 0;
#X connect 71 0 66 0;
#X connect 72 0 73 0;
#X connect 73 0 70 0;
#X coords 0 -1 1 1 330 210 2 700 250;
