#N canvas 426 113 1229 761 10;
#X obj 134 136 tgl 15 0 \$0-tmatrix-t1-s \$0-tmatrix-t1-r 1 -12 7 0
10 -262144 -1 -1 0 1;
#X obj 149 136 tgl 15 0 \$0-tmatrix-t2-s \$0-tmatrix-t2-r empty 17
7 0 10 -262144 -1 -1 0 1;
#X obj 164 136 tgl 15 0 \$0-tmatrix-t3-s \$0-tmatrix-t3-r empty 17
7 0 10 -262144 -1 -1 0 1;
#X obj 179 136 tgl 15 0 \$0-tmatrix-t4-s \$0-tmatrix-t4-r empty 17
7 0 10 -262144 -1 -1 0 1;
#X obj 134 151 tgl 15 0 \$0-tmatrix-t5-s \$0-tmatrix-t5-r 2 -12 7 0
10 -262144 -1 -1 0 1;
#X obj 149 151 tgl 15 0 \$0-tmatrix-t6-s \$0-tmatrix-t6-r empty 17
7 0 10 -262144 -1 -1 0 1;
#X obj 164 151 tgl 15 0 \$0-tmatrix-t7-s \$0-tmatrix-t7-r empty 17
7 0 10 -262144 -1 -1 0 1;
#X obj 179 151 tgl 15 0 \$0-tmatrix-t8-s \$0-tmatrix-t8-r empty 17
7 0 10 -262144 -1 -1 0 1;
#X obj 134 166 tgl 15 0 \$0-tmatrix-t9-s \$0-tmatrix-t9-r 3 -12 7 0
10 -262144 -1 -1 0 1;
#X obj 149 166 tgl 15 0 \$0-tmatrix-t10-s \$0-tmatrix-t10-r empty 17
7 0 10 -262144 -1 -1 0 1;
#X obj 164 166 tgl 15 0 \$0-tmatrix-t11-s \$0-tmatrix-t11-r empty 17
7 0 10 -262144 -1 -1 0 1;
#X obj 179 166 tgl 15 0 \$0-tmatrix-t12-s \$0-tmatrix-t12-r empty 17
7 0 10 -262144 -1 -1 0 1;
#X obj 134 181 tgl 15 0 \$0-tmatrix-t13-s \$0-tmatrix-t13-r A 4 25
0 10 -262144 -1 -1 0 1;
#X obj 149 181 tgl 15 0 \$0-tmatrix-t14-s \$0-tmatrix-t14-r B 4 25
0 10 -262144 -1 -1 0 1;
#X obj 164 181 tgl 15 0 \$0-tmatrix-t15-s \$0-tmatrix-t15-r C 4 25
0 10 -262144 -1 -1 0 1;
#X obj 179 181 tgl 15 0 \$0-tmatrix-t16-s \$0-tmatrix-t16-r D 4 25
0 10 -262144 -1 -1 0 1;
#X obj 102 259 inlet~;
#X obj 122 189 cnv 5 5 5 empty empty 4 0 0 0 10 -262144 -66577 0;
#X obj 216 109 cnv 5 5 5 empty empty 4 0 0 0 8 -262144 -66577 0;
#X obj 108 126 cnv 5 5 5 empty empty TOGGLE-MATRIX 0 0 0 12 -262144
-66577 0;
#X obj 140 109 cnv 5 5 5 empty empty 2 0 0 0 8 -262144 -66577 0;
#X obj 179 109 cnv 5 5 5 empty empty 3 0 0 0 8 -262144 -66577 0;
#X obj 105 109 cnv 5 5 5 empty empty 1 0 0 0 8 -262144 -66577 0;
#X obj 216 218 cnv 5 5 5 empty empty D 0 0 0 8 -262144 -66577 0;
#X obj 140 218 cnv 5 5 5 empty empty B 0 0 0 8 -262144 -66577 0;
#X obj 179 218 cnv 5 5 5 empty empty C 0 0 0 8 -262144 -66577 0;
#X obj 104 218 cnv 5 5 5 empty empty A 0 0 0 8 -262144 -66577 0;
#X obj 669 662 outlet~;
#X obj 795 664 outlet~;
#X obj 895 664 outlet~;
#X obj 1001 659 outlet~;
#X obj 102 356 *~;
#X obj 132 295 r \$0-tmatrix-t1-s;
#X obj 132 317 pack 0 10;
#X obj 132 339 line~;
#X obj 185 459 *~;
#X obj 200 406 pack 0 10;
#X obj 200 428 line~;
#X obj 200 384 r \$0-tmatrix-t2-s;
#X obj 332 459 *~;
#X obj 347 342 pack 0 10;
#X obj 347 364 line~;
#X obj 408 458 *~;
#X obj 423 389 pack 0 10;
#X obj 423 411 line~;
#X obj 347 320 r \$0-tmatrix-t3-s;
#X obj 423 367 r \$0-tmatrix-t4-s;
#X obj 102 482 throw~ \$0-A;
#X obj 669 594 catch~ \$0-A;
#X obj 185 482 throw~ \$0-B;
#X obj 795 616 catch~ \$0-B;
#X obj 1001 614 catch~ \$0-D;
#X obj 895 615 catch~ \$0-C;
#X obj 349 71 inlet~;
#X obj 349 168 *~;
#X obj 379 129 pack 0 10;
#X obj 379 151 line~;
#X obj 432 271 *~;
#X obj 447 218 pack 0 10;
#X obj 447 240 line~;
#X obj 579 271 *~;
#X obj 594 154 pack 0 10;
#X obj 594 176 line~;
#X obj 655 270 *~;
#X obj 670 201 pack 0 10;
#X obj 670 223 line~;
#X obj 349 294 throw~ \$0-A;
#X obj 432 294 throw~ \$0-B;
#X obj 332 481 throw~ \$0-C;
#X obj 408 478 throw~ \$0-D;
#X obj 579 293 throw~ \$0-C;
#X obj 655 293 throw~ \$0-D;
#X obj 379 107 r \$0-tmatrix-t5-s;
#X obj 447 196 r \$0-tmatrix-t6-s;
#X obj 594 132 r \$0-tmatrix-t7-s;
#X obj 670 179 r \$0-tmatrix-t8-s;
#X obj 580 319 inlet~;
#X obj 580 416 *~;
#X obj 610 377 pack 0 10;
#X obj 610 399 line~;
#X obj 663 519 *~;
#X obj 678 466 pack 0 10;
#X obj 678 488 line~;
#X obj 810 519 *~;
#X obj 825 402 pack 0 10;
#X obj 825 424 line~;
#X obj 886 518 *~;
#X obj 901 449 pack 0 10;
#X obj 901 471 line~;
#X obj 580 542 throw~ \$0-A;
#X obj 663 542 throw~ \$0-B;
#X obj 810 541 throw~ \$0-C;
#X obj 886 541 throw~ \$0-D;
#X text 150 261 INPUT 1;
#X text 399 71 INPUT 2;
#X text 623 320 INPUT 3;
#X obj 610 355 r \$0-tmatrix-t9-s;
#X obj 678 444 r \$0-tmatrix-t10-s;
#X obj 825 380 r \$0-tmatrix-t11-s;
#X obj 901 427 r \$0-tmatrix-t12-s;
#X obj 786 81 inlet~;
#X obj 786 178 *~;
#X obj 816 139 pack 0 10;
#X obj 816 161 line~;
#X obj 869 281 *~;
#X obj 884 228 pack 0 10;
#X obj 884 250 line~;
#X obj 1016 281 *~;
#X obj 1031 164 pack 0 10;
#X obj 1031 186 line~;
#X obj 1092 280 *~;
#X obj 1107 211 pack 0 10;
#X obj 1107 233 line~;
#X obj 786 304 throw~ \$0-A;
#X obj 869 304 throw~ \$0-B;
#X obj 1016 303 throw~ \$0-C;
#X obj 1092 303 throw~ \$0-D;
#X text 833 84 INPUT 4;
#X obj 816 117 r \$0-tmatrix-t13-s;
#X obj 884 206 r \$0-tmatrix-t14-s;
#X obj 1031 142 r \$0-tmatrix-t15-s;
#X obj 1107 189 r \$0-tmatrix-t16-s;
#N canvas 297 27 755 502 parameter-nudging-system 0;
#X obj 32 44 r NUDGE!;
#X obj 32 66 random 2;
#X obj 170 43 r NUDGE!;
#X obj 170 65 random 2;
#X obj 311 41 r NUDGE!;
#X obj 311 63 random 2;
#X obj 454 41 r NUDGE!;
#X obj 454 63 random 2;
#X obj 30 151 r NUDGE!;
#X obj 30 173 random 2;
#X obj 168 150 r NUDGE!;
#X obj 168 172 random 2;
#X obj 309 148 r NUDGE!;
#X obj 309 170 random 2;
#X obj 452 148 r NUDGE!;
#X obj 452 170 random 2;
#X obj 32 88 s \$0-tmatrix-t1-r;
#X obj 170 87 s \$0-tmatrix-t2-r;
#X obj 311 85 s \$0-tmatrix-t3-r;
#X obj 454 85 s \$0-tmatrix-t4-r;
#X obj 30 195 s \$0-tmatrix-t5-r;
#X obj 168 193 s \$0-tmatrix-t6-r;
#X obj 309 192 s \$0-tmatrix-t7-r;
#X obj 452 192 s \$0-tmatrix-t8-r;
#X obj 34 257 r NUDGE!;
#X obj 34 279 random 2;
#X obj 172 256 r NUDGE!;
#X obj 172 278 random 2;
#X obj 313 254 r NUDGE!;
#X obj 313 276 random 2;
#X obj 456 254 r NUDGE!;
#X obj 456 276 random 2;
#X obj 32 364 r NUDGE!;
#X obj 32 386 random 2;
#X obj 170 363 r NUDGE!;
#X obj 170 385 random 2;
#X obj 311 361 r NUDGE!;
#X obj 311 383 random 2;
#X obj 454 361 r NUDGE!;
#X obj 454 383 random 2;
#X obj 34 301 s \$0-tmatrix-t9-r;
#X obj 172 300 s \$0-tmatrix-t10-r;
#X obj 313 298 s \$0-tmatrix-t11-r;
#X obj 456 298 s \$0-tmatrix-t12-r;
#X obj 32 408 s \$0-tmatrix-t13-r;
#X obj 170 406 s \$0-tmatrix-t14-r;
#X obj 311 405 s \$0-tmatrix-t15-r;
#X obj 454 403 s \$0-tmatrix-t16-r;
#X connect 0 0 1 0;
#X connect 1 0 16 0;
#X connect 2 0 3 0;
#X connect 3 0 17 0;
#X connect 4 0 5 0;
#X connect 5 0 18 0;
#X connect 6 0 7 0;
#X connect 7 0 19 0;
#X connect 8 0 9 0;
#X connect 9 0 20 0;
#X connect 10 0 11 0;
#X connect 11 0 21 0;
#X connect 12 0 13 0;
#X connect 13 0 22 0;
#X connect 14 0 15 0;
#X connect 15 0 23 0;
#X connect 24 0 25 0;
#X connect 25 0 40 0;
#X connect 26 0 27 0;
#X connect 27 0 41 0;
#X connect 28 0 29 0;
#X connect 29 0 42 0;
#X connect 30 0 31 0;
#X connect 31 0 43 0;
#X connect 32 0 33 0;
#X connect 33 0 44 0;
#X connect 34 0 35 0;
#X connect 35 0 45 0;
#X connect 36 0 37 0;
#X connect 37 0 46 0;
#X connect 38 0 39 0;
#X connect 39 0 47 0;
#X restore 19 686 pd parameter-nudging-system;
#X obj 19 569 msgpack \$0-tmatrix-t1 \$1 \$0-tmatrix-t2 \$2 \$0-tmatrix-t3
\$3 \$0-tmatrix-t4 \$4 \$0-tmatrix-t5 \$5 \$0-tmatrix-t6 \$6 \$0-tmatrix-t7
\$7 \$0-tmatrix-t8 \$8 \$0-tmatrix-t9 \$9 \$0-tmatrix-t10 \$10 \$0-tmatrix-t11
\$11 \$0-tmatrix-t12 \$12 \$0-tmatrix-t13 \$13 \$0-tmatrix-t14 \$14
\$0-tmatrix-t15 \$15 \$0-tmatrix-t16 \$16;
#X obj 19 659 canvasargs;
#X obj 19 543 loadbang;
#X connect 16 0 31 0;
#X connect 16 0 35 0;
#X connect 16 0 39 0;
#X connect 16 0 42 0;
#X connect 31 0 47 0;
#X connect 32 0 33 0;
#X connect 33 0 34 0;
#X connect 34 0 31 1;
#X connect 35 0 49 0;
#X connect 36 0 37 0;
#X connect 37 0 35 1;
#X connect 38 0 36 0;
#X connect 39 0 68 0;
#X connect 40 0 41 0;
#X connect 41 0 39 1;
#X connect 42 0 69 0;
#X connect 43 0 44 0;
#X connect 44 0 42 1;
#X connect 45 0 40 0;
#X connect 46 0 43 0;
#X connect 48 0 27 0;
#X connect 50 0 28 0;
#X connect 51 0 30 0;
#X connect 52 0 29 0;
#X connect 53 0 54 0;
#X connect 53 0 57 0;
#X connect 53 0 60 0;
#X connect 53 0 63 0;
#X connect 54 0 66 0;
#X connect 55 0 56 0;
#X connect 56 0 54 1;
#X connect 57 0 67 0;
#X connect 58 0 59 0;
#X connect 59 0 57 1;
#X connect 60 0 70 0;
#X connect 61 0 62 0;
#X connect 62 0 60 1;
#X connect 63 0 71 0;
#X connect 64 0 65 0;
#X connect 65 0 63 1;
#X connect 72 0 55 0;
#X connect 73 0 58 0;
#X connect 74 0 61 0;
#X connect 75 0 64 0;
#X connect 76 0 77 0;
#X connect 76 0 80 0;
#X connect 76 0 83 0;
#X connect 76 0 86 0;
#X connect 77 0 89 0;
#X connect 78 0 79 0;
#X connect 79 0 77 1;
#X connect 80 0 90 0;
#X connect 81 0 82 0;
#X connect 82 0 80 1;
#X connect 83 0 91 0;
#X connect 84 0 85 0;
#X connect 85 0 83 1;
#X connect 86 0 92 0;
#X connect 87 0 88 0;
#X connect 88 0 86 1;
#X connect 96 0 78 0;
#X connect 97 0 81 0;
#X connect 98 0 84 0;
#X connect 99 0 87 0;
#X connect 100 0 101 0;
#X connect 100 0 104 0;
#X connect 100 0 107 0;
#X connect 100 0 110 0;
#X connect 101 0 113 0;
#X connect 102 0 103 0;
#X connect 103 0 101 1;
#X connect 104 0 114 0;
#X connect 105 0 106 0;
#X connect 106 0 104 1;
#X connect 107 0 115 0;
#X connect 108 0 109 0;
#X connect 109 0 107 1;
#X connect 110 0 116 0;
#X connect 111 0 112 0;
#X connect 112 0 110 1;
#X connect 118 0 102 0;
#X connect 119 0 105 0;
#X connect 120 0 108 0;
#X connect 121 0 111 0;
#X connect 123 0 124 0;
#X connect 125 0 123 0;
#X coords 0 -1 1 1 125 125 2 100 100;
