#N canvas 255 210 528 498 10;
#X obj 291 293 f 0;
#X obj 209 101 inlet;
#X obj 306 207 inlet;
#X obj 291 374 outlet;
#X obj 170 32 loadbang;
#X obj 197 78 f \$1;
#X obj 170 57 t b b;
#X obj 355 284 + 1;
#X obj 198 163 expr 10 / $f1;
#X obj 306 256 % 100;
#X obj 172 243 metro 10;
#X obj 198 137 min 10;
#X obj 291 325 expr ($f1 / 50) - 1;
#X connect 0 0 7 0;
#X connect 0 0 12 0;
#X connect 1 0 11 0;
#X connect 2 0 9 0;
#X connect 4 0 6 0;
#X connect 5 0 11 0;
#X connect 6 0 10 0;
#X connect 6 1 5 0;
#X connect 7 0 9 0;
#X connect 8 0 10 1;
#X connect 9 0 0 1;
#X connect 10 0 0 0;
#X connect 11 0 8 0;
#X connect 12 0 3 0;
