#N canvas 132 278 514 476 10;
#X obj 276 324 sin;
#X obj 276 238 f 0;
#X obj 213 100 inlet;
#X obj 292 116 inlet;
#X obj 276 348 outlet;
#X obj 276 270 * 6.28319;
#X obj 155 15 loadbang;
#X obj 182 71 f \$1;
#X obj 155 40 t b b;
#X obj 340 229 + 1;
#X obj 202 162 expr 10 / $f1;
#X obj 291 201 % 100;
#X obj 276 295 / 100;
#X obj 157 188 metro 10;
#X obj 202 136 min 10;
#X obj 292 141 expr $f1 * 50 + 50;
#X connect 0 0 4 0;
#X connect 1 0 5 0;
#X connect 1 0 9 0;
#X connect 2 0 14 0;
#X connect 3 0 15 0;
#X connect 5 0 12 0;
#X connect 6 0 8 0;
#X connect 7 0 14 0;
#X connect 8 0 13 0;
#X connect 8 1 7 0;
#X connect 9 0 11 0;
#X connect 10 0 13 1;
#X connect 11 0 1 1;
#X connect 12 0 0 0;
#X connect 13 0 1 0;
#X connect 14 0 10 0;
#X connect 15 0 11 0;
