#N canvas 372 307 1176 639 10;
#X obj 355 306 phasor~;
#X obj 355 532 +~;
#X obj 355 554 cos~;
#X obj 355 595 outlet~;
#X obj 582 303 phasor~;
#X obj 582 329 cos~;
#X obj 582 516 *~;
#X obj 597 432 pack 0 50;
#X obj 597 458 line~;
#X text 594 368 INDEX;
#X obj 582 272 *~;
#X obj 597 120 * 7;
#X obj 597 192 pack 0 50;
#X obj 597 214 line~;
#X text 596 58 RATIO;
#X obj 597 142 + 1;
#X obj 597 236 +~;
#X obj 801 219 *~ 8;
#X obj 597 480 +~;
#X obj 908 460 lop~ 100;
#X obj 108 165 hsl 128 15 0 127 0 0 \$0-2op-index-s \$0-2op-index-r
INDEX 135 7 0 10 -262144 -1 -1 0 1;
#X obj 108 135 hsl 128 15 0 127 0 0 \$0-2op-carrier-s \$0-2op-carrier-r
CARRIER 135 7 0 10 -262144 -1 -1 0 1;
#X obj 108 150 hsl 128 15 0 127 0 0 \$0-2op-ratio-s \$0-2op-ratio-r
RATIO 135 7 0 10 -262144 -1 -1 0 1;
#X obj 597 386 r \$0-2op-index-s;
#X obj 597 410 * 0.00787402;
#X obj 907 315 inlet~ INDEX CV;
#X obj 801 104 inlet~ RATIO CV;
#X obj 597 76 r \$0-2op-ratio-s;
#X obj 597 98 * 0.00787402;
#X obj 355 99 r \$0-2op-carrier-s;
#X obj 355 121 clip 0 90;
#X obj 355 143 pack 0 50;
#X obj 355 165 line~;
#X obj 355 187 +~;
#X obj 355 209 mtof~;
#X obj 469 113 inlet~ CARRIER;
#X floatatom 206 121 5 0 0 0 - #0-2op-carrier-s s, f 5;
#X obj 108 196 hsl 128 15 0 127 0 0 \$0-2op-cv2-index-s \$0-2op-cv2-index-r
CV2(INDEX) 135 7 0 10 -245500 -1 -1 0 1;
#X floatatom 105 211 5 0 0 0 - - s, f 5;
#X obj 1032 209 * 0.00787402;
#X obj 1032 231 * 2;
#X obj 1032 253 - 1;
#X obj 1032 275 t f f;
#X obj 1032 297 pack 0 50;
#X obj 1032 319 line~;
#X obj 907 337 *~;
#X obj 911 64 * 0.00787402;
#X obj 911 87 pack 0 50;
#X obj 911 109 line~;
#X obj 108 180 hsl 128 15 0 127 0 0 \$0-2op-cv1-ratio-s \$0-2op-cv1-ratio-r
CV1(RATIO) 135 7 0 10 -216373 -1 -1 0 1;
#X obj 911 42 r \$0-2op-cv1-ratio-s;
#X obj 801 126 *~;
#X obj 1032 187 r \$0-2op-cv2-index-s;
#X obj 198 109 cnv 5 5 5 empty empty CV1 0 0 0 8 -262144 -216373 0
;
#X obj 106 127 cnv 5 5 5 empty empty 2OP-FM 0 0 0 12 -262144 -66577
0;
#X obj 102 109 cnv 5 5 5 empty empty CARRIER 0 0 0 8 -262144 -66577
0;
#X obj 291 109 cnv 5 5 5 empty empty CV2 0 0 0 8 -262144 -96927 0;
#N canvas 297 27 518 295 parameter-nudging-system 0;
#N canvas 0 22 484 497 param-nudge 0;
#X obj 124 234 random;
#X obj 232 335 f;
#X obj 232 368 +;
#X obj 257 166 random 2;
#X obj 124 275 t f f;
#X obj 124 351 t b f;
#X obj 124 297 *;
#X obj 257 188 sel 0 1;
#X msg 257 280 -1;
#X msg 335 280 1;
#X obj 124 149 t b b b;
#X obj 124 123 r NUDGE!;
#X obj 157 193 r NUDGE-RANGE;
#X obj 247 308 inlet;
#X obj 232 397 outlet;
#X floatatom 316 396 5 0 0 0 - - -, f 5;
#X connect 0 0 4 0;
#X connect 1 0 2 0;
#X connect 2 0 14 0;
#X connect 2 0 15 0;
#X connect 3 0 7 0;
#X connect 4 0 6 0;
#X connect 5 0 2 0;
#X connect 5 1 2 1;
#X connect 6 0 5 0;
#X connect 7 0 8 0;
#X connect 7 1 9 0;
#X connect 8 0 6 1;
#X connect 9 0 6 1;
#X connect 10 0 0 0;
#X connect 10 1 1 0;
#X connect 10 2 3 0;
#X connect 11 0 10 0;
#X connect 12 0 0 1;
#X connect 13 0 1 1;
#X restore 23 45 pd param-nudge;
#N canvas 0 22 484 497 param-nudge 0;
#X obj 124 234 random;
#X obj 232 335 f;
#X obj 232 368 +;
#X obj 257 166 random 2;
#X obj 124 275 t f f;
#X obj 124 351 t b f;
#X obj 124 297 *;
#X obj 257 188 sel 0 1;
#X msg 257 280 -1;
#X msg 335 280 1;
#X obj 124 149 t b b b;
#X obj 124 123 r NUDGE!;
#X obj 157 193 r NUDGE-RANGE;
#X obj 247 308 inlet;
#X obj 232 397 outlet;
#X connect 0 0 4 0;
#X connect 1 0 2 0;
#X connect 2 0 14 0;
#X connect 3 0 7 0;
#X connect 4 0 6 0;
#X connect 5 0 2 0;
#X connect 5 1 2 1;
#X connect 6 0 5 0;
#X connect 7 0 8 0;
#X connect 7 1 9 0;
#X connect 8 0 6 1;
#X connect 9 0 6 1;
#X connect 10 0 0 0;
#X connect 10 1 1 0;
#X connect 10 2 3 0;
#X connect 11 0 10 0;
#X connect 12 0 0 1;
#X connect 13 0 1 1;
#X restore 171 45 pd param-nudge;
#N canvas 0 22 484 497 param-nudge 0;
#X obj 124 234 random;
#X obj 232 335 f;
#X obj 232 368 +;
#X obj 257 166 random 2;
#X obj 124 275 t f f;
#X obj 124 351 t b f;
#X obj 124 297 *;
#X obj 257 188 sel 0 1;
#X msg 257 280 -1;
#X msg 335 280 1;
#X obj 124 149 t b b b;
#X obj 124 123 r NUDGE!;
#X obj 157 193 r NUDGE-RANGE;
#X obj 247 308 inlet;
#X obj 232 397 outlet;
#X connect 0 0 4 0;
#X connect 1 0 2 0;
#X connect 2 0 14 0;
#X connect 3 0 7 0;
#X connect 4 0 6 0;
#X connect 5 0 2 0;
#X connect 5 1 2 1;
#X connect 6 0 5 0;
#X connect 7 0 8 0;
#X connect 7 1 9 0;
#X connect 8 0 6 1;
#X connect 9 0 6 1;
#X connect 10 0 0 0;
#X connect 10 1 1 0;
#X connect 10 2 3 0;
#X connect 11 0 10 0;
#X connect 12 0 0 1;
#X connect 13 0 1 1;
#X restore 281 45 pd param-nudge;
#N canvas 0 22 484 497 param-nudge 0;
#X obj 124 234 random;
#X obj 232 335 f;
#X obj 232 368 +;
#X obj 257 166 random 2;
#X obj 124 275 t f f;
#X obj 124 351 t b f;
#X obj 124 297 *;
#X obj 257 188 sel 0 1;
#X msg 257 280 -1;
#X msg 335 280 1;
#X obj 124 149 t b b b;
#X obj 124 123 r NUDGE!;
#X obj 157 193 r NUDGE-RANGE;
#X obj 247 308 inlet;
#X obj 232 397 outlet;
#X connect 0 0 4 0;
#X connect 1 0 2 0;
#X connect 2 0 14 0;
#X connect 3 0 7 0;
#X connect 4 0 6 0;
#X connect 5 0 2 0;
#X connect 5 1 2 1;
#X connect 6 0 5 0;
#X connect 7 0 8 0;
#X connect 7 1 9 0;
#X connect 8 0 6 1;
#X connect 9 0 6 1;
#X connect 10 0 0 0;
#X connect 10 1 1 0;
#X connect 10 2 3 0;
#X connect 11 0 10 0;
#X connect 12 0 0 1;
#X connect 13 0 1 1;
#X restore 21 149 pd param-nudge;
#N canvas 0 22 484 497 param-nudge 0;
#X obj 124 234 random;
#X obj 232 335 f;
#X obj 232 368 +;
#X obj 257 166 random 2;
#X obj 124 275 t f f;
#X obj 124 351 t b f;
#X obj 124 297 *;
#X obj 257 188 sel 0 1;
#X msg 257 280 -1;
#X msg 335 280 1;
#X obj 124 149 t b b b;
#X obj 124 123 r NUDGE!;
#X obj 157 193 r NUDGE-RANGE;
#X obj 247 308 inlet;
#X obj 232 397 outlet;
#X connect 0 0 4 0;
#X connect 1 0 2 0;
#X connect 2 0 14 0;
#X connect 3 0 7 0;
#X connect 4 0 6 0;
#X connect 5 0 2 0;
#X connect 5 1 2 1;
#X connect 6 0 5 0;
#X connect 7 0 8 0;
#X connect 7 1 9 0;
#X connect 8 0 6 1;
#X connect 9 0 6 1;
#X connect 10 0 0 0;
#X connect 10 1 1 0;
#X connect 10 2 3 0;
#X connect 11 0 10 0;
#X connect 12 0 0 1;
#X connect 13 0 1 1;
#X restore 170 149 pd param-nudge;
#X obj 21 171 clip 0 127;
#X obj 170 171 clip 0 127;
#X obj 23 67 clip 0 127;
#X obj 171 67 clip 0 127;
#X obj 281 69 clip 0 127;
#X obj 23 22 r \$0-2op-carrier-s;
#X obj 23 95 s \$0-2op-carrier-r;
#X obj 171 22 r \$0-2op-ratio-s;
#X obj 171 95 s \$0-2op-ratio-r;
#X obj 281 22 r \$0-2op-index-s;
#X obj 281 95 s \$0-2op-index-r;
#X obj 21 126 r \$0-2op-cv1-ratio-s;
#X obj 20 197 s \$0-2op-cv1-ratio-r;
#X obj 170 126 r \$0-2op-cv2-index-s;
#X obj 170 197 s \$0-2op-cv2-index-r;
#X connect 0 0 7 0;
#X connect 1 0 8 0;
#X connect 2 0 9 0;
#X connect 3 0 5 0;
#X connect 4 0 6 0;
#X connect 5 0 17 0;
#X connect 6 0 19 0;
#X connect 7 0 11 0;
#X connect 8 0 13 0;
#X connect 9 0 15 0;
#X connect 10 0 0 0;
#X connect 12 0 1 0;
#X connect 14 0 2 0;
#X connect 16 0 3 0;
#X connect 18 0 4 0;
#X restore 99 243 pd parameter-nudging-system;
#X floatatom 275 149 5 0 0 0 - #0-ratio-gui-r #0-ratio-gui-s, f 5
;
#X obj 597 164 t f f;
#X obj 662 150 s \$0-ratio-gui-r;
#X obj 469 135 *~ 127;
#X obj 101 31 msgpack \$0-2op-carrier \$1 \$0-2op-ratio \$2 \$0-2op-index
\$3 \$0-2op-cv1-ratio \$4 \$0-2op-cv2-index \$5;
#X obj 101 69 canvasargs;
#X obj 101 7 loadbang;
#X connect 0 0 1 0;
#X connect 1 0 2 0;
#X connect 2 0 3 0;
#X connect 4 0 5 0;
#X connect 5 0 6 0;
#X connect 6 0 1 1;
#X connect 7 0 8 0;
#X connect 8 0 18 0;
#X connect 10 0 4 0;
#X connect 11 0 15 0;
#X connect 12 0 13 0;
#X connect 13 0 16 0;
#X connect 15 0 59 0;
#X connect 16 0 10 1;
#X connect 17 0 16 1;
#X connect 18 0 6 1;
#X connect 19 0 18 1;
#X connect 23 0 24 0;
#X connect 24 0 7 0;
#X connect 25 0 45 0;
#X connect 26 0 51 0;
#X connect 27 0 28 0;
#X connect 28 0 11 0;
#X connect 29 0 30 0;
#X connect 30 0 31 0;
#X connect 31 0 32 0;
#X connect 32 0 33 0;
#X connect 33 0 34 0;
#X connect 34 0 0 0;
#X connect 34 0 10 0;
#X connect 35 0 61 0;
#X connect 39 0 40 0;
#X connect 40 0 41 0;
#X connect 41 0 42 0;
#X connect 42 0 43 0;
#X connect 42 1 38 0;
#X connect 43 0 44 0;
#X connect 44 0 45 1;
#X connect 45 0 19 0;
#X connect 46 0 47 0;
#X connect 47 0 48 0;
#X connect 48 0 51 1;
#X connect 50 0 46 0;
#X connect 51 0 17 0;
#X connect 52 0 39 0;
#X connect 59 0 12 0;
#X connect 59 1 60 0;
#X connect 61 0 33 1;
#X connect 62 0 63 0;
#X connect 64 0 62 0;
#X coords 0 -1 1 1 210 130 2 100 100;
