#N canvas 359 369 1172 649 10;
#X obj 108 160 hsl 128 15 1.27 127 1 0 \$0-kick-envmod-s \$0-kick-envmod-r
EG2 133 7 0 10 -262144 -1 -1 0 1;
#X obj 108 145 hsl 128 15 1.27 127 1 0 \$0-kick-decay-s \$0-kick-decay-r
DECAY 133 7 0 10 -262144 -1 -1 0 1;
#X obj 108 175 hsl 128 15 0 127 0 0 \$0-kick-sweep-s \$0-kick-sweep-r
SWEEP 133 7 0 10 -262144 -1 -1 0 1;
#X obj 108 130 hsl 128 15 0 127 0 0 \$0-kick-pitch-s \$0-kick-pitch-r
PITCH 133 7 0 10 -262144 -1 -1 0 1;
#X obj 377 405 *~;
#X msg 513 322 1 1 \, 0 \$1 1;
#X obj 513 344 vline~;
#X obj 513 366 *~;
#X obj 513 388 *~;
#X obj 513 294 f;
#X obj 483 105 / 127;
#X obj 483 198 moses 10;
#X msg 688 273 1 1 \, 0 \$1 1;
#X obj 688 302 vline~;
#X obj 688 334 *~;
#X obj 688 361 *~;
#X obj 688 252 f;
#X obj 658 146 / 127;
#X obj 658 224 moses 10;
#X obj 748 483 *~;
#X obj 763 336 / 127;
#X obj 763 380 pack 0 50;
#X obj 763 402 line~;
#X obj 377 327 +~;
#X obj 688 397 *~ 2000;
#X obj 763 358 * 0.5;
#X obj 375 202 + 30;
#X obj 375 224 pack 0 50;
#X obj 375 246 line~;
#X obj 658 202 * 250;
#X obj 375 143 r \$0-kick-pitch-s;
#X obj 257 10 inlet~;
#X obj 483 81 r \$0-kick-decay-s;
#X obj 658 126 r \$0-kick-envmod-s;
#X obj 763 309 r \$0-kick-sweep-s;
#X obj 377 466 outlet~;
#X obj 606 18 inlet~;
#X obj 606 79 t b f;
#X obj 257 75 t b b b;
#X obj 300 113 s \$0-kick-trig!;
#X obj 483 127 +;
#X obj 658 168 +;
#X obj 606 57 snapshot~;
#X obj 675 24 r \$0-kick-trig!;
#X obj 788 122 inlet~;
#X obj 788 183 t b f;
#X obj 788 161 snapshot~;
#X obj 857 128 r \$0-kick-trig!;
#X obj 763 424 +~;
#X obj 763 446 clip~ 0 0.5;
#X obj 894 326 inlet~;
#X obj 894 348 *~ 0.5;
#X obj 375 268 +~;
#X obj 304 194 inlet~;
#X obj 304 218 *~ 127;
#X obj 105 124 cnv 5 5 5 empty empty KICK 0 0 0 12 -262144 -66577 0
;
#X obj 221 109 cnv 5 5 5 empty empty SWEEP 0 0 0 8 -262144 -1 0;
#X obj 103 109 cnv 5 5 5 empty empty TRIG 0 0 0 8 -262144 -226533 0
;
#X obj 158 109 cnv 5 5 5 empty empty DECAY 0 0 0 8 -262144 -1 0;
#X obj 128 109 cnv 5 5 5 empty empty PITCH 0 0 0 8 -262144 -1 0;
#X obj 249 109 cnv 5 5 5 empty empty WFORM 0 0 0 8 -262144 -1 0;
#X floatatom 552 252 5 0 0 0 - - -, f 5;
#X obj 483 176 * 3000;
#N canvas 292 124 758 559 anti-alias 0;
#X obj 144 23 inlet~;
#X obj 144 509 outlet~;
#X obj 144 69 osc~;
#N canvas 0 22 827 623 wform-xfader 0;
#X obj 115 599 *~;
#X obj 116 679 outlet~;
#X obj 59 540 inlet~ A;
#X obj 252 603 *~;
#X obj 193 548 inlet~ B;
#X obj 403 609 *~;
#X obj 344 554 inlet~ C;
#X obj 90 152 r \$0-kick-wform-s;
#X obj 90 258 sig~;
#X obj 90 295 +~;
#X obj 90 339 clip~ 0 1;
#X obj 90 465 lop~ 10;
#X obj 208 465 lop~ 10;
#X obj 327 465 lop~ 10;
#X obj 90 366 expr~ if ($v1 < 0.5 \, (1-$v1*2) \, 0 ) \; if ($v1 <
0.5 \, $v1*2 \, (1-$v1+0.5)*2-1 ) \; if ($v1 > 0.5 \, ($v1*2-1) \,
0 );
#X obj 90 414 clip~ 0 1;
#X obj 208 421 clip~ 0 1;
#X obj 327 420 clip~ 0 1;
#X obj 90 223 / 127;
#X obj 213 271 r~ \$0-kick-wform-cv;
#X connect 0 0 1 0;
#X connect 2 0 0 0;
#X connect 3 0 1 0;
#X connect 4 0 3 0;
#X connect 5 0 1 0;
#X connect 6 0 5 0;
#X connect 7 0 18 0;
#X connect 8 0 9 0;
#X connect 9 0 10 0;
#X connect 10 0 14 0;
#X connect 11 0 0 1;
#X connect 12 0 3 1;
#X connect 13 0 5 1;
#X connect 14 0 15 0;
#X connect 14 1 16 0;
#X connect 14 2 17 0;
#X connect 15 0 11 0;
#X connect 16 0 12 0;
#X connect 17 0 13 0;
#X connect 18 0 8 0;
#X connect 19 0 9 1;
#X restore 144 283 pd wform-xfader;
#X obj 388 77 phasor~;
#X obj 388 99 expr~ $v1 > 0.5;
#X obj 388 121 *~ 2;
#X obj 388 143 -~ 1;
#X obj 211 91 phasor~;
#X obj 211 223 -~ 1;
#X obj 211 113 *~ 2;
#X connect 0 0 2 0;
#X connect 0 0 4 0;
#X connect 0 0 8 0;
#X connect 2 0 3 0;
#X connect 3 0 1 0;
#X connect 4 0 5 0;
#X connect 5 0 6 0;
#X connect 6 0 7 0;
#X connect 7 0 3 2;
#X connect 8 0 10 0;
#X connect 9 0 3 1;
#X connect 10 0 9 0;
#X restore 377 360 pd anti-alias;
#X obj 108 189 hsl 128 15 0 127 0 0 \$0-kick-wform-s \$0-kick-wform-r
WFORM 135 7 0 10 -262144 -1 -1 0 1;
#X obj 375 165 * 2;
#X obj 377 439 *~ 2;
#X obj 998 294 inlet~ WFORM;
#X obj 998 316 s~ \$0-kick-wform-cv;
#X obj 196 109 cnv 5 5 5 empty empty EG2 0 0 0 8 -262144 -1 0;
#X obj 257 49 threshold~ 0.9 0 0.9 0;
#X obj 794 72 canvasargs;
#X obj 794 33 msgpack \$0-kick-pitch \$1 \$0-kick-decay \$2 \$0-kick-envmod
\$3 \$0-kick-sweep \$4 \$0-kick-wform \$5;
#X obj 794 6 loadbang;
#X connect 4 0 66 0;
#X connect 5 0 6 0;
#X connect 6 0 7 0;
#X connect 6 0 7 1;
#X connect 7 0 8 0;
#X connect 7 0 8 1;
#X connect 8 0 4 1;
#X connect 9 0 5 0;
#X connect 10 0 40 0;
#X connect 11 1 9 1;
#X connect 12 0 13 0;
#X connect 13 0 14 0;
#X connect 13 0 14 1;
#X connect 14 0 15 0;
#X connect 14 0 15 1;
#X connect 15 0 24 0;
#X connect 16 0 12 0;
#X connect 17 0 41 0;
#X connect 18 1 16 1;
#X connect 19 0 23 1;
#X connect 20 0 25 0;
#X connect 21 0 22 0;
#X connect 22 0 48 0;
#X connect 23 0 63 0;
#X connect 24 0 19 0;
#X connect 25 0 21 0;
#X connect 26 0 27 0;
#X connect 27 0 28 0;
#X connect 28 0 52 0;
#X connect 29 0 18 0;
#X connect 30 0 65 0;
#X connect 31 0 70 0;
#X connect 32 0 10 0;
#X connect 33 0 17 0;
#X connect 34 0 20 0;
#X connect 36 0 42 0;
#X connect 37 0 40 0;
#X connect 37 1 40 1;
#X connect 38 0 9 0;
#X connect 38 1 16 0;
#X connect 38 2 39 0;
#X connect 40 0 62 0;
#X connect 41 0 29 0;
#X connect 42 0 37 0;
#X connect 43 0 42 0;
#X connect 44 0 46 0;
#X connect 45 0 41 0;
#X connect 45 1 41 1;
#X connect 46 0 45 0;
#X connect 47 0 46 0;
#X connect 48 0 49 0;
#X connect 49 0 19 1;
#X connect 50 0 51 0;
#X connect 51 0 48 1;
#X connect 52 0 23 0;
#X connect 53 0 54 0;
#X connect 54 0 52 1;
#X connect 62 0 11 0;
#X connect 62 0 61 0;
#X connect 63 0 4 0;
#X connect 65 0 26 0;
#X connect 66 0 35 0;
#X connect 67 0 68 0;
#X connect 70 0 38 0;
#X connect 72 0 71 0;
#X connect 73 0 72 0;
#X coords 0 -1 1 1 175 115 2 100 100;
