#N canvas 613 220 1102 754 10;
#X obj 108 131 hsl 128 15 0 127 0 1 \$0-polyfm-pitch-s \$0-polyfm-pitch-r
PITCH 135 7 0 10 -262144 -1 -1 0 1;
#X obj 320 467 pack f f f;
#X obj 320 328 f;
#X floatatom 320 350 5 0 0 0 - - -, f 5;
#X msg 365 170 100;
#X obj 320 393 unpack f f;
#X floatatom 320 415 5 0 0 0 - - -, f 5;
#X floatatom 377 417 5 0 0 0 - - -, f 5;
#X obj 320 443 poly 4 1;
#X obj 320 492 route 1 2 3 4;
#X obj 108 161 hsl 128 15 0 127 0 1 \$0-polyfm-ratio-s \$0-polyfm-ratio-r
RATIO 135 7 0 10 -262144 -1 -1 0 1;
#X obj 108 211 hsl 128 15 1.27 127 1 1 \$0-polyfm-attack-s \$0-polyfm-attack-r
ATTACK 135 7 0 10 -262144 -1 -1 0 1;
#X obj 108 226 hsl 128 15 0 127 0 1 \$0-polyfm-hold-s \$0-polyfm-hold-r
HOLD 135 7 0 10 -262144 -1 -1 0 1;
#X obj 108 240 hsl 128 15 0 127 0 1 \$0-polyfm-release-s \$0-polyfm-release-r
RELEASE 135 7 0 10 -262144 -1 -1 0 1;
#X obj 320 371 pack f f;
#X obj 320 83 threshold~ 0.9 0 0.9 0;
#X floatatom 206 117 5 0 0 0 - - -, f 5;
#X obj 471 15 inlet~ PITCH CV;
#X obj 320 61 inlet~ TRIG;
#X obj 320 112 t b b b;
#X obj 471 152 snapshot~;
#X obj 471 174 * 127;
#X obj 471 228 +;
#X obj 471 250 clip 0 127;
#X obj 320 632 *~ 0.25;
#X obj 678 697 outlet~ EG OUT;
#X obj 678 655 *~ 0.25;
#X obj 108 146 hsl 128 15 0 127 0 1 \$0-polyfm-index-s \$0-polyfm-index-r
INDEX 135 7 0 10 -262144 -1 -1 0 1;
#N canvas 224 22 962 575 voice1-ahr 0;
#X obj 43 6 inlet;
#X obj 43 28 unpack f f;
#X obj 100 51 sel 0;
#X obj 43 149 +~;
#X obj 43 179 mtof~;
#X obj 43 495 *~;
#X obj 43 517 outlet~;
#X obj 609 145 * 0.00787402;
#X obj 608 189 + 1;
#X obj 609 121 - 1.27;
#X obj 593 385 vline~;
#X obj 781 265 * 0.00787402;
#X obj 781 309 + 1;
#X obj 781 241 - 1.27;
#X obj 593 434 *~;
#X obj 593 478 *~;
#X obj 593 219 f;
#X obj 43 50 sig~;
#X obj 609 167 * 1999;
#X obj 654 210 * 0.00787402;
#X obj 654 232 * 999;
#X obj 654 254 + 1;
#X msg 593 353 1 \$1 \, 0 \$3 \$2;
#X obj 593 241 t f f;
#X obj 593 326 pack f f f;
#X obj 620 293 +;
#X obj 781 287 * 3999;
#X obj 43 210 phasor~;
#X obj 43 328 +~;
#X obj 43 350 cos~;
#X obj 255 60 r \$0-polyfm-ratio-s;
#X obj 240 196 *~;
#X obj 255 82 * 0.00787402;
#X obj 255 104 * 7;
#X obj 255 126 + 1;
#X obj 255 148 pack 0 50;
#X obj 255 170 line~;
#X obj 240 218 osc~;
#X obj 240 240 *~;
#X obj 384 91 r \$0-polyfm-index-s;
#X obj 384 113 * 0.00787402;
#X obj 384 157 pack 0 50;
#X obj 384 179 line~;
#X obj 609 99 r \$0-polyfm-attack-s;
#X obj 654 188 r \$0-polyfm-hold-s;
#X obj 781 217 r \$0-polyfm-release-s;
#X obj 593 508 throw~ \$0-polyfm-eg;
#X obj 384 135 * 1;
#N canvas 0 22 942 604 eg2 0;
#X obj 246 99 * 0.00787402;
#X obj 245 143 + 1;
#X obj 246 75 - 1.27;
#X obj 230 339 vline~;
#X obj 418 219 * 0.00787402;
#X obj 418 263 + 1;
#X obj 418 195 - 1.27;
#X obj 230 388 *~;
#X obj 230 432 *~;
#X obj 230 173 f;
#X obj 246 121 * 1999;
#X obj 291 164 * 0.00787402;
#X obj 291 186 * 999;
#X obj 291 208 + 1;
#X msg 230 307 1 \$1 \, 0 \$3 \$2;
#X obj 230 195 t f f;
#X obj 230 280 pack f f f;
#X obj 257 247 +;
#X obj 418 241 * 3999;
#X obj 246 53 r \$0-polyfm-attack2-s;
#X obj 291 142 r \$0-polyfm-hold2-s;
#X obj 418 171 r \$0-polyfm-release2-s;
#X obj 230 18 inlet;
#X obj 230 454 outlet~;
#X connect 0 0 10 0;
#X connect 1 0 9 1;
#X connect 2 0 0 0;
#X connect 3 0 7 0;
#X connect 3 0 7 1;
#X connect 4 0 18 0;
#X connect 5 0 16 2;
#X connect 6 0 4 0;
#X connect 7 0 8 0;
#X connect 7 0 8 1;
#X connect 8 0 23 0;
#X connect 9 0 15 0;
#X connect 10 0 1 0;
#X connect 11 0 12 0;
#X connect 12 0 13 0;
#X connect 13 0 17 1;
#X connect 14 0 3 0;
#X connect 15 0 16 0;
#X connect 15 1 17 0;
#X connect 16 0 14 0;
#X connect 17 0 16 1;
#X connect 18 0 5 0;
#X connect 19 0 2 0;
#X connect 20 0 11 0;
#X connect 21 0 6 0;
#X connect 22 0 9 0;
#X restore 154 156 pd eg2;
#X obj 127 74 t b b;
#X obj 139 276 *~;
#X obj 384 201 +~;
#X obj 384 223 clip~ 0 1;
#X obj 450 184 r~ \$0-polyfm-index-cv;
#X connect 0 0 1 0;
#X connect 1 0 17 0;
#X connect 1 1 2 0;
#X connect 2 1 49 0;
#X connect 3 0 4 0;
#X connect 4 0 27 0;
#X connect 4 0 31 0;
#X connect 5 0 6 0;
#X connect 7 0 18 0;
#X connect 8 0 16 1;
#X connect 9 0 7 0;
#X connect 10 0 14 0;
#X connect 10 0 14 1;
#X connect 11 0 26 0;
#X connect 12 0 24 2;
#X connect 13 0 11 0;
#X connect 14 0 15 0;
#X connect 14 0 15 1;
#X connect 15 0 5 1;
#X connect 15 0 46 0;
#X connect 16 0 23 0;
#X connect 17 0 3 0;
#X connect 18 0 8 0;
#X connect 19 0 20 0;
#X connect 20 0 21 0;
#X connect 21 0 25 1;
#X connect 22 0 10 0;
#X connect 23 0 24 0;
#X connect 23 1 25 0;
#X connect 24 0 22 0;
#X connect 25 0 24 1;
#X connect 26 0 12 0;
#X connect 27 0 28 0;
#X connect 28 0 29 0;
#X connect 29 0 5 0;
#X connect 30 0 32 0;
#X connect 31 0 37 0;
#X connect 32 0 33 0;
#X connect 33 0 34 0;
#X connect 34 0 35 0;
#X connect 35 0 36 0;
#X connect 36 0 31 1;
#X connect 37 0 38 0;
#X connect 38 0 50 0;
#X connect 39 0 40 0;
#X connect 40 0 47 0;
#X connect 41 0 42 0;
#X connect 42 0 51 0;
#X connect 43 0 9 0;
#X connect 44 0 19 0;
#X connect 45 0 13 0;
#X connect 47 0 41 0;
#X connect 48 0 50 1;
#X connect 49 0 16 0;
#X connect 49 1 48 0;
#X connect 50 0 28 1;
#X connect 51 0 52 0;
#X connect 52 0 38 1;
#X connect 53 0 51 1;
#X restore 320 518 pd voice1-ahr;
#X obj 103 108 cnv 5 5 5 empty empty TRIG 0 0 0 8 -262144 -226533 0
;
#X obj 105 265 cnv 5 5 5 empty empty modulator-EG 0 0 0 12 -262144
-66577 0;
#X obj 106 113 bng 15 50 50 0 empty empty empty 17 7 0 10 -262144 -226533
-1;
#N canvas 297 27 723 391 parameter-nudging-system 0;
#N canvas 0 22 484 497 param-nudge 0;
#X obj 124 234 random;
#X obj 232 335 f;
#X obj 232 368 +;
#X obj 257 166 random 2;
#X obj 124 275 t f f;
#X obj 124 351 t b f;
#X obj 124 297 *;
#X obj 257 188 sel 0 1;
#X msg 257 280 -1;
#X msg 335 280 1;
#X obj 124 149 t b b b;
#X obj 124 123 r NUDGE!;
#X obj 157 193 r NUDGE-RANGE;
#X obj 247 308 inlet;
#X obj 232 397 outlet;
#X floatatom 316 396 5 0 0 0 - - -, f 5;
#X connect 0 0 4 0;
#X connect 1 0 2 0;
#X connect 2 0 14 0;
#X connect 2 0 15 0;
#X connect 3 0 7 0;
#X connect 4 0 6 0;
#X connect 5 0 2 0;
#X connect 5 1 2 1;
#X connect 6 0 5 0;
#X connect 7 0 8 0;
#X connect 7 1 9 0;
#X connect 8 0 6 1;
#X connect 9 0 6 1;
#X connect 10 0 0 0;
#X connect 10 1 1 0;
#X connect 10 2 3 0;
#X connect 11 0 10 0;
#X connect 12 0 0 1;
#X connect 13 0 1 1;
#X restore 23 45 pd param-nudge;
#N canvas 0 22 484 497 param-nudge 0;
#X obj 124 234 random;
#X obj 232 335 f;
#X obj 232 368 +;
#X obj 257 166 random 2;
#X obj 124 275 t f f;
#X obj 124 351 t b f;
#X obj 124 297 *;
#X obj 257 188 sel 0 1;
#X msg 257 280 -1;
#X msg 335 280 1;
#X obj 124 149 t b b b;
#X obj 124 123 r NUDGE!;
#X obj 157 193 r NUDGE-RANGE;
#X obj 247 308 inlet;
#X obj 232 397 outlet;
#X connect 0 0 4 0;
#X connect 1 0 2 0;
#X connect 2 0 14 0;
#X connect 3 0 7 0;
#X connect 4 0 6 0;
#X connect 5 0 2 0;
#X connect 5 1 2 1;
#X connect 6 0 5 0;
#X connect 7 0 8 0;
#X connect 7 1 9 0;
#X connect 8 0 6 1;
#X connect 9 0 6 1;
#X connect 10 0 0 0;
#X connect 10 1 1 0;
#X connect 10 2 3 0;
#X connect 11 0 10 0;
#X connect 12 0 0 1;
#X connect 13 0 1 1;
#X restore 214 47 pd param-nudge;
#N canvas 0 22 484 497 param-nudge 0;
#X obj 124 234 random;
#X obj 232 335 f;
#X obj 232 368 +;
#X obj 257 166 random 2;
#X obj 124 275 t f f;
#X obj 124 351 t b f;
#X obj 124 297 *;
#X obj 257 188 sel 0 1;
#X msg 257 280 -1;
#X msg 335 280 1;
#X obj 124 149 t b b b;
#X obj 124 123 r NUDGE!;
#X obj 157 193 r NUDGE-RANGE;
#X obj 247 308 inlet;
#X obj 232 397 outlet;
#X connect 0 0 4 0;
#X connect 1 0 2 0;
#X connect 2 0 14 0;
#X connect 3 0 7 0;
#X connect 4 0 6 0;
#X connect 5 0 2 0;
#X connect 5 1 2 1;
#X connect 6 0 5 0;
#X connect 7 0 8 0;
#X connect 7 1 9 0;
#X connect 8 0 6 1;
#X connect 9 0 6 1;
#X connect 10 0 0 0;
#X connect 10 1 1 0;
#X connect 10 2 3 0;
#X connect 11 0 10 0;
#X connect 12 0 0 1;
#X connect 13 0 1 1;
#X restore 407 47 pd param-nudge;
#N canvas 0 22 484 497 param-nudge 0;
#X obj 124 234 random;
#X obj 232 335 f;
#X obj 232 368 +;
#X obj 257 166 random 2;
#X obj 124 275 t f f;
#X obj 124 351 t b f;
#X obj 124 297 *;
#X obj 257 188 sel 0 1;
#X msg 257 280 -1;
#X msg 335 280 1;
#X obj 124 149 t b b b;
#X obj 124 123 r NUDGE!;
#X obj 157 193 r NUDGE-RANGE;
#X obj 247 308 inlet;
#X obj 232 397 outlet;
#X connect 0 0 4 0;
#X connect 1 0 2 0;
#X connect 2 0 14 0;
#X connect 3 0 7 0;
#X connect 4 0 6 0;
#X connect 5 0 2 0;
#X connect 5 1 2 1;
#X connect 6 0 5 0;
#X connect 7 0 8 0;
#X connect 7 1 9 0;
#X connect 8 0 6 1;
#X connect 9 0 6 1;
#X connect 10 0 0 0;
#X connect 10 1 1 0;
#X connect 10 2 3 0;
#X connect 11 0 10 0;
#X connect 12 0 0 1;
#X connect 13 0 1 1;
#X restore 21 149 pd param-nudge;
#N canvas 0 22 484 497 param-nudge 0;
#X obj 124 234 random;
#X obj 232 335 f;
#X obj 232 368 +;
#X obj 257 166 random 2;
#X obj 124 275 t f f;
#X obj 124 351 t b f;
#X obj 124 297 *;
#X obj 257 188 sel 0 1;
#X msg 257 280 -1;
#X msg 335 280 1;
#X obj 124 149 t b b b;
#X obj 124 123 r NUDGE!;
#X obj 157 193 r NUDGE-RANGE;
#X obj 247 308 inlet;
#X obj 232 397 outlet;
#X connect 0 0 4 0;
#X connect 1 0 2 0;
#X connect 2 0 14 0;
#X connect 3 0 7 0;
#X connect 4 0 6 0;
#X connect 5 0 2 0;
#X connect 5 1 2 1;
#X connect 6 0 5 0;
#X connect 7 0 8 0;
#X connect 7 1 9 0;
#X connect 8 0 6 1;
#X connect 9 0 6 1;
#X connect 10 0 0 0;
#X connect 10 1 1 0;
#X connect 10 2 3 0;
#X connect 11 0 10 0;
#X connect 12 0 0 1;
#X connect 13 0 1 1;
#X restore 213 151 pd param-nudge;
#X obj 21 171 clip 0 127;
#X obj 213 173 clip 0 127;
#X obj 23 67 clip 0 127;
#X obj 214 69 clip 0 127;
#X obj 407 71 clip 0 127;
#N canvas 0 22 484 497 param-nudge 0;
#X obj 124 234 random;
#X obj 232 335 f;
#X obj 232 368 +;
#X obj 257 166 random 2;
#X obj 124 275 t f f;
#X obj 124 351 t b f;
#X obj 124 297 *;
#X obj 257 188 sel 0 1;
#X msg 257 280 -1;
#X msg 335 280 1;
#X obj 124 149 t b b b;
#X obj 124 123 r NUDGE!;
#X obj 157 193 r NUDGE-RANGE;
#X obj 247 308 inlet;
#X obj 232 397 outlet;
#X connect 0 0 4 0;
#X connect 1 0 2 0;
#X connect 2 0 14 0;
#X connect 3 0 7 0;
#X connect 4 0 6 0;
#X connect 5 0 2 0;
#X connect 5 1 2 1;
#X connect 6 0 5 0;
#X connect 7 0 8 0;
#X connect 7 1 9 0;
#X connect 8 0 6 1;
#X connect 9 0 6 1;
#X connect 10 0 0 0;
#X connect 10 1 1 0;
#X connect 10 2 3 0;
#X connect 11 0 10 0;
#X connect 12 0 0 1;
#X connect 13 0 1 1;
#X restore 409 151 pd param-nudge;
#X obj 409 173 clip 0 127;
#N canvas 0 22 484 497 param-nudge 0;
#X obj 124 234 random;
#X obj 232 335 f;
#X obj 232 368 +;
#X obj 257 166 random 2;
#X obj 124 275 t f f;
#X obj 124 351 t b f;
#X obj 124 297 *;
#X obj 257 188 sel 0 1;
#X msg 257 280 -1;
#X msg 335 280 1;
#X obj 124 149 t b b b;
#X obj 124 123 r NUDGE!;
#X obj 157 193 r NUDGE-RANGE;
#X obj 247 308 inlet;
#X obj 232 397 outlet;
#X connect 0 0 4 0;
#X connect 1 0 2 0;
#X connect 2 0 14 0;
#X connect 3 0 7 0;
#X connect 4 0 6 0;
#X connect 5 0 2 0;
#X connect 5 1 2 1;
#X connect 6 0 5 0;
#X connect 7 0 8 0;
#X connect 7 1 9 0;
#X connect 8 0 6 1;
#X connect 9 0 6 1;
#X connect 10 0 0 0;
#X connect 10 1 1 0;
#X connect 10 2 3 0;
#X connect 11 0 10 0;
#X connect 12 0 0 1;
#X connect 13 0 1 1;
#X restore 25 264 pd param-nudge;
#N canvas 0 22 484 497 param-nudge 0;
#X obj 124 234 random;
#X obj 232 335 f;
#X obj 232 368 +;
#X obj 257 166 random 2;
#X obj 124 275 t f f;
#X obj 124 351 t b f;
#X obj 124 297 *;
#X obj 257 188 sel 0 1;
#X msg 257 280 -1;
#X msg 335 280 1;
#X obj 124 149 t b b b;
#X obj 124 123 r NUDGE!;
#X obj 157 193 r NUDGE-RANGE;
#X obj 247 308 inlet;
#X obj 232 397 outlet;
#X connect 0 0 4 0;
#X connect 1 0 2 0;
#X connect 2 0 14 0;
#X connect 3 0 7 0;
#X connect 4 0 6 0;
#X connect 5 0 2 0;
#X connect 5 1 2 1;
#X connect 6 0 5 0;
#X connect 7 0 8 0;
#X connect 7 1 9 0;
#X connect 8 0 6 1;
#X connect 9 0 6 1;
#X connect 10 0 0 0;
#X connect 10 1 1 0;
#X connect 10 2 3 0;
#X connect 11 0 10 0;
#X connect 12 0 0 1;
#X connect 13 0 1 1;
#X restore 217 266 pd param-nudge;
#X obj 25 286 clip 0 127;
#X obj 217 288 clip 0 127;
#N canvas 0 22 484 497 param-nudge 0;
#X obj 124 234 random;
#X obj 232 335 f;
#X obj 232 368 +;
#X obj 257 166 random 2;
#X obj 124 275 t f f;
#X obj 124 351 t b f;
#X obj 124 297 *;
#X obj 257 188 sel 0 1;
#X msg 257 280 -1;
#X msg 335 280 1;
#X obj 124 149 t b b b;
#X obj 124 123 r NUDGE!;
#X obj 157 193 r NUDGE-RANGE;
#X obj 247 308 inlet;
#X obj 232 397 outlet;
#X connect 0 0 4 0;
#X connect 1 0 2 0;
#X connect 2 0 14 0;
#X connect 3 0 7 0;
#X connect 4 0 6 0;
#X connect 5 0 2 0;
#X connect 5 1 2 1;
#X connect 6 0 5 0;
#X connect 7 0 8 0;
#X connect 7 1 9 0;
#X connect 8 0 6 1;
#X connect 9 0 6 1;
#X connect 10 0 0 0;
#X connect 10 1 1 0;
#X connect 10 2 3 0;
#X connect 11 0 10 0;
#X connect 12 0 0 1;
#X connect 13 0 1 1;
#X restore 413 266 pd param-nudge;
#X obj 413 288 clip 0 127;
#X obj 23 22 r \$0-polyfm-pitch-s;
#X obj 23 95 s \$0-polyfm-pitch-r;
#X obj 214 24 r \$0-polyfm-index-s;
#X obj 214 97 s \$0-polyfm-index-r;
#X obj 407 24 r \$0-polyfm-ratio-s;
#X obj 407 97 s \$0-polyfm-ratio-r;
#X obj 21 126 r \$0-polyfm-attack-s;
#X obj 21 198 s \$0-polyfm-attack-r;
#X obj 213 128 r \$0-polyfm-hold-s;
#X obj 213 199 s \$0-polyfm-hold-r;
#X obj 409 128 r \$0-polyfm-release-s;
#X obj 409 199 s \$0-polyfm-release-r;
#X obj 25 241 r \$0-polyfm-attack2-s;
#X obj 25 313 s \$0-polyfm-attack2-r;
#X obj 217 243 r \$0-polyfm-hold2-s;
#X obj 217 314 s \$0-polyfm-hold2-r;
#X obj 413 243 r \$0-polyfm-release2-s;
#X obj 413 314 s \$0-polyfm-release2-r;
#X connect 0 0 7 0;
#X connect 1 0 8 0;
#X connect 2 0 9 0;
#X connect 3 0 5 0;
#X connect 4 0 6 0;
#X connect 5 0 25 0;
#X connect 6 0 27 0;
#X connect 7 0 19 0;
#X connect 8 0 21 0;
#X connect 9 0 23 0;
#X connect 10 0 11 0;
#X connect 11 0 29 0;
#X connect 12 0 14 0;
#X connect 13 0 15 0;
#X connect 14 0 31 0;
#X connect 15 0 33 0;
#X connect 16 0 17 0;
#X connect 17 0 35 0;
#X connect 18 0 0 0;
#X connect 20 0 1 0;
#X connect 22 0 2 0;
#X connect 24 0 3 0;
#X connect 26 0 4 0;
#X connect 28 0 10 0;
#X connect 30 0 12 0;
#X connect 32 0 13 0;
#X connect 34 0 16 0;
#X restore 678 496 pd parameter-nudging-system;
#X obj 270 330 cnv 5 5 5 empty empty ENV 0 0 0 8 -262144 -1 0;
#X obj 104 330 cnv 5 5 5 empty empty LEFT 0 0 0 8 -262144 -1 0;
#X obj 184 330 cnv 5 5 5 empty empty RIGHT 0 0 0 8 -262144 -1 0;
#X obj 261 108 cnv 5 5 5 empty empty INDEX 0 0 0 8 -262144 -66577 0
;
#X obj 320 707 outlet~ LEFT;
#X obj 678 633 catch~ \$0-polyfm-eg;
#X obj 486 200 r \$0-polyfm-pitch-s;
#X obj 108 274 hsl 128 15 1.27 127 1 1 \$0-polyfm-attack2-s \$0-polyfm-attack2-r
ATTACK 135 7 0 10 -262144 -1 -1 0 1;
#X obj 108 289 hsl 128 15 0 127 0 1 \$0-polyfm-hold2-s \$0-polyfm-hold2-r
HOLD 135 7 0 10 -262144 -1 -1 0 1;
#X obj 108 303 hsl 128 15 0 127 0 1 \$0-polyfm-release2-s \$0-polyfm-release2-r
RELEASE 135 7 0 10 -262144 -1 -1 0 1;
#X obj 128 121 cnv 5 5 5 empty empty polyFM 0 0 0 12 -262144 -66577
0;
#X obj 105 202 cnv 5 5 5 empty empty carrier-EG 0 0 0 12 -262144 -66577
0;
#X obj 651 18 inlet~ INDEX CV;
#X obj 651 40 s~ \$0-polyfm-index-cv;
#N canvas 224 22 962 575 voice2-ahr 0;
#X obj 43 6 inlet;
#X obj 43 28 unpack f f;
#X obj 100 51 sel 0;
#X obj 43 149 +~;
#X obj 43 179 mtof~;
#X obj 43 495 *~;
#X obj 43 517 outlet~;
#X obj 609 145 * 0.00787402;
#X obj 608 189 + 1;
#X obj 609 121 - 1.27;
#X obj 593 385 vline~;
#X obj 781 265 * 0.00787402;
#X obj 781 309 + 1;
#X obj 781 241 - 1.27;
#X obj 593 434 *~;
#X obj 593 478 *~;
#X obj 593 219 f;
#X obj 43 50 sig~;
#X obj 609 167 * 1999;
#X obj 654 210 * 0.00787402;
#X obj 654 232 * 999;
#X obj 654 254 + 1;
#X msg 593 353 1 \$1 \, 0 \$3 \$2;
#X obj 593 241 t f f;
#X obj 593 326 pack f f f;
#X obj 620 293 +;
#X obj 781 287 * 3999;
#X obj 43 210 phasor~;
#X obj 43 328 +~;
#X obj 43 350 cos~;
#X obj 255 60 r \$0-polyfm-ratio-s;
#X obj 240 196 *~;
#X obj 255 82 * 0.00787402;
#X obj 255 104 * 7;
#X obj 255 126 + 1;
#X obj 255 148 pack 0 50;
#X obj 255 170 line~;
#X obj 240 218 osc~;
#X obj 240 240 *~;
#X obj 384 91 r \$0-polyfm-index-s;
#X obj 384 113 * 0.00787402;
#X obj 384 157 pack 0 50;
#X obj 384 179 line~;
#X obj 609 99 r \$0-polyfm-attack-s;
#X obj 654 188 r \$0-polyfm-hold-s;
#X obj 781 217 r \$0-polyfm-release-s;
#X obj 593 508 throw~ \$0-polyfm-eg;
#X obj 384 135 * 1;
#N canvas 0 22 942 604 eg2 0;
#X obj 246 99 * 0.00787402;
#X obj 245 143 + 1;
#X obj 246 75 - 1.27;
#X obj 230 339 vline~;
#X obj 418 219 * 0.00787402;
#X obj 418 263 + 1;
#X obj 418 195 - 1.27;
#X obj 230 388 *~;
#X obj 230 432 *~;
#X obj 230 173 f;
#X obj 246 121 * 1999;
#X obj 291 164 * 0.00787402;
#X obj 291 186 * 999;
#X obj 291 208 + 1;
#X msg 230 307 1 \$1 \, 0 \$3 \$2;
#X obj 230 195 t f f;
#X obj 230 280 pack f f f;
#X obj 257 247 +;
#X obj 418 241 * 3999;
#X obj 246 53 r \$0-polyfm-attack2-s;
#X obj 291 142 r \$0-polyfm-hold2-s;
#X obj 418 171 r \$0-polyfm-release2-s;
#X obj 230 18 inlet;
#X obj 230 454 outlet~;
#X connect 0 0 10 0;
#X connect 1 0 9 1;
#X connect 2 0 0 0;
#X connect 3 0 7 0;
#X connect 3 0 7 1;
#X connect 4 0 18 0;
#X connect 5 0 16 2;
#X connect 6 0 4 0;
#X connect 7 0 8 0;
#X connect 7 0 8 1;
#X connect 8 0 23 0;
#X connect 9 0 15 0;
#X connect 10 0 1 0;
#X connect 11 0 12 0;
#X connect 12 0 13 0;
#X connect 13 0 17 1;
#X connect 14 0 3 0;
#X connect 15 0 16 0;
#X connect 15 1 17 0;
#X connect 16 0 14 0;
#X connect 17 0 16 1;
#X connect 18 0 5 0;
#X connect 19 0 2 0;
#X connect 20 0 11 0;
#X connect 21 0 6 0;
#X connect 22 0 9 0;
#X restore 154 156 pd eg2;
#X obj 127 74 t b b;
#X obj 139 276 *~;
#X obj 384 201 +~;
#X obj 384 223 clip~ 0 1;
#X obj 450 184 r~ \$0-polyfm-index-cv;
#X connect 0 0 1 0;
#X connect 1 0 17 0;
#X connect 1 1 2 0;
#X connect 2 1 49 0;
#X connect 3 0 4 0;
#X connect 4 0 27 0;
#X connect 4 0 31 0;
#X connect 5 0 6 0;
#X connect 7 0 18 0;
#X connect 8 0 16 1;
#X connect 9 0 7 0;
#X connect 10 0 14 0;
#X connect 10 0 14 1;
#X connect 11 0 26 0;
#X connect 12 0 24 2;
#X connect 13 0 11 0;
#X connect 14 0 15 0;
#X connect 14 0 15 1;
#X connect 15 0 5 1;
#X connect 15 0 46 0;
#X connect 16 0 23 0;
#X connect 17 0 3 0;
#X connect 18 0 8 0;
#X connect 19 0 20 0;
#X connect 20 0 21 0;
#X connect 21 0 25 1;
#X connect 22 0 10 0;
#X connect 23 0 24 0;
#X connect 23 1 25 0;
#X connect 24 0 22 0;
#X connect 25 0 24 1;
#X connect 26 0 12 0;
#X connect 27 0 28 0;
#X connect 28 0 29 0;
#X connect 29 0 5 0;
#X connect 30 0 32 0;
#X connect 31 0 37 0;
#X connect 32 0 33 0;
#X connect 33 0 34 0;
#X connect 34 0 35 0;
#X connect 35 0 36 0;
#X connect 36 0 31 1;
#X connect 37 0 38 0;
#X connect 38 0 50 0;
#X connect 39 0 40 0;
#X connect 40 0 47 0;
#X connect 41 0 42 0;
#X connect 42 0 51 0;
#X connect 43 0 9 0;
#X connect 44 0 19 0;
#X connect 45 0 13 0;
#X connect 47 0 41 0;
#X connect 48 0 50 1;
#X connect 49 0 16 0;
#X connect 49 1 48 0;
#X connect 50 0 28 1;
#X connect 51 0 52 0;
#X connect 52 0 38 1;
#X connect 53 0 51 1;
#X restore 338 545 pd voice2-ahr;
#N canvas 224 22 962 575 voice3-ahr 0;
#X obj 43 6 inlet;
#X obj 43 28 unpack f f;
#X obj 100 51 sel 0;
#X obj 43 149 +~;
#X obj 43 179 mtof~;
#X obj 43 495 *~;
#X obj 43 517 outlet~;
#X obj 609 145 * 0.00787402;
#X obj 608 189 + 1;
#X obj 609 121 - 1.27;
#X obj 593 385 vline~;
#X obj 781 265 * 0.00787402;
#X obj 781 309 + 1;
#X obj 781 241 - 1.27;
#X obj 593 434 *~;
#X obj 593 478 *~;
#X obj 593 219 f;
#X obj 43 50 sig~;
#X obj 609 167 * 1999;
#X obj 654 210 * 0.00787402;
#X obj 654 232 * 999;
#X obj 654 254 + 1;
#X msg 593 353 1 \$1 \, 0 \$3 \$2;
#X obj 593 241 t f f;
#X obj 593 326 pack f f f;
#X obj 620 293 +;
#X obj 781 287 * 3999;
#X obj 43 210 phasor~;
#X obj 43 328 +~;
#X obj 43 350 cos~;
#X obj 255 60 r \$0-polyfm-ratio-s;
#X obj 240 196 *~;
#X obj 255 82 * 0.00787402;
#X obj 255 104 * 7;
#X obj 255 126 + 1;
#X obj 255 148 pack 0 50;
#X obj 255 170 line~;
#X obj 240 218 osc~;
#X obj 240 240 *~;
#X obj 384 91 r \$0-polyfm-index-s;
#X obj 384 113 * 0.00787402;
#X obj 384 157 pack 0 50;
#X obj 384 179 line~;
#X obj 609 99 r \$0-polyfm-attack-s;
#X obj 654 188 r \$0-polyfm-hold-s;
#X obj 781 217 r \$0-polyfm-release-s;
#X obj 593 508 throw~ \$0-polyfm-eg;
#X obj 384 135 * 1;
#N canvas 0 22 942 604 eg2 0;
#X obj 246 99 * 0.00787402;
#X obj 245 143 + 1;
#X obj 246 75 - 1.27;
#X obj 230 339 vline~;
#X obj 418 219 * 0.00787402;
#X obj 418 263 + 1;
#X obj 418 195 - 1.27;
#X obj 230 388 *~;
#X obj 230 432 *~;
#X obj 230 173 f;
#X obj 246 121 * 1999;
#X obj 291 164 * 0.00787402;
#X obj 291 186 * 999;
#X obj 291 208 + 1;
#X msg 230 307 1 \$1 \, 0 \$3 \$2;
#X obj 230 195 t f f;
#X obj 230 280 pack f f f;
#X obj 257 247 +;
#X obj 418 241 * 3999;
#X obj 246 53 r \$0-polyfm-attack2-s;
#X obj 291 142 r \$0-polyfm-hold2-s;
#X obj 418 171 r \$0-polyfm-release2-s;
#X obj 230 18 inlet;
#X obj 230 454 outlet~;
#X connect 0 0 10 0;
#X connect 1 0 9 1;
#X connect 2 0 0 0;
#X connect 3 0 7 0;
#X connect 3 0 7 1;
#X connect 4 0 18 0;
#X connect 5 0 16 2;
#X connect 6 0 4 0;
#X connect 7 0 8 0;
#X connect 7 0 8 1;
#X connect 8 0 23 0;
#X connect 9 0 15 0;
#X connect 10 0 1 0;
#X connect 11 0 12 0;
#X connect 12 0 13 0;
#X connect 13 0 17 1;
#X connect 14 0 3 0;
#X connect 15 0 16 0;
#X connect 15 1 17 0;
#X connect 16 0 14 0;
#X connect 17 0 16 1;
#X connect 18 0 5 0;
#X connect 19 0 2 0;
#X connect 20 0 11 0;
#X connect 21 0 6 0;
#X connect 22 0 9 0;
#X restore 154 156 pd eg2;
#X obj 127 74 t b b;
#X obj 139 276 *~;
#X obj 384 201 +~;
#X obj 384 223 clip~ 0 1;
#X obj 450 184 r~ \$0-polyfm-index-cv;
#X connect 0 0 1 0;
#X connect 1 0 17 0;
#X connect 1 1 2 0;
#X connect 2 1 49 0;
#X connect 3 0 4 0;
#X connect 4 0 27 0;
#X connect 4 0 31 0;
#X connect 5 0 6 0;
#X connect 7 0 18 0;
#X connect 8 0 16 1;
#X connect 9 0 7 0;
#X connect 10 0 14 0;
#X connect 10 0 14 1;
#X connect 11 0 26 0;
#X connect 12 0 24 2;
#X connect 13 0 11 0;
#X connect 14 0 15 0;
#X connect 14 0 15 1;
#X connect 15 0 5 1;
#X connect 15 0 46 0;
#X connect 16 0 23 0;
#X connect 17 0 3 0;
#X connect 18 0 8 0;
#X connect 19 0 20 0;
#X connect 20 0 21 0;
#X connect 21 0 25 1;
#X connect 22 0 10 0;
#X connect 23 0 24 0;
#X connect 23 1 25 0;
#X connect 24 0 22 0;
#X connect 25 0 24 1;
#X connect 26 0 12 0;
#X connect 27 0 28 0;
#X connect 28 0 29 0;
#X connect 29 0 5 0;
#X connect 30 0 32 0;
#X connect 31 0 37 0;
#X connect 32 0 33 0;
#X connect 33 0 34 0;
#X connect 34 0 35 0;
#X connect 35 0 36 0;
#X connect 36 0 31 1;
#X connect 37 0 38 0;
#X connect 38 0 50 0;
#X connect 39 0 40 0;
#X connect 40 0 47 0;
#X connect 41 0 42 0;
#X connect 42 0 51 0;
#X connect 43 0 9 0;
#X connect 44 0 19 0;
#X connect 45 0 13 0;
#X connect 47 0 41 0;
#X connect 48 0 50 1;
#X connect 49 0 16 0;
#X connect 49 1 48 0;
#X connect 50 0 28 1;
#X connect 51 0 52 0;
#X connect 52 0 38 1;
#X connect 53 0 51 1;
#X restore 357 574 pd voice3-ahr;
#N canvas 224 22 962 575 voice4-ahr 0;
#X obj 43 6 inlet;
#X obj 43 28 unpack f f;
#X obj 100 51 sel 0;
#X obj 43 149 +~;
#X obj 43 179 mtof~;
#X obj 43 495 *~;
#X obj 43 517 outlet~;
#X obj 609 145 * 0.00787402;
#X obj 608 189 + 1;
#X obj 609 121 - 1.27;
#X obj 593 385 vline~;
#X obj 781 265 * 0.00787402;
#X obj 781 309 + 1;
#X obj 781 241 - 1.27;
#X obj 593 434 *~;
#X obj 593 478 *~;
#X obj 593 219 f;
#X obj 43 50 sig~;
#X obj 609 167 * 1999;
#X obj 654 210 * 0.00787402;
#X obj 654 232 * 999;
#X obj 654 254 + 1;
#X msg 593 353 1 \$1 \, 0 \$3 \$2;
#X obj 593 241 t f f;
#X obj 593 326 pack f f f;
#X obj 620 293 +;
#X obj 781 287 * 3999;
#X obj 43 210 phasor~;
#X obj 43 328 +~;
#X obj 43 350 cos~;
#X obj 255 60 r \$0-polyfm-ratio-s;
#X obj 240 196 *~;
#X obj 255 82 * 0.00787402;
#X obj 255 104 * 7;
#X obj 255 126 + 1;
#X obj 255 148 pack 0 50;
#X obj 255 170 line~;
#X obj 240 218 osc~;
#X obj 240 240 *~;
#X obj 384 91 r \$0-polyfm-index-s;
#X obj 384 113 * 0.00787402;
#X obj 384 157 pack 0 50;
#X obj 384 179 line~;
#X obj 609 99 r \$0-polyfm-attack-s;
#X obj 654 188 r \$0-polyfm-hold-s;
#X obj 781 217 r \$0-polyfm-release-s;
#X obj 593 508 throw~ \$0-polyfm-eg;
#X obj 384 135 * 1;
#N canvas 0 22 942 604 eg2 0;
#X obj 246 99 * 0.00787402;
#X obj 245 143 + 1;
#X obj 246 75 - 1.27;
#X obj 230 339 vline~;
#X obj 418 219 * 0.00787402;
#X obj 418 263 + 1;
#X obj 418 195 - 1.27;
#X obj 230 388 *~;
#X obj 230 432 *~;
#X obj 230 173 f;
#X obj 246 121 * 1999;
#X obj 291 164 * 0.00787402;
#X obj 291 186 * 999;
#X obj 291 208 + 1;
#X msg 230 307 1 \$1 \, 0 \$3 \$2;
#X obj 230 195 t f f;
#X obj 230 280 pack f f f;
#X obj 257 247 +;
#X obj 418 241 * 3999;
#X obj 246 53 r \$0-polyfm-attack2-s;
#X obj 291 142 r \$0-polyfm-hold2-s;
#X obj 418 171 r \$0-polyfm-release2-s;
#X obj 230 18 inlet;
#X obj 230 454 outlet~;
#X connect 0 0 10 0;
#X connect 1 0 9 1;
#X connect 2 0 0 0;
#X connect 3 0 7 0;
#X connect 3 0 7 1;
#X connect 4 0 18 0;
#X connect 5 0 16 2;
#X connect 6 0 4 0;
#X connect 7 0 8 0;
#X connect 7 0 8 1;
#X connect 8 0 23 0;
#X connect 9 0 15 0;
#X connect 10 0 1 0;
#X connect 11 0 12 0;
#X connect 12 0 13 0;
#X connect 13 0 17 1;
#X connect 14 0 3 0;
#X connect 15 0 16 0;
#X connect 15 1 17 0;
#X connect 16 0 14 0;
#X connect 17 0 16 1;
#X connect 18 0 5 0;
#X connect 19 0 2 0;
#X connect 20 0 11 0;
#X connect 21 0 6 0;
#X connect 22 0 9 0;
#X restore 154 156 pd eg2;
#X obj 127 74 t b b;
#X obj 139 276 *~;
#X obj 384 201 +~;
#X obj 384 223 clip~ 0 1;
#X obj 450 184 r~ \$0-polyfm-index-cv;
#X connect 0 0 1 0;
#X connect 1 0 17 0;
#X connect 1 1 2 0;
#X connect 2 1 49 0;
#X connect 3 0 4 0;
#X connect 4 0 27 0;
#X connect 4 0 31 0;
#X connect 5 0 6 0;
#X connect 7 0 18 0;
#X connect 8 0 16 1;
#X connect 9 0 7 0;
#X connect 10 0 14 0;
#X connect 10 0 14 1;
#X connect 11 0 26 0;
#X connect 12 0 24 2;
#X connect 13 0 11 0;
#X connect 14 0 15 0;
#X connect 14 0 15 1;
#X connect 15 0 5 1;
#X connect 15 0 46 0;
#X connect 16 0 23 0;
#X connect 17 0 3 0;
#X connect 18 0 8 0;
#X connect 19 0 20 0;
#X connect 20 0 21 0;
#X connect 21 0 25 1;
#X connect 22 0 10 0;
#X connect 23 0 24 0;
#X connect 23 1 25 0;
#X connect 24 0 22 0;
#X connect 25 0 24 1;
#X connect 26 0 12 0;
#X connect 27 0 28 0;
#X connect 28 0 29 0;
#X connect 29 0 5 0;
#X connect 30 0 32 0;
#X connect 31 0 37 0;
#X connect 32 0 33 0;
#X connect 33 0 34 0;
#X connect 34 0 35 0;
#X connect 35 0 36 0;
#X connect 36 0 31 1;
#X connect 37 0 38 0;
#X connect 38 0 50 0;
#X connect 39 0 40 0;
#X connect 40 0 47 0;
#X connect 41 0 42 0;
#X connect 42 0 51 0;
#X connect 43 0 9 0;
#X connect 44 0 19 0;
#X connect 45 0 13 0;
#X connect 47 0 41 0;
#X connect 48 0 50 1;
#X connect 49 0 16 0;
#X connect 49 1 48 0;
#X connect 50 0 28 1;
#X connect 51 0 52 0;
#X connect 52 0 38 1;
#X connect 53 0 51 1;
#X restore 376 601 pd voice4-ahr;
#X obj 431 708 outlet~ RIGHT;
#X obj 320 674 *~ 0.33;
#X obj 431 675 *~ 0.33;
#X obj 258 630 *~ 0.5;
#X obj 482 610 *~ 0.5;
#X floatatom 105 176 5 0 0 0 - #0-polyfm-ratio-gui-r -, f 5;
#X obj 678 339 r \$0-polyfm-ratio-s;
#X obj 678 361 / 127;
#X obj 678 383 * 7;
#X obj 678 405 + 1;
#X obj 678 449 s \$0-polyfm-ratio-gui-r;
#X obj 185 108 cnv 5 5 5 empty empty PITCH 0 0 0 8 -262144 -66577 0
;
#X obj 677 530 argspack \$0-polyfm-pitch \$1 \$0-polyfm-index \$2 \$0-polyfm-ratio
\$3 \$0-polyfm-attack \$4 \$0-polyfm-hold \$5 \$0-polyfm-release \$6
\$0-polyfm-attack2 \$7 \$0-polyfm-hold2 \$8 \$0-polyfm-release2 \$9
;
#X obj 677 594 canvasargs;
#X connect 0 0 16 0;
#X connect 1 0 9 0;
#X connect 2 0 3 0;
#X connect 3 0 14 0;
#X connect 4 0 14 1;
#X connect 5 0 6 0;
#X connect 5 1 7 0;
#X connect 6 0 8 0;
#X connect 7 0 8 1;
#X connect 8 0 1 0;
#X connect 8 1 1 1;
#X connect 8 2 1 2;
#X connect 9 0 28 0;
#X connect 9 1 47 0;
#X connect 9 2 48 0;
#X connect 9 3 49 0;
#X connect 14 0 5 0;
#X connect 15 0 19 0;
#X connect 17 0 20 0;
#X connect 18 0 15 0;
#X connect 19 0 2 0;
#X connect 19 1 4 0;
#X connect 19 2 20 0;
#X connect 20 0 21 0;
#X connect 21 0 22 0;
#X connect 22 0 23 0;
#X connect 23 0 2 1;
#X connect 24 0 51 0;
#X connect 24 0 52 0;
#X connect 26 0 25 0;
#X connect 28 0 24 0;
#X connect 28 0 53 0;
#X connect 38 0 26 0;
#X connect 39 0 22 1;
#X connect 45 0 46 0;
#X connect 47 0 24 0;
#X connect 47 0 54 0;
#X connect 48 0 24 0;
#X connect 48 0 53 0;
#X connect 49 0 24 0;
#X connect 49 0 54 0;
#X connect 51 0 37 0;
#X connect 52 0 50 0;
#X connect 53 0 51 0;
#X connect 54 0 52 0;
#X connect 56 0 57 0;
#X connect 57 0 58 0;
#X connect 58 0 59 0;
#X connect 59 0 60 0;
#X connect 62 0 63 0;
#X coords 0 -1 1 1 190 240 2 100 100;
