#N canvas 380 353 1057 676 10;
#X obj 422 227 *~ 0.5;
#X obj 761 249 noise~;
#X obj 761 296 *~;
#X obj 437 402 vline~;
#X obj 422 476 *~;
#X obj 497 267 / 127;
#X obj 497 337 moses 10;
#X obj 437 354 f;
#X msg 437 380 1 1 \, 0 \$1 1;
#X obj 437 424 *~;
#X obj 833 254 vline~;
#X obj 109 164 hsl 128 15 1.27 127 1 0 \$0-snare-noise-s \$0-snare-noise-r
NOISE 133 7 0 10 -262144 -1 -1 0 1;
#X obj 804 93 / 127;
#X obj 804 170 moses 10;
#X obj 833 206 f;
#X msg 833 232 1 1 \, 0 \$1 1;
#X obj 833 276 *~;
#X obj 109 149 hsl 128 15 1.27 127 1 0 \$0-snare-decay-s \$0-snare-decay-r
DECAY 133 7 0 10 -262144 -1 -1 0 1;
#X obj 497 312 * 500;
#X obj 804 148 * 500;
#X obj 761 342 hip~;
#X obj 109 179 hsl 128 15 0 127 0 0 \$0-snare-color-s \$0-snare-color-r
COLOR 133 7 0 10 -262144 -1 -1 0 1;
#X obj 929 229 / 127;
#X obj 929 306 + 50;
#X obj 929 284 * 9950;
#X floatatom 929 328 5 0 0 0 - - -, f 5;
#X obj 109 134 hsl 128 15 0 127 0 0 \$0-snare-pitch-s \$0-snare-pitch-r
PITCH 133 7 0 10 -262144 -1 -1 0 1;
#X obj 422 56 / 127;
#X obj 422 78 * 400;
#X obj 422 100 t f f;
#X obj 422 122 + 276;
#X obj 490 117 + 38;
#X obj 833 309 *~;
#X obj 422 144 sig~;
#X obj 422 172 +~;
#X obj 490 139 sig~;
#X obj 490 171 +~;
#X obj 437 446 *~;
#X obj 422 197 osc~ 476;
#X obj 490 197 osc~ 238;
#X msg 437 280 bang;
#X obj 437 302 t b b;
#X obj 422 32 r \$0-snare-pitch-s;
#X obj 497 245 r \$0-snare-decay-s;
#X obj 804 67 r \$0-snare-noise-s;
#X obj 928 202 r \$0-snare-color-s;
#X obj 422 528 outlet~;
#X obj 274 10 inlet~;
#X obj 539 32 inlet~;
#X obj 539 54 *~ 400;
#X obj 551 88 inlet~;
#X obj 551 127 snapshot~;
#X obj 551 149 t b f;
#X obj 497 289 +;
#X obj 274 54 s \$0-snare-trig!;
#X obj 600 87 r \$0-snare-trig!;
#X obj 804 115 +;
#X obj 636 110 inlet~;
#X obj 637 157 snapshot~;
#X obj 637 179 t b f;
#X obj 686 117 r \$0-snare-trig!;
#X obj 851 389 inlet~;
#X obj 851 428 snapshot~;
#X obj 851 450 t b f;
#X obj 900 388 r \$0-snare-trig!;
#X obj 929 251 +;
#X obj 284 183 r \$0-snare-trig!;
#X obj 105 124 cnv 5 5 5 empty empty SNARE 0 0 0 12 -262144 -66577
0;
#X obj 247 109 cnv 5 5 5 empty empty COLOR 0 0 0 8 -262144 -1 0;
#X obj 103 109 cnv 5 5 5 empty empty TRIG 0 0 0 8 -262144 -226533 0
;
#X obj 176 109 cnv 5 5 5 empty empty DECAY 0 0 0 8 -262144 -1 0;
#X obj 134 109 cnv 5 5 5 empty empty PITCH 0 0 0 8 -262144 -1 0;
#X obj 218 109 cnv 5 5 5 empty empty NOISE 0 0 0 8 -262144 -1 0;
#X obj 274 32 threshold~ 0.9 0 0.9 0;
#X obj 422 506 *~ 1;
#X obj 55 326 canvasargs;
#X obj 55 286 msgpack \$0-snare-pitch \$1 \$0-snare-decay \$2 \$0-snare-noise
\$3 \$0-snare-color \$4;
#X obj 55 259 loadbang;
#X connect 0 0 4 0;
#X connect 1 0 2 0;
#X connect 2 0 20 0;
#X connect 3 0 9 0;
#X connect 3 0 9 1;
#X connect 4 0 74 0;
#X connect 5 0 53 0;
#X connect 6 1 7 1;
#X connect 7 0 8 0;
#X connect 8 0 3 0;
#X connect 9 0 37 0;
#X connect 9 0 37 1;
#X connect 10 0 16 0;
#X connect 10 0 16 1;
#X connect 12 0 56 0;
#X connect 13 1 14 1;
#X connect 14 0 15 0;
#X connect 15 0 10 0;
#X connect 16 0 32 0;
#X connect 16 0 32 1;
#X connect 18 0 6 0;
#X connect 19 0 13 0;
#X connect 20 0 74 0;
#X connect 22 0 65 0;
#X connect 23 0 25 0;
#X connect 24 0 23 0;
#X connect 25 0 20 1;
#X connect 27 0 28 0;
#X connect 28 0 29 0;
#X connect 29 0 30 0;
#X connect 29 1 31 0;
#X connect 30 0 33 0;
#X connect 31 0 35 0;
#X connect 32 0 2 1;
#X connect 33 0 34 0;
#X connect 34 0 38 0;
#X connect 35 0 36 0;
#X connect 36 0 39 0;
#X connect 37 0 4 1;
#X connect 38 0 0 0;
#X connect 39 0 0 0;
#X connect 40 0 41 0;
#X connect 41 0 7 0;
#X connect 41 1 14 0;
#X connect 42 0 27 0;
#X connect 43 0 5 0;
#X connect 44 0 12 0;
#X connect 45 0 22 0;
#X connect 47 0 73 0;
#X connect 48 0 49 0;
#X connect 49 0 34 1;
#X connect 49 0 36 1;
#X connect 50 0 51 0;
#X connect 51 0 52 0;
#X connect 52 0 53 0;
#X connect 52 1 53 1;
#X connect 53 0 18 0;
#X connect 55 0 51 0;
#X connect 56 0 19 0;
#X connect 57 0 58 0;
#X connect 58 0 59 0;
#X connect 59 0 56 0;
#X connect 59 1 56 1;
#X connect 60 0 58 0;
#X connect 61 0 62 0;
#X connect 62 0 63 0;
#X connect 63 0 65 0;
#X connect 63 1 65 1;
#X connect 64 0 62 0;
#X connect 65 0 24 0;
#X connect 66 0 40 0;
#X connect 73 0 54 0;
#X connect 74 0 46 0;
#X connect 76 0 75 0;
#X connect 77 0 76 0;
#X coords 0 -1 1 1 175 100 2 100 100;
