#N canvas 320 222 1330 794 10;
#X obj 106 308 mtof~;
#X obj 106 286 +~;
#X obj 185 269 *~ 127;
#X obj 106 202 t f f;
#X obj 106 244 sig~;
#X obj 106 266 lop~ 5;
#X obj 883 126 inlet~;
#X obj 883 287 *~;
#X obj 898 240 pack 0 50;
#X obj 898 262 line~;
#X text 880 107 FM IN;
#X obj 898 218 / 127;
#X obj 883 309 *~ 2000;
#X obj 106 330 +~;
#X obj 109 131 hsl 128 15 0 127 0 1 \$0-trisaw-pitch-s \$0-trisaw-pitch-r
PITCH 135 7 0 10 -262144 -1 -1 0 1;
#X floatatom 207 117 5 0 0 0 - - -, f 5;
#X obj 106 506 *~;
#X obj 280 417 *~;
#X obj 295 303 / 127;
#X obj 295 325 t f f;
#X obj 295 347 pack 0 50;
#X obj 295 369 line~;
#X obj 295 391 +~;
#X msg 322 398 1 \$1;
#X obj 322 420 -;
#X obj 322 442 pack 0 50;
#X obj 322 464 line~;
#X obj 324 489 +~;
#X obj 473 472 *~ -1;
#X obj 473 374 *~ 1;
#X obj 473 233 abs~;
#X obj 473 205 inlet~ XAFDE;
#X obj 106 689 wrap~;
#X obj 356 560 t f f;
#X obj 356 583 pack 0 50;
#X obj 356 605 line~;
#X msg 440 577 1 \$1;
#X obj 440 599 -;
#X obj 440 621 pack 0 50;
#X obj 440 643 line~;
#X obj 440 665 +~;
#X obj 106 666 *~;
#X obj 356 538 / 127;
#X obj 640 626 *~;
#X obj 106 733 *~;
#X obj 356 627 +~;
#X obj 356 649 +~ 1;
#X obj 640 650 *~ 1;
#X obj 641 566 abs~;
#X obj 641 588 *~ -1;
#X obj 106 711 -~ 0.5;
#X obj 640 703 clip~ -1 1;
#X obj 208 109 cnv 5 5 5 empty empty HARM. 0 0 0 8 -262144 -66577 0
;
#X obj 262 109 cnv 5 5 5 empty empty FM 0 0 0 8 -262144 -120682 0;
#X obj 105 123 cnv 5 5 5 empty empty TRIGONS 0 0 0 12 -262144 -66577
0;
#X obj 109 146 hsl 128 15 0 127 0 1 \$0-trisaw-xfade-s \$0-trisaw-xfade-r
WAVE 135 7 0 10 -262144 -1 -1 0 1;
#X obj 295 282 r \$0-trisaw-xfade-s;
#X obj 109 161 hsl 128 15 0 127 0 1 \$0-trisaw-harmonics-s \$0-trisaw-harmonics-r
HARM. 135 7 0 10 -262144 -1 -1 0 1;
#X obj 356 513 r \$0-trisaw-harmonics-s;
#X obj 640 725 outlet~;
#X obj 641 542 inlet~ HARMONICS;
#X obj 105 109 cnv 5 5 5 empty empty PITCH 0 0 0 8 -262144 -66577 0
;
#X obj 155 109 cnv 5 5 5 empty empty WAVE 0 0 0 8 -262144 -66577 0
;
#X obj 109 177 hsl 128 15 0 127 0 1 \$0-trisaw-fm-att-s \$0-trisaw-fm-att-r
FM 133 7 0 10 -216373 -1 -1 0 1;
#X obj 898 181 r \$0-trisaw-fm-att-s;
#X obj 744 503 loadbang;
#X obj 744 525 f \$0;
#X obj 744 556 t f f;
#X text 745 485 SAW WAVE;
#X msg 743 660 \; \$1-saw normalize 1;
#X obj 741 699 table \$0-saw;
#X obj 280 259 tabosc4~ \$0-saw;
#X obj 809 369 loadbang;
#X text 781 349 TRIANGLE WAVE;
#X msg 809 505 \; \$1-triangle normalize 1;
#X obj 809 391 f \$0;
#X obj 809 422 t f f;
#X obj 807 545 table \$0-triangle;
#X obj 106 352 tabosc4~ \$0-triangle;
#X obj 106 224 clip 0 90;
#X obj 185 247 inlet~ PITCH-CV;
#X msg 836 449 \; \$1-triangle sinesum 512 1 0 -0.111111 0 0.04 0 -0.0204082
0 0.0123457 0 -0.00826446;
#X msg 771 583 \; \$1-saw sinesum 512 1 0.5 0.33 0.25 0.2 0.16 0.14
0.125 0.111111 0.1 0.090909 0.083333 0.076923 0.0714285 0.066666 0.0625
0.058823 0.055555 0.052631 0.05 0.047619 0.045454 0.043478 0.041666
;
#N canvas 297 27 518 295 parameter-nudging-system 0;
#N canvas 0 22 484 497 param-nudge 0;
#X obj 124 234 random;
#X obj 232 335 f;
#X obj 232 368 +;
#X obj 257 166 random 2;
#X obj 124 275 t f f;
#X obj 124 351 t b f;
#X obj 124 297 *;
#X obj 257 188 sel 0 1;
#X msg 257 280 -1;
#X msg 335 280 1;
#X obj 124 149 t b b b;
#X obj 124 123 r NUDGE!;
#X obj 157 193 r NUDGE-RANGE;
#X obj 247 308 inlet;
#X obj 232 397 outlet;
#X connect 0 0 4 0;
#X connect 1 0 2 0;
#X connect 2 0 14 0;
#X connect 3 0 7 0;
#X connect 4 0 6 0;
#X connect 5 0 2 0;
#X connect 5 1 2 1;
#X connect 6 0 5 0;
#X connect 7 0 8 0;
#X connect 7 1 9 0;
#X connect 8 0 6 1;
#X connect 9 0 6 1;
#X connect 10 0 0 0;
#X connect 10 1 1 0;
#X connect 10 2 3 0;
#X connect 11 0 10 0;
#X connect 12 0 0 1;
#X connect 13 0 1 1;
#X restore 23 45 pd param-nudge;
#N canvas 0 22 484 497 param-nudge 0;
#X obj 124 234 random;
#X obj 232 335 f;
#X obj 232 368 +;
#X obj 257 166 random 2;
#X obj 124 275 t f f;
#X obj 124 351 t b f;
#X obj 124 297 *;
#X obj 257 188 sel 0 1;
#X msg 257 280 -1;
#X msg 335 280 1;
#X obj 124 149 t b b b;
#X obj 124 123 r NUDGE!;
#X obj 157 193 r NUDGE-RANGE;
#X obj 247 308 inlet;
#X obj 232 397 outlet;
#X connect 0 0 4 0;
#X connect 1 0 2 0;
#X connect 2 0 14 0;
#X connect 3 0 7 0;
#X connect 4 0 6 0;
#X connect 5 0 2 0;
#X connect 5 1 2 1;
#X connect 6 0 5 0;
#X connect 7 0 8 0;
#X connect 7 1 9 0;
#X connect 8 0 6 1;
#X connect 9 0 6 1;
#X connect 10 0 0 0;
#X connect 10 1 1 0;
#X connect 10 2 3 0;
#X connect 11 0 10 0;
#X connect 12 0 0 1;
#X connect 13 0 1 1;
#X restore 171 45 pd param-nudge;
#N canvas 0 22 484 497 param-nudge 0;
#X obj 124 234 random;
#X obj 232 335 f;
#X obj 232 368 +;
#X obj 257 166 random 2;
#X obj 124 275 t f f;
#X obj 124 351 t b f;
#X obj 124 297 *;
#X obj 257 188 sel 0 1;
#X msg 257 280 -1;
#X msg 335 280 1;
#X obj 124 149 t b b b;
#X obj 124 123 r NUDGE!;
#X obj 157 193 r NUDGE-RANGE;
#X obj 247 308 inlet;
#X obj 232 397 outlet;
#X connect 0 0 4 0;
#X connect 1 0 2 0;
#X connect 2 0 14 0;
#X connect 3 0 7 0;
#X connect 4 0 6 0;
#X connect 5 0 2 0;
#X connect 5 1 2 1;
#X connect 6 0 5 0;
#X connect 7 0 8 0;
#X connect 7 1 9 0;
#X connect 8 0 6 1;
#X connect 9 0 6 1;
#X connect 10 0 0 0;
#X connect 10 1 1 0;
#X connect 10 2 3 0;
#X connect 11 0 10 0;
#X connect 12 0 0 1;
#X connect 13 0 1 1;
#X restore 323 45 pd param-nudge;
#N canvas 0 22 484 497 param-nudge 0;
#X obj 124 234 random;
#X obj 232 335 f;
#X obj 232 368 +;
#X obj 257 166 random 2;
#X obj 124 275 t f f;
#X obj 124 351 t b f;
#X obj 124 297 *;
#X obj 257 188 sel 0 1;
#X msg 257 280 -1;
#X msg 335 280 1;
#X obj 124 149 t b b b;
#X obj 124 123 r NUDGE!;
#X obj 157 193 r NUDGE-RANGE;
#X obj 247 308 inlet;
#X obj 232 397 outlet;
#X connect 0 0 4 0;
#X connect 1 0 2 0;
#X connect 2 0 14 0;
#X connect 3 0 7 0;
#X connect 4 0 6 0;
#X connect 5 0 2 0;
#X connect 5 1 2 1;
#X connect 6 0 5 0;
#X connect 7 0 8 0;
#X connect 7 1 9 0;
#X connect 8 0 6 1;
#X connect 9 0 6 1;
#X connect 10 0 0 0;
#X connect 10 1 1 0;
#X connect 10 2 3 0;
#X connect 11 0 10 0;
#X connect 12 0 0 1;
#X connect 13 0 1 1;
#X restore 21 156 pd param-nudge;
#X obj 21 178 clip 0 127;
#X obj 23 67 clip 0 127;
#X obj 171 67 clip 0 127;
#X obj 323 67 clip 0 127;
#X obj 23 22 r \$0-trisaw-pitch-s;
#X obj 23 99 s \$0-trisaw-pitch-r;
#X obj 171 22 r \$0-trisaw-xfade-s;
#X obj 171 99 s \$0-trisaw-xfade-r;
#X obj 323 22 r \$0-trisaw-harmonics-s;
#X obj 323 99 s \$0-trisaw-harmonics-r;
#X obj 21 133 r \$0-trisaw-fm-att-s;
#X obj 21 209 s \$0-trisaw-fm-att-r;
#X connect 0 0 5 0;
#X connect 1 0 6 0;
#X connect 2 0 7 0;
#X connect 3 0 4 0;
#X connect 4 0 15 0;
#X connect 5 0 9 0;
#X connect 6 0 11 0;
#X connect 7 0 13 0;
#X connect 8 0 0 0;
#X connect 10 0 1 0;
#X connect 12 0 2 0;
#X connect 14 0 3 0;
#X restore 318 29 pd parameter-nudging-system;
#X obj 544 413 r \$0-trisaw-harmonics-s;
#X obj 544 435 / 127;
#X obj 544 457 + 1;
#X obj 544 479 pack 0 50;
#X obj 544 501 line~;
#X obj 544 523 +~;
#X obj 544 545 clip~ 0 2;
#X obj 640 672 *~;
#X obj 318 91 canvasargs;
#X obj 318 53 argspack \$0-trisaw-pitch \$1 \$0-trisaw-xfade \$2 \$0-trisaw-harmonics
\$3 \$0-trisaw-fm-att \$4;
#X connect 0 0 13 0;
#X connect 1 0 0 0;
#X connect 2 0 1 1;
#X connect 3 0 79 0;
#X connect 3 1 15 0;
#X connect 4 0 5 0;
#X connect 5 0 1 0;
#X connect 6 0 7 0;
#X connect 7 0 12 0;
#X connect 8 0 9 0;
#X connect 9 0 7 1;
#X connect 11 0 8 0;
#X connect 12 0 13 1;
#X connect 13 0 71 0;
#X connect 13 0 78 0;
#X connect 14 0 3 0;
#X connect 16 0 41 0;
#X connect 16 0 43 0;
#X connect 17 0 41 0;
#X connect 17 0 43 0;
#X connect 18 0 19 0;
#X connect 19 0 20 0;
#X connect 19 1 23 0;
#X connect 20 0 21 0;
#X connect 21 0 22 0;
#X connect 22 0 17 1;
#X connect 23 0 24 0;
#X connect 24 0 25 0;
#X connect 25 0 26 0;
#X connect 26 0 27 0;
#X connect 27 0 16 1;
#X connect 28 0 27 1;
#X connect 29 0 22 1;
#X connect 29 0 28 0;
#X connect 30 0 29 0;
#X connect 31 0 30 0;
#X connect 32 0 50 0;
#X connect 33 0 34 0;
#X connect 33 1 36 0;
#X connect 34 0 35 0;
#X connect 35 0 45 0;
#X connect 36 0 37 0;
#X connect 37 0 38 0;
#X connect 38 0 39 0;
#X connect 39 0 40 0;
#X connect 40 0 43 1;
#X connect 41 0 32 0;
#X connect 42 0 33 0;
#X connect 43 0 47 0;
#X connect 44 0 47 0;
#X connect 45 0 46 0;
#X connect 45 0 44 1;
#X connect 46 0 41 1;
#X connect 47 0 91 0;
#X connect 48 0 49 0;
#X connect 48 0 45 1;
#X connect 49 0 40 1;
#X connect 50 0 44 0;
#X connect 51 0 59 0;
#X connect 56 0 18 0;
#X connect 58 0 42 0;
#X connect 60 0 48 0;
#X connect 60 0 89 1;
#X connect 64 0 11 0;
#X connect 65 0 66 0;
#X connect 66 0 67 0;
#X connect 67 0 69 0;
#X connect 67 1 82 0;
#X connect 71 0 17 0;
#X connect 72 0 75 0;
#X connect 75 0 76 0;
#X connect 76 0 74 0;
#X connect 76 1 81 0;
#X connect 78 0 16 0;
#X connect 79 0 4 0;
#X connect 80 0 2 0;
#X connect 84 0 85 0;
#X connect 85 0 86 0;
#X connect 86 0 87 0;
#X connect 87 0 88 0;
#X connect 88 0 89 0;
#X connect 89 0 90 0;
#X connect 90 0 91 1;
#X connect 91 0 51 0;
#X connect 93 0 92 0;
#X coords 0 -1 1 1 175 100 2 100 100;
