#N canvas 367 299 1186 711 10;
#X obj 379 638 outlet~;
#X obj 802 626 *~;
#X obj 788 236 / 127;
#X obj 817 491 pack 0 50;
#X obj 817 513 line~;
#X text 786 198 RESONANCE;
#X obj 106 164 hsl 128 15 0 127 0 0 \$0-analog-filter-fm-/+-s \$0-analog-filter-fm-/+-r
FM-/+ 133 7 0 10 -245500 -1 -1 9600 1;
#X obj 517 102 / 127;
#X text 515 57 CUTOFF;
#X obj 802 649 delwrite~ \$0-q-feedback 1;
#X obj 353 123 delread~ \$0-q-feedback 1;
#X obj 346 457 clip~ -1 1;
#X obj 379 609 clip~ -1 1;
#X obj 517 177 sig~;
#X obj 788 283 t f f;
#X obj 488 322 + 1;
#X obj 313 96 inlet~;
#X obj 517 77 r \$0-analog-filter-cutoff-s;
#X text 620 169 "ANALOG" FLUX;
#X obj 106 134 hsl 128 15 0 127 0 0 \$0-analog-filter-cutoff-s \$0-analog-filter-cutoff-r
CUTOFF 133 7 0 10 -262144 -1 -1 8600 1;
#X obj 788 213 r \$0-analog-filter-q-s;
#X text 297 78 SIGNAL IN;
#X text 725 86 FM CV IN;
#X obj 106 149 hsl 128 15 0 127 0 0 \$0-analog-filter-q-s \$0-analog-filter-q-r
Q 133 7 0 10 -262144 -1 -1 5800 1;
#X obj 735 107 inlet~;
#X obj 735 129 *~ 5000;
#X obj 735 190 *~;
#X obj 786 63 r \$0-analog-filter-fm-/+-s;
#X obj 786 85 / 127;
#X obj 786 107 * 2;
#X obj 786 129 - 1;
#X obj 786 151 pack 0 50;
#X obj 786 173 line~;
#X obj 788 258 +;
#X obj 488 344 min 3;
#X obj 936 197 inlet~;
#X obj 936 219 snapshot~;
#X obj 936 241 t b f;
#X obj 1000 202 metro 20;
#X obj 1000 146 loadbang;
#X obj 1000 174 tgl 15 0 empty empty empty 17 7 0 10 -262144 -1 -1
1 1;
#X obj 817 535 min~ 5;
#X floatatom 106 180 5 0 0 0 - - -, f 5;
#X obj 52 65 r \$0-analog-filter-fm-/+-s;
#X obj 52 104 / 127;
#X obj 52 126 * 2;
#X obj 52 162 - 1;
#X obj 313 383 vcf~ 1;
#X obj 346 486 vcf~ 1;
#X obj 488 366 t f f;
#X obj 468 473 r \$0-analog-filter-q-s;
#X obj 379 520 *~;
#X obj 468 495 / 127;
#X obj 468 517 * 3;
#X obj 468 539 + 2;
#X obj 468 561 pack 0 50;
#X obj 468 583 line~;
#X text 467 455 GAIN COMPENSATION;
#X obj 564 129 osc~ 1;
#X obj 564 151 *~;
#X obj 564 173 *~ 25;
#X obj 105 123 cnv 5 5 5 empty empty ANALOG 0 0 0 12 -262144 -66577
0;
#X obj 154 123 cnv 5 5 5 empty empty FILTER 0 0 0 12 -262144 -66577
0;
#X obj 346 431 *~ 1.5;
#X obj 517 126 * 5000;
#X obj 517 207 +~;
#X obj 817 466 * 4;
#X obj 488 300 * 1.5;
#X obj 105 109 cnv 5 5 5 empty empty IN 0 0 0 8 -262144 -66577 0;
#X obj 172 109 cnv 5 5 5 empty empty CUTOFF 0 0 0 8 -262144 -2406 0
;
#X obj 267 109 cnv 5 5 5 empty empty Q 0 0 0 8 -262144 -66577 0;
#X obj 391 40 noise~;
#X obj 391 62 *~ 0.1;
#X obj 353 146 *~ 0.2;
#X obj 391 84 lop~ 100;
#X obj 313 188 *~ 0.5;
#N canvas 297 27 518 295 parameter-nudging-system 0;
#N canvas 0 22 484 497 param-nudge 0;
#X obj 124 234 random;
#X obj 232 335 f;
#X obj 232 368 +;
#X obj 257 166 random 2;
#X obj 124 275 t f f;
#X obj 124 351 t b f;
#X obj 124 297 *;
#X obj 257 188 sel 0 1;
#X msg 257 280 -1;
#X msg 335 280 1;
#X obj 124 149 t b b b;
#X obj 124 123 r NUDGE!;
#X obj 157 193 r NUDGE-RANGE;
#X obj 247 308 inlet;
#X obj 232 397 outlet;
#X floatatom 316 396 5 0 0 0 - - -, f 5;
#X connect 0 0 4 0;
#X connect 1 0 2 0;
#X connect 2 0 14 0;
#X connect 2 0 15 0;
#X connect 3 0 7 0;
#X connect 4 0 6 0;
#X connect 5 0 2 0;
#X connect 5 1 2 1;
#X connect 6 0 5 0;
#X connect 7 0 8 0;
#X connect 7 1 9 0;
#X connect 8 0 6 1;
#X connect 9 0 6 1;
#X connect 10 0 0 0;
#X connect 10 1 1 0;
#X connect 10 2 3 0;
#X connect 11 0 10 0;
#X connect 12 0 0 1;
#X connect 13 0 1 1;
#X restore 23 45 pd param-nudge;
#N canvas 0 22 484 497 param-nudge 0;
#X obj 124 234 random;
#X obj 232 335 f;
#X obj 232 368 +;
#X obj 257 166 random 2;
#X obj 124 275 t f f;
#X obj 124 351 t b f;
#X obj 124 297 *;
#X obj 257 188 sel 0 1;
#X msg 257 280 -1;
#X msg 335 280 1;
#X obj 124 149 t b b b;
#X obj 124 123 r NUDGE!;
#X obj 157 193 r NUDGE-RANGE;
#X obj 247 308 inlet;
#X obj 232 397 outlet;
#X connect 0 0 4 0;
#X connect 1 0 2 0;
#X connect 2 0 14 0;
#X connect 3 0 7 0;
#X connect 4 0 6 0;
#X connect 5 0 2 0;
#X connect 5 1 2 1;
#X connect 6 0 5 0;
#X connect 7 0 8 0;
#X connect 7 1 9 0;
#X connect 8 0 6 1;
#X connect 9 0 6 1;
#X connect 10 0 0 0;
#X connect 10 1 1 0;
#X connect 10 2 3 0;
#X connect 11 0 10 0;
#X connect 12 0 0 1;
#X connect 13 0 1 1;
#X restore 193 45 pd param-nudge;
#N canvas 0 22 484 497 param-nudge 0;
#X obj 124 234 random;
#X obj 232 335 f;
#X obj 232 368 +;
#X obj 257 166 random 2;
#X obj 124 275 t f f;
#X obj 124 351 t b f;
#X obj 124 297 *;
#X obj 257 188 sel 0 1;
#X msg 257 280 -1;
#X msg 335 280 1;
#X obj 124 149 t b b b;
#X obj 124 123 r NUDGE!;
#X obj 157 193 r NUDGE-RANGE;
#X obj 247 308 inlet;
#X obj 232 397 outlet;
#X connect 0 0 4 0;
#X connect 1 0 2 0;
#X connect 2 0 14 0;
#X connect 3 0 7 0;
#X connect 4 0 6 0;
#X connect 5 0 2 0;
#X connect 5 1 2 1;
#X connect 6 0 5 0;
#X connect 7 0 8 0;
#X connect 7 1 9 0;
#X connect 8 0 6 1;
#X connect 9 0 6 1;
#X connect 10 0 0 0;
#X connect 10 1 1 0;
#X connect 10 2 3 0;
#X connect 11 0 10 0;
#X connect 12 0 0 1;
#X connect 13 0 1 1;
#X restore 346 45 pd param-nudge;
#X obj 23 67 clip 0 127;
#X obj 193 67 clip 0 127;
#X obj 346 69 clip 0 127;
#X obj 23 22 r \$0-analog-filter-cutoff-s;
#X obj 23 95 s \$0-analog-filter-cutoff-r;
#X obj 193 22 r \$0-analog-filter-q-s;
#X obj 193 95 s \$0-analog-filter-q-r;
#X obj 346 22 r \$0-analog-filter-fm-/+-s;
#X obj 346 95 s \$0-analog-filter-fm-/+-r;
#X connect 0 0 3 0;
#X connect 1 0 4 0;
#X connect 2 0 5 0;
#X connect 3 0 7 0;
#X connect 4 0 9 0;
#X connect 5 0 11 0;
#X connect 6 0 0 0;
#X connect 8 0 1 0;
#X connect 10 0 2 0;
#X restore 101 232 pd parameter-nudging-system;
#X obj 830 373 canvasargs;
#X obj 830 338 msgpack \$0-analog-filter-cutoff \$1 \$0-analog-filter-q
\$2 \$0-analog-filter-fm-/+ \$3;
#X obj 830 312 loadbang;
#X connect 1 0 9 0;
#X connect 2 0 33 0;
#X connect 3 0 4 0;
#X connect 4 0 41 0;
#X connect 7 0 64 0;
#X connect 10 0 73 0;
#X connect 11 0 48 0;
#X connect 12 0 0 0;
#X connect 12 0 1 0;
#X connect 13 0 65 0;
#X connect 14 0 67 0;
#X connect 14 1 66 0;
#X connect 15 0 34 0;
#X connect 16 0 75 0;
#X connect 17 0 7 0;
#X connect 20 0 2 0;
#X connect 24 0 25 0;
#X connect 25 0 26 0;
#X connect 26 0 65 1;
#X connect 27 0 28 0;
#X connect 28 0 29 0;
#X connect 29 0 30 0;
#X connect 30 0 31 0;
#X connect 31 0 32 0;
#X connect 32 0 26 1;
#X connect 33 0 14 0;
#X connect 34 0 49 0;
#X connect 35 0 36 0;
#X connect 36 0 37 0;
#X connect 37 0 33 0;
#X connect 37 1 33 1;
#X connect 38 0 36 0;
#X connect 39 0 40 0;
#X connect 40 0 38 0;
#X connect 41 0 1 1;
#X connect 43 0 44 0;
#X connect 44 0 45 0;
#X connect 45 0 46 0;
#X connect 46 0 42 0;
#X connect 47 1 63 0;
#X connect 48 1 51 0;
#X connect 49 0 47 2;
#X connect 49 1 48 2;
#X connect 50 0 52 0;
#X connect 51 0 12 0;
#X connect 52 0 53 0;
#X connect 53 0 54 0;
#X connect 54 0 55 0;
#X connect 55 0 56 0;
#X connect 56 0 51 1;
#X connect 58 0 59 0;
#X connect 58 0 59 1;
#X connect 59 0 60 0;
#X connect 60 0 65 1;
#X connect 63 0 11 0;
#X connect 64 0 13 0;
#X connect 65 0 47 1;
#X connect 65 0 48 1;
#X connect 66 0 3 0;
#X connect 67 0 15 0;
#X connect 71 0 72 0;
#X connect 72 0 74 0;
#X connect 73 0 75 0;
#X connect 75 0 47 0;
#X connect 78 0 77 0;
#X connect 79 0 78 0;
#X coords 0 -1 1 1 175 102 2 100 100;
