#N canvas 441 202 782 741 10;
#X obj 191 461 lop~ 2000;
#X obj 191 487 lop~ 2000;
#X obj 191 514 samphold~;
#X obj 326 313 mtof~;
#X obj 405 242 inlet~;
#X obj 326 281 +~;
#X obj 405 264 *~ 127;
#X obj 326 335 phasor~;
#X obj 326 221 sig~;
#X obj 326 243 lop~ 10;
#X obj 326 379 *~ 2;
#X obj 326 401 -~ 1;
#X obj 191 246 inlet~;
#X obj 326 198 -;
#X msg 326 176 127 \$1;
#X obj 326 357 expr~ $v1 > 0.5;
#X text 403 222 CRUSH CV IN;
#X text 183 223 SIGNAL IN;
#X obj 191 536 lop~ 2000;
#X obj 191 558 lop~ 2000;
#X obj 191 666 outlet~;
#X obj 98 550 *~;
#X obj 107 136 hsl 128 15 0 127 0 1 \$0-bitcrush-dry-s \$0-bitcrush-dry-r
DRY 133 7 0 10 -262144 -1 -1 6700 1;
#X obj 113 260 / 127;
#X obj 113 282 pack 0 50;
#X obj 113 304 line~;
#X obj 191 638 *~ 0.5;
#X obj 326 150 t f;
#X obj 532 238 inlet~;
#X obj 532 260 abs~;
#X obj 113 469 +~;
#X obj 113 491 min~ 1;
#X obj 258 109 cnv 5 5 5 empty empty DRY 0 0 0 8 -262144 -66577 0;
#X obj 105 109 cnv 5 5 5 empty empty IN 0 0 0 8 -262144 -66577 0;
#X obj 175 109 cnv 5 5 5 empty empty CRUSH 0 0 0 8 -262144 -66577 0
;
#X text 534 221 DRY CV IN;
#X obj 104 129 cnv 5 5 5 empty empty BITCRUSH 0 0 0 12 -262144 -66577
0;
#X obj 107 151 hsl 128 15 0 127 0 1 \$0-bitcrush-crush-s \$0-bitcrush-crush-r
CRUSH 133 7 0 10 -262144 -1 -1 4100 1;
#N canvas 297 27 518 295 parameter-nudging-system 0;
#N canvas 0 22 484 497 param-nudge 0;
#X obj 124 234 random;
#X obj 232 335 f;
#X obj 232 368 +;
#X obj 257 166 random 2;
#X obj 124 275 t f f;
#X obj 124 351 t b f;
#X obj 124 297 *;
#X obj 257 188 sel 0 1;
#X msg 257 280 -1;
#X msg 335 280 1;
#X obj 124 149 t b b b;
#X obj 124 123 r NUDGE!;
#X obj 157 193 r NUDGE-RANGE;
#X obj 247 308 inlet;
#X obj 232 397 outlet;
#X floatatom 316 396 5 0 0 0 - - -, f 5;
#X connect 0 0 4 0;
#X connect 1 0 2 0;
#X connect 2 0 14 0;
#X connect 2 0 15 0;
#X connect 3 0 7 0;
#X connect 4 0 6 0;
#X connect 5 0 2 0;
#X connect 5 1 2 1;
#X connect 6 0 5 0;
#X connect 7 0 8 0;
#X connect 7 1 9 0;
#X connect 8 0 6 1;
#X connect 9 0 6 1;
#X connect 10 0 0 0;
#X connect 10 1 1 0;
#X connect 10 2 3 0;
#X connect 11 0 10 0;
#X connect 12 0 0 1;
#X connect 13 0 1 1;
#X restore 23 45 pd param-nudge;
#N canvas 0 22 484 497 param-nudge 0;
#X obj 124 234 random;
#X obj 232 335 f;
#X obj 232 368 +;
#X obj 257 166 random 2;
#X obj 124 275 t f f;
#X obj 124 351 t b f;
#X obj 124 297 *;
#X obj 257 188 sel 0 1;
#X msg 257 280 -1;
#X msg 335 280 1;
#X obj 124 149 t b b b;
#X obj 124 123 r NUDGE!;
#X obj 157 193 r NUDGE-RANGE;
#X obj 247 308 inlet;
#X obj 232 397 outlet;
#X connect 0 0 4 0;
#X connect 1 0 2 0;
#X connect 2 0 14 0;
#X connect 3 0 7 0;
#X connect 4 0 6 0;
#X connect 5 0 2 0;
#X connect 5 1 2 1;
#X connect 6 0 5 0;
#X connect 7 0 8 0;
#X connect 7 1 9 0;
#X connect 8 0 6 1;
#X connect 9 0 6 1;
#X connect 10 0 0 0;
#X connect 10 1 1 0;
#X connect 10 2 3 0;
#X connect 11 0 10 0;
#X connect 12 0 0 1;
#X connect 13 0 1 1;
#X restore 171 45 pd param-nudge;
#X obj 23 67 clip 0 127;
#X obj 171 67 clip 0 127;
#X obj 23 22 r \$0-bitcrush-dry-s;
#X obj 23 95 s \$0-bitcrush-dry-r;
#X obj 171 22 r \$0-bitcrush-crush-s;
#X obj 171 95 s \$0-bitcrush-crush-r;
#X connect 0 0 2 0;
#X connect 1 0 3 0;
#X connect 2 0 5 0;
#X connect 3 0 7 0;
#X connect 4 0 0 0;
#X connect 6 0 1 0;
#X restore 386 100 pd parameter-nudging-system;
#X obj 386 148 canvasargs;
#X obj 386 124 argspack \$0-bitcrush-dry \$1 \$0-bitcrush-crush \$2
;
#X connect 0 0 1 0;
#X connect 1 0 2 0;
#X connect 2 0 18 0;
#X connect 3 0 7 0;
#X connect 4 0 6 0;
#X connect 5 0 3 0;
#X connect 6 0 5 1;
#X connect 7 0 15 0;
#X connect 8 0 9 0;
#X connect 9 0 5 0;
#X connect 10 0 11 0;
#X connect 11 0 2 1;
#X connect 12 0 0 0;
#X connect 12 0 21 0;
#X connect 13 0 8 0;
#X connect 14 0 13 0;
#X connect 15 0 10 0;
#X connect 18 0 19 0;
#X connect 19 0 26 0;
#X connect 21 0 26 0;
#X connect 22 0 23 0;
#X connect 23 0 24 0;
#X connect 24 0 25 0;
#X connect 25 0 30 0;
#X connect 26 0 20 0;
#X connect 27 0 14 0;
#X connect 28 0 29 0;
#X connect 29 0 30 1;
#X connect 30 0 31 0;
#X connect 31 0 21 1;
#X connect 37 0 27 0;
#X connect 40 0 39 0;
#X coords 0 -1 1 1 175 75 2 100 100;
