#N canvas 415 278 1090 753 10;
#X obj 422 172 unpack f f f;
#X obj 109 302 / 127;
#X obj 401 320 / 127;
#X obj 573 306 / 127;
#X obj 109 356 + 5;
#X obj 401 374 + 5;
#X obj 573 360 + 5;
#X obj 573 330 * 45;
#X obj 109 326 * 20;
#X obj 401 344 * 20;
#N canvas 169 22 515 706 formant-frequencies 0;
#X msg 61 638 270 2300 3000;
#X msg 71 606 400 2000 2550;
#X msg 87 578 530 1850 2500;
#X msg 103 549 660 1700 2400;
#X msg 121 519 730 1100 2450;
#X msg 143 488 570 850 2400;
#X msg 155 461 440 1000 2250;
#X msg 176 438 300 850 2250;
#X msg 193 405 640 1200 2400;
#X msg 211 379 490 1350 1700;
#X obj 58 687 outlet;
#X obj 62 37 / 127;
#X obj 62 13 inlet;
#X obj 62 85 i;
#X msg 231 355 300 2800 3300;
#X msg 250 325 430 2500 3100;
#X msg 262 302 600 2350 3000;
#X msg 277 277 860 2050 2850;
#X msg 296 252 850 1200 2800;
#X msg 310 230 590 900 2700;
#X msg 328 205 470 1150 2700;
#X msg 345 181 370 950 2650;
#X msg 361 156 760 1400 2800;
#X msg 378 135 500 1650 1950;
#X obj 62 111 route 1 2 3 4 5 6 7 8 9 10 11 12 13 14 15 16 17 18 19
20;
#X obj 62 62 * 20;
#X connect 0 0 10 0;
#X connect 1 0 10 0;
#X connect 2 0 10 0;
#X connect 3 0 10 0;
#X connect 4 0 10 0;
#X connect 5 0 10 0;
#X connect 6 0 10 0;
#X connect 7 0 10 0;
#X connect 8 0 10 0;
#X connect 9 0 10 0;
#X connect 11 0 25 0;
#X connect 12 0 11 0;
#X connect 13 0 24 0;
#X connect 14 0 10 0;
#X connect 15 0 10 0;
#X connect 16 0 10 0;
#X connect 17 0 10 0;
#X connect 18 0 10 0;
#X connect 19 0 10 0;
#X connect 20 0 10 0;
#X connect 21 0 10 0;
#X connect 22 0 10 0;
#X connect 23 0 10 0;
#X connect 24 0 0 0;
#X connect 24 1 1 0;
#X connect 24 2 2 0;
#X connect 24 3 3 0;
#X connect 24 4 4 0;
#X connect 24 5 5 0;
#X connect 24 6 6 0;
#X connect 24 7 7 0;
#X connect 24 8 8 0;
#X connect 24 9 9 0;
#X connect 24 10 14 0;
#X connect 24 11 15 0;
#X connect 24 12 16 0;
#X connect 24 13 17 0;
#X connect 24 14 18 0;
#X connect 24 15 19 0;
#X connect 24 16 20 0;
#X connect 24 17 21 0;
#X connect 24 18 22 0;
#X connect 24 19 23 0;
#X connect 25 0 13 0;
#X restore 422 147 pd formant-frequencies;
#X obj 105 151 hsl 128 15 0 127 0 0 \$0-formant-q-s \$0-formant-q-r
Q 133 7 0 10 -262144 -1 -1 0 1;
#X obj 109 279 t f f f;
#X obj 105 136 hsl 128 15 0 127 0 0 \$0-formant-formants-s \$0-formant-formants-r
VOWELS 133 7 0 10 -262144 -1 -1 0 1;
#X obj 52 457 vcf~ 207 5;
#X obj 52 501 vcf~ 207 5;
#X obj 53 558 vcf~ 207 5;
#X obj 332 421 vcf~ 2300 20;
#X obj 332 463 vcf~ 2300 20;
#X obj 332 509 vcf~ 2300 20;
#X obj 504 406 vcf~ 3000 50;
#X obj 504 434 vcf~ 3000 50;
#X obj 504 557 vcf~ 3000 50;
#X obj 422 226 line~;
#X obj 504 220 line~;
#X obj 575 218 line~;
#X obj 332 686 outlet~;
#X obj 422 200 pack 0 50;
#X obj 505 198 pack 0 50;
#X obj 575 196 pack 0 50;
#X obj 109 381 t f f f;
#X obj 401 396 t f f f;
#X obj 573 382 t f f f;
#X obj 158 129 cnv 5 5 5 empty empty FILTER 0 0 0 12 -262144 -66577
0;
#X obj 243 109 cnv 5 5 5 empty empty VOWELS 0 0 0 8 -262144 -66577
0;
#X obj 103 129 cnv 5 5 5 empty empty FORMANT 0 0 0 12 -262144 -66577
0;
#X obj 422 103 +;
#X obj 483 20 inlet~;
#X obj 483 42 *~ 127;
#X obj 483 64 snapshot~;
#X obj 483 86 t b f;
#X obj 422 125 moses 127;
#X obj 547 47 bang~;
#X obj 105 109 cnv 5 5 5 empty empty IN 0 0 0 8 -262144 -66577 0;
#X obj 332 81 inlet~;
#X obj 332 190 lop~ 2000;
#X obj 332 169 lop~ 2000;
#X obj 332 148 lop~ 2000;
#X obj 332 126 lop~ 2000;
#X obj 332 610 clip~ -1 1;
#X obj 332 574 *~ 2.25;
#X text 325 61 SIGNAL IN;
#X text 526 20 FORMANTS CV IN;
#N canvas 297 27 518 295 parameter-nudging-system 0;
#N canvas 0 22 484 497 param-nudge 0;
#X obj 124 234 random;
#X obj 232 335 f;
#X obj 232 368 +;
#X obj 257 166 random 2;
#X obj 124 275 t f f;
#X obj 124 351 t b f;
#X obj 124 297 *;
#X obj 257 188 sel 0 1;
#X msg 257 280 -1;
#X msg 335 280 1;
#X obj 124 149 t b b b;
#X obj 124 123 r NUDGE!;
#X obj 157 193 r NUDGE-RANGE;
#X obj 247 308 inlet;
#X obj 232 397 outlet;
#X floatatom 316 396 5 0 0 0 - - -, f 5;
#X connect 0 0 4 0;
#X connect 1 0 2 0;
#X connect 2 0 14 0;
#X connect 2 0 15 0;
#X connect 3 0 7 0;
#X connect 4 0 6 0;
#X connect 5 0 2 0;
#X connect 5 1 2 1;
#X connect 6 0 5 0;
#X connect 7 0 8 0;
#X connect 7 1 9 0;
#X connect 8 0 6 1;
#X connect 9 0 6 1;
#X connect 10 0 0 0;
#X connect 10 1 1 0;
#X connect 10 2 3 0;
#X connect 11 0 10 0;
#X connect 12 0 0 1;
#X connect 13 0 1 1;
#X restore 23 45 pd param-nudge;
#N canvas 0 22 484 497 param-nudge 0;
#X obj 124 234 random;
#X obj 232 335 f;
#X obj 232 368 +;
#X obj 257 166 random 2;
#X obj 124 275 t f f;
#X obj 124 351 t b f;
#X obj 124 297 *;
#X obj 257 188 sel 0 1;
#X msg 257 280 -1;
#X msg 335 280 1;
#X obj 124 149 t b b b;
#X obj 124 123 r NUDGE!;
#X obj 157 193 r NUDGE-RANGE;
#X obj 247 308 inlet;
#X obj 232 397 outlet;
#X connect 0 0 4 0;
#X connect 1 0 2 0;
#X connect 2 0 14 0;
#X connect 3 0 7 0;
#X connect 4 0 6 0;
#X connect 5 0 2 0;
#X connect 5 1 2 1;
#X connect 6 0 5 0;
#X connect 7 0 8 0;
#X connect 7 1 9 0;
#X connect 8 0 6 1;
#X connect 9 0 6 1;
#X connect 10 0 0 0;
#X connect 10 1 1 0;
#X connect 10 2 3 0;
#X connect 11 0 10 0;
#X connect 12 0 0 1;
#X connect 13 0 1 1;
#X restore 171 45 pd param-nudge;
#X obj 23 67 clip 0 127;
#X obj 171 67 clip 0 127;
#X obj 23 22 r \$0-formant-formants-s;
#X obj 23 95 s \$0-formant-formants-r;
#X obj 171 22 r \$0-formant-q-s;
#X obj 171 95 s \$0-formant-q-r;
#X connect 0 0 2 0;
#X connect 1 0 3 0;
#X connect 2 0 5 0;
#X connect 3 0 7 0;
#X connect 4 0 0 0;
#X connect 6 0 1 0;
#X restore 100 56 pd parameter-nudging-system;
#X obj 721 125 r \$0-formant-formants-s;
#X obj 706 182 f;
#X obj 706 204 s \$0-formant-formants-r;
#X obj 706 64 loadbang;
#X obj 706 86 delay 300;
#X obj 705 306 canvasargs;
#X obj 705 271 msgpack \$0-formant-formants \$1 \$0-formant-q \$2;
#X obj 705 240 loadbang;
#X connect 0 0 27 0;
#X connect 0 1 28 0;
#X connect 0 2 29 0;
#X connect 1 0 8 0;
#X connect 2 0 9 0;
#X connect 3 0 7 0;
#X connect 4 0 30 0;
#X connect 5 0 31 0;
#X connect 6 0 32 0;
#X connect 7 0 6 0;
#X connect 8 0 4 0;
#X connect 9 0 5 0;
#X connect 10 0 0 0;
#X connect 11 0 12 0;
#X connect 12 0 1 0;
#X connect 12 1 2 0;
#X connect 12 2 3 0;
#X connect 13 0 36 0;
#X connect 14 0 15 0;
#X connect 15 0 16 0;
#X connect 16 0 50 0;
#X connect 17 0 18 0;
#X connect 18 0 19 0;
#X connect 19 0 50 0;
#X connect 20 0 21 0;
#X connect 21 0 22 0;
#X connect 22 0 50 0;
#X connect 23 0 14 1;
#X connect 23 0 15 1;
#X connect 23 0 16 1;
#X connect 24 0 17 1;
#X connect 24 0 18 1;
#X connect 24 0 19 1;
#X connect 25 0 20 1;
#X connect 25 0 21 1;
#X connect 25 0 22 1;
#X connect 27 0 23 0;
#X connect 28 0 24 0;
#X connect 29 0 25 0;
#X connect 30 0 14 2;
#X connect 30 1 15 2;
#X connect 30 2 16 2;
#X connect 31 0 17 2;
#X connect 31 1 18 2;
#X connect 31 2 19 2;
#X connect 32 0 20 2;
#X connect 32 1 21 2;
#X connect 32 2 22 2;
#X connect 36 0 41 0;
#X connect 37 0 38 0;
#X connect 38 0 39 0;
#X connect 39 0 40 0;
#X connect 40 0 36 0;
#X connect 40 1 36 1;
#X connect 41 0 10 0;
#X connect 42 0 39 0;
#X connect 44 0 48 0;
#X connect 45 0 14 0;
#X connect 45 0 17 0;
#X connect 45 0 20 0;
#X connect 46 0 45 0;
#X connect 47 0 46 0;
#X connect 48 0 47 0;
#X connect 49 0 26 0;
#X connect 50 0 49 0;
#X connect 54 0 55 1;
#X connect 55 0 56 0;
#X connect 57 0 58 0;
#X connect 58 0 55 0;
#X connect 60 0 59 0;
#X connect 61 0 60 0;
#X coords 0 -1 1 1 175 75 2 100 100;
