#N canvas 453 381 1014 547 10;
#X obj 310 179 inlet~;
#X obj 311 338 hip~;
#X obj 106 128 hsl 128 15 0 127 0 0 \$0-highpass-freq-s \$0-highpass-freq-r
FREQ 133 7 0 10 -262144 -1 -1 0 1;
#X obj 129 210 / 127;
#X obj 129 278 pack 0 50;
#X obj 129 300 line;
#X obj 311 399 min~ 1;
#X obj 311 421 max~ -1;
#X obj 311 443 outlet~;
#X obj 129 232 * 9950;
#X obj 103 109 cnv 5 5 5 empty empty IN 0 0 0 8 -262144 -66577 0;
#X obj 529 130 inlet~;
#X obj 106 143 hsl 128 15 0 127 0 0 \$0-highpass-fm-/+-s \$0-highpass-fm-/+-r
FM-/+ 133 7 0 10 -245500 -1 -1 0 1;
#X obj 597 71 / 127;
#X obj 597 93 * 2;
#X obj 597 115 - 1;
#X obj 597 159 pack 0 50;
#X obj 597 181 line~;
#X floatatom 106 159 5 0 0 0 - - -, f 5;
#X obj 529 198 *~;
#X text 555 202 FM-/+ ATTENUEVERTER;
#X obj 597 137 t f f;
#X obj 248 109 cnv 5 5 5 empty empty FREQ 0 0 0 8 -262144 -96927 0
;
#X obj 162 120 cnv 5 5 5 empty empty FILTER 0 0 0 12 -262144 -66577
0;
#X obj 103 120 cnv 5 5 5 empty empty HIGHPASS 0 0 0 12 -262144 -66577
0;
#X obj 529 163 *~ 10000;
#X obj 362 249 snapshot~;
#X obj 362 271 t b f;
#X obj 376 204 bang~;
#X obj 129 254 + 100;
#X obj 332 315 +;
#X obj 311 373 *~ 1;
#N canvas 297 27 518 295 parameter-nudging-system 0;
#N canvas 0 22 484 497 param-nudge 0;
#X obj 124 234 random;
#X obj 232 335 f;
#X obj 232 368 +;
#X obj 257 166 random 2;
#X obj 124 275 t f f;
#X obj 124 351 t b f;
#X obj 124 297 *;
#X obj 257 188 sel 0 1;
#X msg 257 280 -1;
#X msg 335 280 1;
#X obj 124 149 t b b b;
#X obj 124 123 r NUDGE!;
#X obj 157 193 r NUDGE-RANGE;
#X obj 247 308 inlet;
#X obj 232 397 outlet;
#X floatatom 316 396 5 0 0 0 - - -, f 5;
#X connect 0 0 4 0;
#X connect 1 0 2 0;
#X connect 2 0 14 0;
#X connect 2 0 15 0;
#X connect 3 0 7 0;
#X connect 4 0 6 0;
#X connect 5 0 2 0;
#X connect 5 1 2 1;
#X connect 6 0 5 0;
#X connect 7 0 8 0;
#X connect 7 1 9 0;
#X connect 8 0 6 1;
#X connect 9 0 6 1;
#X connect 10 0 0 0;
#X connect 10 1 1 0;
#X connect 10 2 3 0;
#X connect 11 0 10 0;
#X connect 12 0 0 1;
#X connect 13 0 1 1;
#X restore 23 45 pd param-nudge;
#N canvas 0 22 484 497 param-nudge 0;
#X obj 124 234 random;
#X obj 232 335 f;
#X obj 232 368 +;
#X obj 257 166 random 2;
#X obj 124 275 t f f;
#X obj 124 351 t b f;
#X obj 124 297 *;
#X obj 257 188 sel 0 1;
#X msg 257 280 -1;
#X msg 335 280 1;
#X obj 124 149 t b b b;
#X obj 124 123 r NUDGE!;
#X obj 157 193 r NUDGE-RANGE;
#X obj 247 308 inlet;
#X obj 232 397 outlet;
#X connect 0 0 4 0;
#X connect 1 0 2 0;
#X connect 2 0 14 0;
#X connect 3 0 7 0;
#X connect 4 0 6 0;
#X connect 5 0 2 0;
#X connect 5 1 2 1;
#X connect 6 0 5 0;
#X connect 7 0 8 0;
#X connect 7 1 9 0;
#X connect 8 0 6 1;
#X connect 9 0 6 1;
#X connect 10 0 0 0;
#X connect 10 1 1 0;
#X connect 10 2 3 0;
#X connect 11 0 10 0;
#X connect 12 0 0 1;
#X connect 13 0 1 1;
#X restore 171 45 pd param-nudge;
#X obj 23 67 clip 0 127;
#X obj 171 67 clip 0 127;
#X obj 23 22 r \$0-highpass-freq-s;
#X obj 23 95 s \$0-highpass-freq-r;
#X obj 171 22 r \$0-highpass-fm-/+-s;
#X obj 171 95 s \$0-highpass-fm-/+-r;
#X connect 0 0 2 0;
#X connect 1 0 3 0;
#X connect 2 0 5 0;
#X connect 3 0 7 0;
#X connect 4 0 0 0;
#X connect 6 0 1 0;
#X restore 103 65 pd parameter-nudging-system;
#X obj 485 325 canvasargs;
#X obj 485 294 msgpack \$0-highpass-freq \$1 \$0-highpass-fm-/+ \$2
;
#X obj 485 264 loadbang;
#X connect 0 0 1 0;
#X connect 1 0 31 0;
#X connect 2 0 3 0;
#X connect 3 0 9 0;
#X connect 4 0 5 0;
#X connect 5 0 30 0;
#X connect 6 0 7 0;
#X connect 7 0 8 0;
#X connect 9 0 29 0;
#X connect 11 0 25 0;
#X connect 12 0 13 0;
#X connect 13 0 14 0;
#X connect 14 0 15 0;
#X connect 15 0 21 0;
#X connect 16 0 17 0;
#X connect 17 0 19 1;
#X connect 19 0 26 0;
#X connect 21 0 16 0;
#X connect 21 1 18 0;
#X connect 25 0 19 0;
#X connect 26 0 27 0;
#X connect 27 0 30 0;
#X connect 27 1 30 1;
#X connect 28 0 26 0;
#X connect 29 0 4 0;
#X connect 30 0 1 1;
#X connect 31 0 6 0;
#X connect 34 0 33 0;
#X connect 35 0 34 0;
#X coords 0 -1 1 1 175 80 2 100 100;
