#N canvas 809 286 808 683 10;
#N canvas 0 22 585 577 filter-vcf 0;
#X obj 186 106 inlet~;
#X obj 252 473 outlet~;
#X obj 34 159 *~;
#X obj 430 19 inlet;
#X obj 430 120 pack 0 50;
#X obj 430 142 line~;
#X obj 252 449 clip~ -1 1;
#X obj 252 323 *~ 2;
#X obj 337 362 *~ 2;
#X obj 252 421 *~ 0.5;
#X obj 74 438 *~ -1;
#X obj 270 299 vcf~ 1;
#X obj 304 333 vcf~ 1;
#X obj 524 236 pack 0 50;
#X obj 524 258 line;
#X obj 524 192 * 5;
#X obj 524 280 t f f;
#X obj 430 63 t f f f;
#X obj 186 269 vcf~ 1;
#X obj 391 225 pack 0 50;
#X obj 391 247 line;
#X obj 391 269 t f f;
#X obj 219 298 vcf~ 1;
#X obj 391 181 * 3;
#X obj 285 110 inlet~;
#X obj 290 243 +~ 10;
#X obj 74 469 delwrite~ \$0-feedfeed2 1;
#X obj 34 92 delread~ \$0-feedfeed2 1;
#X obj 186 78 block~ 64;
#X obj 33 128 lop~ 10000, f 12;
#X obj 430 96 * 0.99;
#X obj 391 203 + 1.5;
#X obj 524 214 + 1.5;
#X connect 0 0 11 0;
#X connect 0 0 18 0;
#X connect 2 0 18 0;
#X connect 3 0 17 0;
#X connect 4 0 5 0;
#X connect 5 0 2 1;
#X connect 6 0 1 0;
#X connect 7 0 9 0;
#X connect 7 0 10 0;
#X connect 8 0 9 0;
#X connect 8 0 26 0;
#X connect 9 0 6 0;
#X connect 10 0 26 0;
#X connect 11 1 12 0;
#X connect 12 1 8 0;
#X connect 13 0 14 0;
#X connect 14 0 16 0;
#X connect 15 0 32 0;
#X connect 16 0 11 2;
#X connect 16 1 12 2;
#X connect 17 0 30 0;
#X connect 17 1 15 0;
#X connect 17 2 23 0;
#X connect 18 1 22 0;
#X connect 19 0 20 0;
#X connect 20 0 21 0;
#X connect 21 0 18 2;
#X connect 22 1 7 0;
#X connect 23 0 31 0;
#X connect 24 0 18 1;
#X connect 24 0 22 1;
#X connect 24 0 25 0;
#X connect 25 0 11 1;
#X connect 25 0 12 1;
#X connect 27 0 29 0;
#X connect 29 0 2 0;
#X connect 30 0 4 0;
#X connect 31 0 19 0;
#X connect 32 0 13 0;
#X restore 310 399 pd filter-vcf;
#X obj 309 31 inlet~;
#X obj 310 534 outlet~;
#X obj 518 104 inlet~;
#X obj 106 167 hsl 128 15 0 127 0 0 \$0-lp-filter2-fm--/+-s \$0-lp-filter2-fm--/+-r
FM-/+ 133 7 0 10 -245500 -1 -1 4500 1;
#X obj 346 84 r \$0-lp-filter2-cutoff-s;
#X obj 346 107 / 127;
#X obj 346 154 pack 0 50;
#X obj 346 176 line~;
#X obj 346 198 +~;
#X obj 346 242 +~ 1;
#X obj 518 181 *~;
#X obj 44 283 hsl 128 15 0 127 0 0 \$0-lp-filter2-gain-s \$0-lp-filter2-gain-r
GAIN 133 7 0 10 -262144 -1 -1 0 1;
#X obj 584 23 r \$0-lp-filter2-fm--/+-s;
#X obj 584 45 / 127;
#X obj 584 67 * 2;
#X obj 584 89 - 1;
#X obj 584 142 pack 0 50;
#X obj 584 164 line~;
#X obj 106 137 hsl 128 15 0 127 0 0 \$0-lp-filter2-cutoff-s \$0-lp-filter2-cutoff-r
CUTOFF 133 7 0 10 -262144 -1 -1 7800 1;
#X obj 384 240 r \$0-lp-filter2-q-s;
#X obj 384 262 / 127;
#X obj 384 312 +;
#X obj 592 251 inlet~;
#X obj 593 273 snapshot~;
#X obj 593 295 t b f;
#X obj 658 234 loadbang;
#X obj 658 256 metro 20;
#X obj 105 109 cnv 5 5 5 empty empty IN 0 0 0 8 -262144 -66577 0;
#X obj 173 109 cnv 5 5 5 empty empty CUTOFF 0 0 0 8 -262144 -2406 0
;
#X obj 104 128 cnv 5 5 5 empty empty LP-FILTER 0 0 0 12 -262144 -66577
0;
#X obj 258 109 cnv 5 5 5 empty empty Q 0 0 0 8 -262144 -66577 0;
#X floatatom 106 183 5 0 0 0 - - -, f 5;
#X obj 584 111 t f f;
#X obj 346 220 *~ 5000;
#X obj 309 53 *~ 0.5;
#N canvas 297 27 518 295 parameter-nudging-system 0;
#N canvas 0 22 484 497 param-nudge 0;
#X obj 124 234 random;
#X obj 232 335 f;
#X obj 232 368 +;
#X obj 257 166 random 2;
#X obj 124 275 t f f;
#X obj 124 351 t b f;
#X obj 124 297 *;
#X obj 257 188 sel 0 1;
#X msg 257 280 -1;
#X msg 335 280 1;
#X obj 124 149 t b b b;
#X obj 124 123 r NUDGE!;
#X obj 157 193 r NUDGE-RANGE;
#X obj 247 308 inlet;
#X obj 232 397 outlet;
#X floatatom 316 396 5 0 0 0 - - -, f 5;
#X connect 0 0 4 0;
#X connect 1 0 2 0;
#X connect 2 0 14 0;
#X connect 2 0 15 0;
#X connect 3 0 7 0;
#X connect 4 0 6 0;
#X connect 5 0 2 0;
#X connect 5 1 2 1;
#X connect 6 0 5 0;
#X connect 7 0 8 0;
#X connect 7 1 9 0;
#X connect 8 0 6 1;
#X connect 9 0 6 1;
#X connect 10 0 0 0;
#X connect 10 1 1 0;
#X connect 10 2 3 0;
#X connect 11 0 10 0;
#X connect 12 0 0 1;
#X connect 13 0 1 1;
#X restore 23 45 pd param-nudge;
#N canvas 0 22 484 497 param-nudge 0;
#X obj 124 234 random;
#X obj 232 335 f;
#X obj 232 368 +;
#X obj 257 166 random 2;
#X obj 124 275 t f f;
#X obj 124 351 t b f;
#X obj 124 297 *;
#X obj 257 188 sel 0 1;
#X msg 257 280 -1;
#X msg 335 280 1;
#X obj 124 149 t b b b;
#X obj 124 123 r NUDGE!;
#X obj 157 193 r NUDGE-RANGE;
#X obj 247 308 inlet;
#X obj 232 397 outlet;
#X connect 0 0 4 0;
#X connect 1 0 2 0;
#X connect 2 0 14 0;
#X connect 3 0 7 0;
#X connect 4 0 6 0;
#X connect 5 0 2 0;
#X connect 5 1 2 1;
#X connect 6 0 5 0;
#X connect 7 0 8 0;
#X connect 7 1 9 0;
#X connect 8 0 6 1;
#X connect 9 0 6 1;
#X connect 10 0 0 0;
#X connect 10 1 1 0;
#X connect 10 2 3 0;
#X connect 11 0 10 0;
#X connect 12 0 0 1;
#X connect 13 0 1 1;
#X restore 182 45 pd param-nudge;
#N canvas 0 22 484 497 param-nudge 0;
#X obj 124 234 random;
#X obj 232 335 f;
#X obj 232 368 +;
#X obj 257 166 random 2;
#X obj 124 275 t f f;
#X obj 124 351 t b f;
#X obj 124 297 *;
#X obj 257 188 sel 0 1;
#X msg 257 280 -1;
#X msg 335 280 1;
#X obj 124 149 t b b b;
#X obj 124 123 r NUDGE!;
#X obj 157 193 r NUDGE-RANGE;
#X obj 247 308 inlet;
#X obj 232 397 outlet;
#X connect 0 0 4 0;
#X connect 1 0 2 0;
#X connect 2 0 14 0;
#X connect 3 0 7 0;
#X connect 4 0 6 0;
#X connect 5 0 2 0;
#X connect 5 1 2 1;
#X connect 6 0 5 0;
#X connect 7 0 8 0;
#X connect 7 1 9 0;
#X connect 8 0 6 1;
#X connect 9 0 6 1;
#X connect 10 0 0 0;
#X connect 10 1 1 0;
#X connect 10 2 3 0;
#X connect 11 0 10 0;
#X connect 12 0 0 1;
#X connect 13 0 1 1;
#X restore 320 45 pd param-nudge;
#X obj 23 67 clip 0 127;
#X obj 182 67 clip 0 127;
#X obj 320 69 clip 0 127;
#X obj 23 22 r \$0-lp-filter2-cutoff-s;
#X obj 23 95 s \$0-lp-filter2-cutoff-r;
#X obj 182 22 r \$0-lp-filter2-q-s;
#X obj 182 95 s \$0-lp-filter2-q-r;
#X obj 320 22 r \$0-lp-filter2-fm--/+-s;
#X obj 320 95 s \$0-lp-filter2-fm--/+-r;
#X connect 0 0 3 0;
#X connect 1 0 4 0;
#X connect 2 0 5 0;
#X connect 3 0 7 0;
#X connect 4 0 9 0;
#X connect 5 0 11 0;
#X connect 6 0 0 0;
#X connect 8 0 1 0;
#X connect 10 0 2 0;
#X restore 44 249 pd parameter-nudging-system;
#X obj 106 152 hsl 128 15 0 127 0 0 \$0-lp-filter2-q-s \$0-lp-filter2-q-r
Q 133 7 0 10 -262144 -1 -1 6900 1;
#X obj 426 362 r \$0-lp-filter2-gain-s;
#X obj 426 384 * 0.00787402;
#X obj 426 406 + 1;
#X obj 426 428 pack 0 50;
#X obj 426 450 line~;
#X obj 310 497 clip~ -1 1;
#X obj 310 466 *~ 2;
#X obj 422 532 canvasargs;
#X obj 422 494 argspack \$0-lp-filter2-cutoff \$1 \$0-lp-filter2-q
\$2 \$0-lp-filter2-fm--/+ \$3;
#X connect 0 0 44 0;
#X connect 1 0 35 0;
#X connect 3 0 11 0;
#X connect 5 0 6 0;
#X connect 6 0 7 0;
#X connect 7 0 8 0;
#X connect 8 0 9 0;
#X connect 9 0 34 0;
#X connect 10 0 0 1;
#X connect 11 0 9 1;
#X connect 13 0 14 0;
#X connect 14 0 15 0;
#X connect 15 0 16 0;
#X connect 16 0 33 0;
#X connect 17 0 18 0;
#X connect 18 0 11 1;
#X connect 20 0 21 0;
#X connect 21 0 22 0;
#X connect 22 0 0 2;
#X connect 23 0 24 0;
#X connect 24 0 25 0;
#X connect 25 0 22 0;
#X connect 25 1 22 1;
#X connect 26 0 27 0;
#X connect 27 0 24 0;
#X connect 33 0 17 0;
#X connect 33 1 32 0;
#X connect 34 0 10 0;
#X connect 35 0 0 0;
#X connect 38 0 39 0;
#X connect 39 0 40 0;
#X connect 40 0 41 0;
#X connect 41 0 42 0;
#X connect 43 0 2 0;
#X connect 44 0 43 0;
#X connect 46 0 45 0;
#X coords 0 -1 1 1 175 104 2 100 100;
