#N canvas 352 68 980 743 10;
#X obj 303 45 inlet~;
#X obj 302 373 *~;
#X obj 302 463 clip~ -1 1;
#X obj 302 662 outlet~;
#X obj 108 147 hsl 128 15 0 127 0 1 \$0-overdrive-tone-s \$0-overdrive-tone-r
TONE 135 7 0 10 -262144 -1 -1 0 1;
#X obj 317 305 pack 0 50;
#X obj 317 327 line~;
#X obj 317 349 +~;
#X obj 382 310 inlet~ DRIVE-CV;
#X obj 108 132 hsl 128 15 0 127 0 1 \$0-overdrive-drive-s \$0-overdrive-drive-r
DRIVE 135 7 0 10 -262144 -1 -1 0 1;
#X obj 604 243 * 0.00787402;
#X obj 604 267 * 9900;
#X obj 604 289 + 100;
#X obj 317 217 r \$0-overdrive-drive-s;
#X obj 317 239 * 0.00787402;
#X obj 302 417 lop~;
#X obj 302 439 lop~;
#X obj 302 515 lop~;
#X obj 302 537 lop~;
#X obj 604 333 line;
#X obj 604 400 t f f f f;
#X obj 105 123 cnv 5 5 5 empty empty OVERDRIVE 0 0 0 12 -262144 -66577
0;
#X obj 176 109 cnv 5 5 5 empty empty DRIVE 0 0 0 8 -262144 -66577 0
;
#X obj 104 109 cnv 5 5 5 empty empty IN 0 0 0 8 -262144 -66577 0;
#X obj 252 108 cnv 5 5 5 empty empty TONE 0 0 0 8 -262144 -66577 0
;
#N canvas 297 27 518 295 parameter-nudging-system 0;
#N canvas 0 22 484 497 param-nudge 0;
#X obj 124 234 random;
#X obj 232 335 f;
#X obj 232 368 +;
#X obj 257 166 random 2;
#X obj 124 275 t f f;
#X obj 124 351 t b f;
#X obj 124 297 *;
#X obj 257 188 sel 0 1;
#X msg 257 280 -1;
#X msg 335 280 1;
#X obj 124 149 t b b b;
#X obj 124 123 r NUDGE!;
#X obj 157 193 r NUDGE-RANGE;
#X obj 247 308 inlet;
#X obj 232 397 outlet;
#X floatatom 316 396 5 0 0 0 - - -, f 5;
#X connect 0 0 4 0;
#X connect 1 0 2 0;
#X connect 2 0 14 0;
#X connect 2 0 15 0;
#X connect 3 0 7 0;
#X connect 4 0 6 0;
#X connect 5 0 2 0;
#X connect 5 1 2 1;
#X connect 6 0 5 0;
#X connect 7 0 8 0;
#X connect 7 1 9 0;
#X connect 8 0 6 1;
#X connect 9 0 6 1;
#X connect 10 0 0 0;
#X connect 10 1 1 0;
#X connect 10 2 3 0;
#X connect 11 0 10 0;
#X connect 12 0 0 1;
#X connect 13 0 1 1;
#X restore 23 45 pd param-nudge;
#N canvas 0 22 484 497 param-nudge 0;
#X obj 124 234 random;
#X obj 232 335 f;
#X obj 232 368 +;
#X obj 257 166 random 2;
#X obj 124 275 t f f;
#X obj 124 351 t b f;
#X obj 124 297 *;
#X obj 257 188 sel 0 1;
#X msg 257 280 -1;
#X msg 335 280 1;
#X obj 124 149 t b b b;
#X obj 124 123 r NUDGE!;
#X obj 157 193 r NUDGE-RANGE;
#X obj 247 308 inlet;
#X obj 232 397 outlet;
#X connect 0 0 4 0;
#X connect 1 0 2 0;
#X connect 2 0 14 0;
#X connect 3 0 7 0;
#X connect 4 0 6 0;
#X connect 5 0 2 0;
#X connect 5 1 2 1;
#X connect 6 0 5 0;
#X connect 7 0 8 0;
#X connect 7 1 9 0;
#X connect 8 0 6 1;
#X connect 9 0 6 1;
#X connect 10 0 0 0;
#X connect 10 1 1 0;
#X connect 10 2 3 0;
#X connect 11 0 10 0;
#X connect 12 0 0 1;
#X connect 13 0 1 1;
#X restore 171 45 pd param-nudge;
#X obj 23 67 clip 0 127;
#X obj 171 67 clip 0 127;
#X obj 171 22 r \$0-overdrive-tone-s;
#X obj 171 95 s \$0-overdrive-tone-r;
#X obj 23 22 r \$0-overdrive-drive-s;
#X obj 23 95 s \$0-overdrive-drive-r;
#X connect 0 0 2 0;
#X connect 1 0 3 0;
#X connect 2 0 7 0;
#X connect 3 0 5 0;
#X connect 4 0 1 0;
#X connect 6 0 0 0;
#X restore 34 66 pd parameter-nudging-system;
#X obj 725 56 inlet~ TONE-CV;
#X obj 725 166 snapshot~;
#X obj 604 355 +;
#X obj 604 377 clip 100 10000;
#X obj 833 105 env~;
#X obj 833 127 change;
#X obj 833 149 t b;
#X obj 604 218 r \$0-overdrive-tone-s;
#X obj 303 195 hip~;
#X obj 369 46 / 127;
#X obj 369 68 * 450;
#X obj 369 90 + 50;
#X obj 302 492 expr~ $v1-pow($v1 \, 3)/3;
#X obj 302 615 biquad~ 1.923 -0.92564 0.985317 -1.923 0.940323;
#X obj 369 20 r \$0-overdrive-tone-s;
#X obj 369 134 line;
#X obj 369 156 +;
#X obj 369 178 clip 50 500;
#X obj 674 433 / 127;
#X obj 674 455 * 480;
#X obj 674 477 + 20;
#X obj 725 188 s \$0-overdrive-tone-cv;
#X obj 673 265 r \$0-overdrive-tone-cv;
#X obj 673 288 * 9900;
#X obj 673 338 t b f;
#X obj 436 73 r \$0-overdrive-tone-cv;
#X obj 436 95 * 450;
#X obj 436 139 t b f;
#X obj 674 543 +;
#X obj 674 565 t f f;
#X obj 674 408 r \$0-overdrive-tone-s;
#X obj 746 482 r \$0-overdrive-tone-cv;
#X obj 746 504 * 480;
#X obj 746 526 t b f;
#X obj 302 640 clip~ -1 1;
#X obj 317 283 + 2;
#X obj 369 112 pack 0 50;
#X obj 604 311 pack 0 50;
#X obj 674 499 pack 0 50;
#X obj 302 565 hip~;
#X obj 302 587 hip~;
#X obj 674 521 t f f;
#X obj 674 587 sig~;
#X obj 674 609 lop~ 10;
#X obj 674 631 snapshot~;
#X obj 674 653 t f f;
#X obj 769 614 bang~;
#X msg 871 213 0;
#X obj 871 187 sel 0;
#X obj 871 235 s \$0-cv-rst;
#X obj 719 289 r \$0-cv-rst;
#X obj 796 539 r \$0-cv-rst;
#X obj 479 95 r \$0-cv-rst;
#X obj 725 78 lop~ 100;
#X obj 317 261 * 499;
#X obj 382 332 *~ 499;
#X obj 302 395 +~ 0.1;
#X obj 33 17 argspack \$0-overdrive-drive \$1 \$0-overdrive-tone \$2
;
#X obj 33 42 canvasargs;
#X connect 0 0 34 0;
#X connect 1 0 82 0;
#X connect 2 0 38 0;
#X connect 5 0 6 0;
#X connect 6 0 7 0;
#X connect 7 0 1 1;
#X connect 8 0 81 0;
#X connect 10 0 11 0;
#X connect 11 0 12 0;
#X connect 12 0 63 0;
#X connect 13 0 14 0;
#X connect 14 0 80 0;
#X connect 15 0 16 0;
#X connect 16 0 2 0;
#X connect 17 0 18 0;
#X connect 18 0 65 0;
#X connect 19 0 28 0;
#X connect 20 0 15 1;
#X connect 20 1 16 1;
#X connect 20 2 17 1;
#X connect 20 3 18 1;
#X connect 26 0 30 0;
#X connect 26 0 79 0;
#X connect 27 0 47 0;
#X connect 28 0 29 0;
#X connect 29 0 20 0;
#X connect 30 0 31 0;
#X connect 31 0 32 0;
#X connect 31 0 74 0;
#X connect 32 0 27 0;
#X connect 33 0 10 0;
#X connect 34 0 1 0;
#X connect 35 0 36 0;
#X connect 36 0 37 0;
#X connect 37 0 62 0;
#X connect 38 0 17 0;
#X connect 39 0 60 0;
#X connect 40 0 35 0;
#X connect 41 0 42 0;
#X connect 42 0 43 0;
#X connect 43 0 34 1;
#X connect 44 0 45 0;
#X connect 45 0 46 0;
#X connect 46 0 64 0;
#X connect 48 0 49 0;
#X connect 49 0 50 0;
#X connect 50 0 28 0;
#X connect 50 1 28 1;
#X connect 51 0 52 0;
#X connect 52 0 53 0;
#X connect 53 0 42 0;
#X connect 53 1 42 1;
#X connect 54 0 55 0;
#X connect 55 0 68 0;
#X connect 56 0 44 0;
#X connect 57 0 58 0;
#X connect 58 0 59 0;
#X connect 59 0 54 0;
#X connect 59 1 54 1;
#X connect 60 0 3 0;
#X connect 61 0 5 0;
#X connect 62 0 41 0;
#X connect 63 0 19 0;
#X connect 64 0 67 0;
#X connect 65 0 66 0;
#X connect 66 0 39 0;
#X connect 67 0 54 0;
#X connect 68 0 69 0;
#X connect 69 0 70 0;
#X connect 70 0 71 0;
#X connect 71 0 65 1;
#X connect 71 1 66 1;
#X connect 72 0 70 0;
#X connect 73 0 75 0;
#X connect 74 0 73 0;
#X connect 76 0 50 0;
#X connect 77 0 59 0;
#X connect 78 0 53 0;
#X connect 79 0 27 0;
#X connect 80 0 61 0;
#X connect 81 0 7 1;
#X connect 82 0 15 0;
#X connect 83 0 84 0;
#X coords 0 -1 1 1 175 75 2 100 100;
