#N canvas 575 442 638 615 10;
#X obj 102 175 inlet~;
#X obj 102 330 outlet~;
#X obj 102 295 para_bp2~ 1440 2 0 200;
#X obj 125 121 nbx 5 14 20 19999 1 0 \$0-hz-s \$0-hz-r HZ -16 5 0 11
-262144 -1 -1 20 256 0;
#X obj 202 121 nbx 5 14 0.01 100 1 0 \$0-q-s \$0-q-r Q -9 5 0 11 -262144
-1 -1 0.01 256 0;
#X obj 300 121 nbx 4 14 -40 25 0 0 \$0-db-s \$0-db-r GAIN -30 5 0 11
-262144 -1 -1 0 256 0;
#X obj 392 121 nbx 5 14 1 1000 0 0 \$0-ms \$0-ms-r MS -16 5 0 11 -262144
-1 -1 1 256 0;
#X obj 351 121 bng 14 250 50 0 etuyryuteruyiteriuyiuyq tuyeruyyuyuyuuyyuuyuy
empty 0 -6 0 10 -262144 -1 -1;
#X msg 279 152 0;
#X obj 101 137 cnv 2 10 2 empty empty empty 20 12 0 14 -1 -66577 0
;
#X obj 134 199 r \$0-hz-s;
#X obj 166 223 r \$0-q-s;
#X obj 198 246 r \$0-db-s;
#X obj 231 268 r \$0-ms-s;
#X obj 364 201 canvasargs;
#X obj 364 176 argspack \$0-hz \$1 \$0-q \$2 \$0-db \$3 \$0-ms \$4
;
#X connect 0 0 2 0;
#X connect 2 0 1 0;
#X connect 7 0 8 0;
#X connect 8 0 5 0;
#X connect 10 0 2 1;
#X connect 11 0 2 2;
#X connect 12 0 2 3;
#X connect 13 0 2 4;
#X connect 15 0 14 0;
#X coords 0 -1 1 1 360 24 2 100 116;
