#N canvas 332 216 1130 696 10;
#X obj 106 128 hsl 128 15 0 127 0 0 \$0-stereo-delay-rate-left-s \$0-stereo-delay-rate-left-r
RATE-LEFT 133 7 0 10 -262144 -1 -1 5800 1;
#X obj 106 158 hsl 128 15 0 127 0 0 \$0-stereo-delay-feedback-s \$0-stereo-delay-feedback-r
FEEDBACK 133 7 0 10 -262144 -1 -1 7500 1;
#X obj 438 16 inlet~;
#X obj 438 506 *~ -1;
#X obj 81 486 *~;
#X obj 438 482 *~;
#X obj 106 187 hsl 128 15 0 127 0 0 \$0-stereo-delay-dry/wet-s \$0-stereo-delay-dry/wet-r
DRY/WET 133 7 0 10 -262144 -1 -1 3900 1;
#X obj 96 276 t f f;
#X msg 96 298 127 \$1;
#X obj 96 320 -;
#X obj 96 342 / 127;
#X obj 96 364 pack 0 50;
#X obj 96 386 line~;
#X obj 248 421 / 127;
#X obj 248 443 pack 0 50;
#X obj 248 465 line~;
#X obj 81 516 hip~ 5;
#X obj 439 534 min~ 1;
#X obj 439 556 max~ -1;
#X obj 439 643 outlet~;
#X obj 140 108 cnv 5 5 5 empty empty RATE-L 0 0 0 8 -262144 -66577
0;
#X obj 103 121 cnv 5 5 5 empty empty STEREO-DELAY 0 0 0 12 -262144
-66577 0;
#X obj 102 108 cnv 5 5 5 empty empty IN 0 0 0 8 -262144 -66577 0;
#N canvas 0 22 793 555 delay1 0;
#X obj 195 112 inlet~;
#X obj 365 109 inlet;
#X obj 365 131 / 127;
#X obj 365 197 sig~;
#X obj 365 461 outlet~;
#X obj 456 311 *~;
#X obj 472 113 inlet;
#X obj 472 137 / 127;
#X obj 472 208 pack 0 50;
#X obj 472 230 line~;
#X text 454 96 FEEDBACK;
#X text 365 89 DELAY;
#X text 193 90 SIGNAL IN;
#X obj 472 181 + 0.5;
#X obj 472 159 * 0.48;
#X obj 365 286 vd~ \$0-dly1;
#X obj 365 175 + 10;
#X obj 365 153 * 499;
#X obj 472 282 min~ 0.98;
#X obj 365 219 +~;
#X obj 410 158 inlet~;
#X obj 410 180 *~ 499;
#X obj 410 202 +~ 10;
#X text 415 139 CV IN;
#X obj 472 252 +~;
#X obj 546 235 inlet~;
#X obj 197 465 delwrite~ \$0-dly1 500;
#X obj 365 241 lop~ 1;
#X connect 0 0 26 0;
#X connect 1 0 2 0;
#X connect 2 0 17 0;
#X connect 3 0 19 0;
#X connect 5 0 26 0;
#X connect 6 0 7 0;
#X connect 7 0 14 0;
#X connect 8 0 9 0;
#X connect 9 0 24 0;
#X connect 13 0 8 0;
#X connect 14 0 13 0;
#X connect 15 0 4 0;
#X connect 15 0 5 0;
#X connect 16 0 3 0;
#X connect 17 0 16 0;
#X connect 18 0 5 1;
#X connect 19 0 27 0;
#X connect 20 0 21 0;
#X connect 21 0 22 0;
#X connect 22 0 19 1;
#X connect 24 0 18 0;
#X connect 25 0 24 1;
#X connect 27 0 15 0;
#X restore 438 179 pd delay1;
#X obj 106 143 hsl 128 15 0 127 0 0 \$0-stereo-delay-rate-right-s \$0-stereo-delay-rate-right-r
RATE-RIGHT 133 7 0 10 -262144 -1 -1 4700 1;
#X obj 562 504 *~ -1;
#X obj 562 482 *~;
#X obj 563 532 min~ 1;
#X obj 563 554 max~ -1;
#X obj 563 643 outlet~;
#X obj 188 108 cnv 5 5 5 empty empty RATE-R 0 0 0 8 -262144 -66577
0;
#X obj 234 108 cnv 5 5 5 empty empty FBACK 0 0 0 8 -262144 -66577 0
;
#X obj 105 212 cnv 5 5 5 empty empty LEFT 0 0 0 8 -262144 -66577 0
;
#X obj 272 212 cnv 5 5 5 empty empty RIGHT 0 0 0 8 -262144 -66577 0
;
#X obj 452 44 r \$0-stereo-delay-rate-left-s;
#X obj 476 112 r \$0-stereo-delay-feedback-s;
#X obj 562 430 lop~;
#X obj 562 452 lop~;
#X obj 106 172 hsl 128 15 0 127 0 0 \$0-stereo-delay-lowpass-s \$0-stereo-delay-lowpass-r
LOWPASS 133 7 0 10 -262144 -1 -1 9300 1;
#X obj 803 288 / 127;
#X obj 803 337 * 4950;
#X obj 803 359 + 50;
#X obj 803 381 pack 0 50;
#X obj 803 403 line;
#X obj 803 266 r \$0-stereo-delay-lowpass-s;
#X obj 438 417 lop~;
#X obj 438 439 lop~;
#X obj 803 452 t f f f f;
#X obj 273 108 cnv 5 5 5 empty empty LPASS 0 0 0 8 -262144 -66577 0
;
#X obj 463 85 inlet~;
#X text 460 68 RATE-LEFT CV INPUT;
#X text 657 277 FEEDBACK CV INPUT;
#X obj 600 243 r \$0-stereo-delay-feedback-s;
#X obj 588 216 inlet~;
#X obj 576 175 r \$0-stereo-delay-rate-right-s;
#N canvas 0 22 793 555 delay2 0;
#X obj 195 112 inlet~;
#X obj 365 109 inlet;
#X obj 365 131 / 127;
#X obj 365 197 sig~;
#X obj 365 461 outlet~;
#X obj 456 311 *~;
#X obj 472 113 inlet;
#X obj 472 137 / 127;
#X obj 472 208 pack 0 50;
#X obj 472 230 line~;
#X text 454 96 FEEDBACK;
#X text 365 89 DELAY;
#X text 193 90 SIGNAL IN;
#X obj 472 181 + 0.5;
#X obj 472 159 * 0.48;
#X obj 365 175 + 10;
#X obj 365 153 * 499;
#X obj 472 282 min~ 0.98;
#X obj 365 219 +~;
#X obj 410 158 inlet~;
#X obj 410 180 *~ 499;
#X obj 410 202 +~ 10;
#X text 415 139 CV IN;
#X obj 472 252 +~;
#X obj 546 235 inlet~;
#X obj 365 286 vd~ \$0-dly2;
#X obj 197 465 delwrite~ \$0-dly2 500;
#X obj 365 241 lop~ 1;
#X connect 0 0 26 0;
#X connect 1 0 2 0;
#X connect 2 0 16 0;
#X connect 3 0 18 0;
#X connect 5 0 26 0;
#X connect 6 0 7 0;
#X connect 7 0 14 0;
#X connect 8 0 9 0;
#X connect 9 0 23 0;
#X connect 13 0 8 0;
#X connect 14 0 13 0;
#X connect 15 0 3 0;
#X connect 16 0 15 0;
#X connect 17 0 5 1;
#X connect 18 0 27 0;
#X connect 19 0 20 0;
#X connect 20 0 21 0;
#X connect 21 0 18 1;
#X connect 23 0 17 0;
#X connect 24 0 23 1;
#X connect 25 0 4 0;
#X connect 25 0 5 0;
#X connect 27 0 25 0;
#X restore 562 310 pd delay2;
#X text 585 199 RATE-RIGHT CV INPUT;
#X obj 803 310 +;
#X obj 982 236 inlet~;
#X obj 982 271 snapshot~;
#X obj 982 293 t b f;
#X obj 1026 236 bang~;
#X text 978 218 LPASS CV INPUT;
#X obj 613 278 inlet~;
#N canvas 297 27 648 297 parameter-nudging-system 0;
#N canvas 0 22 484 497 param-nudge 0;
#X obj 124 234 random;
#X obj 232 335 f;
#X obj 232 368 +;
#X obj 257 166 random 2;
#X obj 124 275 t f f;
#X obj 124 351 t b f;
#X obj 124 297 *;
#X obj 257 188 sel 0 1;
#X msg 257 280 -1;
#X msg 335 280 1;
#X obj 124 149 t b b b;
#X obj 124 123 r NUDGE!;
#X obj 157 193 r NUDGE-RANGE;
#X obj 247 308 inlet;
#X obj 232 397 outlet;
#X floatatom 316 396 5 0 0 0 - - -, f 5;
#X connect 0 0 4 0;
#X connect 1 0 2 0;
#X connect 2 0 14 0;
#X connect 2 0 15 0;
#X connect 3 0 7 0;
#X connect 4 0 6 0;
#X connect 5 0 2 0;
#X connect 5 1 2 1;
#X connect 6 0 5 0;
#X connect 7 0 8 0;
#X connect 7 1 9 0;
#X connect 8 0 6 1;
#X connect 9 0 6 1;
#X connect 10 0 0 0;
#X connect 10 1 1 0;
#X connect 10 2 3 0;
#X connect 11 0 10 0;
#X connect 12 0 0 1;
#X connect 13 0 1 1;
#X restore 23 45 pd param-nudge;
#N canvas 0 22 484 497 param-nudge 0;
#X obj 124 234 random;
#X obj 232 335 f;
#X obj 232 368 +;
#X obj 257 166 random 2;
#X obj 124 275 t f f;
#X obj 124 351 t b f;
#X obj 124 297 *;
#X obj 257 188 sel 0 1;
#X msg 257 280 -1;
#X msg 335 280 1;
#X obj 124 149 t b b b;
#X obj 124 123 r NUDGE!;
#X obj 157 193 r NUDGE-RANGE;
#X obj 247 308 inlet;
#X obj 232 397 outlet;
#X connect 0 0 4 0;
#X connect 1 0 2 0;
#X connect 2 0 14 0;
#X connect 3 0 7 0;
#X connect 4 0 6 0;
#X connect 5 0 2 0;
#X connect 5 1 2 1;
#X connect 6 0 5 0;
#X connect 7 0 8 0;
#X connect 7 1 9 0;
#X connect 8 0 6 1;
#X connect 9 0 6 1;
#X connect 10 0 0 0;
#X connect 10 1 1 0;
#X connect 10 2 3 0;
#X connect 11 0 10 0;
#X connect 12 0 0 1;
#X connect 13 0 1 1;
#X restore 214 47 pd param-nudge;
#N canvas 0 22 484 497 param-nudge 0;
#X obj 124 234 random;
#X obj 232 335 f;
#X obj 232 368 +;
#X obj 257 166 random 2;
#X obj 124 275 t f f;
#X obj 124 351 t b f;
#X obj 124 297 *;
#X obj 257 188 sel 0 1;
#X msg 257 280 -1;
#X msg 335 280 1;
#X obj 124 149 t b b b;
#X obj 124 123 r NUDGE!;
#X obj 157 193 r NUDGE-RANGE;
#X obj 247 308 inlet;
#X obj 232 397 outlet;
#X connect 0 0 4 0;
#X connect 1 0 2 0;
#X connect 2 0 14 0;
#X connect 3 0 7 0;
#X connect 4 0 6 0;
#X connect 5 0 2 0;
#X connect 5 1 2 1;
#X connect 6 0 5 0;
#X connect 7 0 8 0;
#X connect 7 1 9 0;
#X connect 8 0 6 1;
#X connect 9 0 6 1;
#X connect 10 0 0 0;
#X connect 10 1 1 0;
#X connect 10 2 3 0;
#X connect 11 0 10 0;
#X connect 12 0 0 1;
#X connect 13 0 1 1;
#X restore 407 47 pd param-nudge;
#N canvas 0 22 484 497 param-nudge 0;
#X obj 124 234 random;
#X obj 232 335 f;
#X obj 232 368 +;
#X obj 257 166 random 2;
#X obj 124 275 t f f;
#X obj 124 351 t b f;
#X obj 124 297 *;
#X obj 257 188 sel 0 1;
#X msg 257 280 -1;
#X msg 335 280 1;
#X obj 124 149 t b b b;
#X obj 124 123 r NUDGE!;
#X obj 157 193 r NUDGE-RANGE;
#X obj 247 308 inlet;
#X obj 232 397 outlet;
#X connect 0 0 4 0;
#X connect 1 0 2 0;
#X connect 2 0 14 0;
#X connect 3 0 7 0;
#X connect 4 0 6 0;
#X connect 5 0 2 0;
#X connect 5 1 2 1;
#X connect 6 0 5 0;
#X connect 7 0 8 0;
#X connect 7 1 9 0;
#X connect 8 0 6 1;
#X connect 9 0 6 1;
#X connect 10 0 0 0;
#X connect 10 1 1 0;
#X connect 10 2 3 0;
#X connect 11 0 10 0;
#X connect 12 0 0 1;
#X connect 13 0 1 1;
#X restore 21 149 pd param-nudge;
#N canvas 0 22 484 497 param-nudge 0;
#X obj 124 234 random;
#X obj 232 335 f;
#X obj 232 368 +;
#X obj 257 166 random 2;
#X obj 124 275 t f f;
#X obj 124 351 t b f;
#X obj 124 297 *;
#X obj 257 188 sel 0 1;
#X msg 257 280 -1;
#X msg 335 280 1;
#X obj 124 149 t b b b;
#X obj 124 123 r NUDGE!;
#X obj 157 193 r NUDGE-RANGE;
#X obj 247 308 inlet;
#X obj 232 397 outlet;
#X connect 0 0 4 0;
#X connect 1 0 2 0;
#X connect 2 0 14 0;
#X connect 3 0 7 0;
#X connect 4 0 6 0;
#X connect 5 0 2 0;
#X connect 5 1 2 1;
#X connect 6 0 5 0;
#X connect 7 0 8 0;
#X connect 7 1 9 0;
#X connect 8 0 6 1;
#X connect 9 0 6 1;
#X connect 10 0 0 0;
#X connect 10 1 1 0;
#X connect 10 2 3 0;
#X connect 11 0 10 0;
#X connect 12 0 0 1;
#X connect 13 0 1 1;
#X restore 213 151 pd param-nudge;
#X obj 21 171 clip 0 127;
#X obj 213 173 clip 0 127;
#X obj 23 67 clip 0 127;
#X obj 214 69 clip 0 127;
#X obj 407 71 clip 0 127;
#X obj 23 22 r \$0-stereo-delay-rate-left-s;
#X obj 23 95 s \$0-stereo-delay-rate-left-r;
#X obj 214 24 r \$0-stereo-delay-rate-right-s;
#X obj 214 97 s \$0-stereo-delay-rate-right-r;
#X obj 407 24 r \$0-stereo-delay-feedback-s;
#X obj 407 97 s \$0-stereo-delay-feedback-r;
#X obj 21 126 r \$0-stereo-delay-lowpass-s;
#X obj 21 198 s \$0-stereo-delay-lowpass-r;
#X obj 213 128 r \$0-stereo-delay-dry/wet-s;
#X obj 213 199 s \$0-stereo-delay-dry/wet-r;
#X connect 0 0 7 0;
#X connect 1 0 8 0;
#X connect 2 0 9 0;
#X connect 3 0 5 0;
#X connect 4 0 6 0;
#X connect 5 0 17 0;
#X connect 6 0 19 0;
#X connect 7 0 11 0;
#X connect 8 0 13 0;
#X connect 9 0 15 0;
#X connect 10 0 0 0;
#X connect 12 0 1 0;
#X connect 14 0 2 0;
#X connect 16 0 3 0;
#X connect 18 0 4 0;
#X restore 748 33 pd parameter-nudging-system;
#X obj 748 115 canvasargs;
#X obj 748 64 argspack \$0-stereo-delay-rate-left \$1 \$0-stereo-delay-rate-right
\$2 \$0-stereo-delay-feedback \$3 \$0-stereo-delay-lowpass \$4 \$0-stereo-delay-dry/wet
\$5;
#X connect 2 0 23 0;
#X connect 2 0 4 0;
#X connect 2 0 55 0;
#X connect 3 0 17 0;
#X connect 4 0 16 0;
#X connect 5 0 3 0;
#X connect 6 0 7 0;
#X connect 7 0 8 0;
#X connect 7 1 13 0;
#X connect 8 0 9 0;
#X connect 9 0 10 0;
#X connect 10 0 11 0;
#X connect 11 0 12 0;
#X connect 12 0 4 1;
#X connect 13 0 14 0;
#X connect 14 0 15 0;
#X connect 15 0 5 1;
#X connect 15 0 26 1;
#X connect 16 0 17 0;
#X connect 16 0 27 0;
#X connect 17 0 18 0;
#X connect 18 0 19 0;
#X connect 23 0 45 0;
#X connect 25 0 27 0;
#X connect 26 0 25 0;
#X connect 27 0 28 0;
#X connect 28 0 29 0;
#X connect 34 0 23 1;
#X connect 35 0 23 3;
#X connect 36 0 37 0;
#X connect 37 0 26 0;
#X connect 39 0 57 0;
#X connect 40 0 41 0;
#X connect 41 0 42 0;
#X connect 42 0 43 0;
#X connect 43 0 47 0;
#X connect 44 0 39 0;
#X connect 45 0 46 0;
#X connect 46 0 5 0;
#X connect 47 0 45 1;
#X connect 47 1 46 1;
#X connect 47 2 36 1;
#X connect 47 3 37 1;
#X connect 49 0 23 2;
#X connect 52 0 55 3;
#X connect 53 0 55 2;
#X connect 54 0 55 1;
#X connect 55 0 36 0;
#X connect 57 0 40 0;
#X connect 58 0 59 0;
#X connect 59 0 60 0;
#X connect 60 0 57 0;
#X connect 60 1 57 1;
#X connect 61 0 59 0;
#X connect 63 0 55 4;
#X connect 63 0 23 4;
#X connect 66 0 65 0;
#X coords 0 -1 1 1 200 120 2 100 100;
