#N canvas 501 335 918 527 10;
#X obj 305 281 *~;
#X obj 305 343 outlet~;
#X obj 320 211 pack 0 50;
#X obj 320 233 line~;
#X obj 320 256 +~;
#X text 301 39 SIGNAL IN;
#X text 437 94 CV IN, f 7;
#X obj 110 144 hsl 128 15 0 127 0 1 \$0-vca-cv-att-s \$0-vca-cv-att-r
CV 133 7 0 10 -216373 -1 -1 0 1;
#X obj 110 129 hsl 128 15 0 127 0 1 \$0-vca-vca-s \$0-vca-vca-r VCA
133 7 0 10 -262144 -1 -1 0 1;
#X obj 108 122 cnv 5 5 5 empty empty VCA 0 0 0 12 -262144 -66577 0
;
#X obj 252 108 cnv 5 5 5 empty empty CV 0 0 0 8 -262144 -216373 0;
#X obj 103 108 cnv 5 5 5 empty empty IN 0 0 0 8 -262144 -66577 0;
#X obj 443 116 inlet~;
#X obj 494 175 / 127;
#X obj 494 197 pack 0 50;
#X obj 494 219 line~;
#X obj 443 239 *~;
#X obj 320 189 / 127;
#X obj 305 58 inlet~;
#N canvas 297 27 748 331 parameter-nudging-system 0;
#N canvas 0 22 484 497 param-nudge 0;
#X obj 124 234 random;
#X obj 232 335 f;
#X obj 232 368 +;
#X obj 257 166 random 2;
#X obj 124 275 t f f;
#X obj 124 351 t b f;
#X obj 124 297 *;
#X obj 257 188 sel 0 1;
#X msg 257 280 -1;
#X msg 335 280 1;
#X obj 124 149 t b b b;
#X obj 124 123 r NUDGE!;
#X obj 157 193 r NUDGE-RANGE;
#X obj 247 308 inlet;
#X obj 232 397 outlet;
#X floatatom 316 396 5 0 0 0 - - -, f 5;
#X connect 0 0 4 0;
#X connect 1 0 2 0;
#X connect 2 0 14 0;
#X connect 2 0 15 0;
#X connect 3 0 7 0;
#X connect 4 0 6 0;
#X connect 5 0 2 0;
#X connect 5 1 2 1;
#X connect 6 0 5 0;
#X connect 7 0 8 0;
#X connect 7 1 9 0;
#X connect 8 0 6 1;
#X connect 9 0 6 1;
#X connect 10 0 0 0;
#X connect 10 1 1 0;
#X connect 10 2 3 0;
#X connect 11 0 10 0;
#X connect 12 0 0 1;
#X connect 13 0 1 1;
#X restore 23 45 pd param-nudge;
#N canvas 0 22 484 497 param-nudge 0;
#X obj 124 234 random;
#X obj 232 335 f;
#X obj 232 368 +;
#X obj 257 166 random 2;
#X obj 124 275 t f f;
#X obj 124 351 t b f;
#X obj 124 297 *;
#X obj 257 188 sel 0 1;
#X msg 257 280 -1;
#X msg 335 280 1;
#X obj 124 149 t b b b;
#X obj 124 123 r NUDGE!;
#X obj 157 193 r NUDGE-RANGE;
#X obj 247 308 inlet;
#X obj 232 397 outlet;
#X connect 0 0 4 0;
#X connect 1 0 2 0;
#X connect 2 0 14 0;
#X connect 3 0 7 0;
#X connect 4 0 6 0;
#X connect 5 0 2 0;
#X connect 5 1 2 1;
#X connect 6 0 5 0;
#X connect 7 0 8 0;
#X connect 7 1 9 0;
#X connect 8 0 6 1;
#X connect 9 0 6 1;
#X connect 10 0 0 0;
#X connect 10 1 1 0;
#X connect 10 2 3 0;
#X connect 11 0 10 0;
#X connect 12 0 0 1;
#X connect 13 0 1 1;
#X restore 171 45 pd param-nudge;
#X obj 23 67 clip 0 127;
#X obj 171 67 clip 0 127;
#X obj 23 22 r \$0-vca-vca-s;
#X obj 23 95 s \$0-vca-vca-r;
#X obj 171 22 r \$0-vca-cv-att-s;
#X obj 171 95 s \$0-vca-cv-att-r;
#X connect 0 0 2 0;
#X connect 1 0 3 0;
#X connect 2 0 5 0;
#X connect 3 0 7 0;
#X connect 4 0 0 0;
#X connect 6 0 1 0;
#X restore 39 261 pd parameter-nudging-system;
#X obj 38 287 argspack \$0-vca-vca \$1 \$0-vca-cv-att \$2;
#X obj 38 312 canvasargs;
#X connect 0 0 1 0;
#X connect 2 0 3 0;
#X connect 3 0 4 0;
#X connect 4 0 0 1;
#X connect 7 0 13 0;
#X connect 8 0 17 0;
#X connect 12 0 16 0;
#X connect 13 0 14 0;
#X connect 14 0 15 0;
#X connect 15 0 16 1;
#X connect 16 0 4 1;
#X connect 17 0 2 0;
#X connect 18 0 0 0;
#X connect 20 0 21 0;
#X coords 0 -1 1 1 165 65 2 100 100;
