#N canvas 432 260 1056 733 10;
#X obj 332 98 inlet~;
#X obj 332 403 *~;
#X obj 332 425 cos~;
#X obj 332 471 outlet~;
#X obj 107 146 hsl 128 15 0 127 0 1 \$0-wavefold-cv-att-s \$0-wavefold-cv-att-r
CV 133 7 0 10 -216373 -262144 -1 0 1;
#X obj 103 122 cnv 5 5 5 empty empty WAVEFOLD 0 0 0 12 -262144 -66577
0;
#X obj 251 110 cnv 5 5 5 empty empty FOLD 0 0 0 8 -262144 -120682 0
;
#X obj 103 111 cnv 5 5 5 empty empty IN 0 0 0 8 -262144 -66577 0;
#X obj 127 351 line~;
#X obj 127 305 + 0.5;
#X obj 127 329 pack 0 50;
#X obj 461 73 inlet~;
#X text 457 52 FOLD CV IN;
#X obj 461 174 *~;
#X obj 347 369 +~;
#X obj 107 131 hsl 128 15 0 127 0 1 \$0-wavefold-fold-s \$0-wavefold-fold-r
FOLD 133 7 0 10 -262144 -1 -1 0 1;
#X obj 512 103 / 127;
#X obj 512 125 pack 0 50;
#X obj 512 147 line~;
#X obj 127 278 / 127;
#X obj 104 166 hradio 15 1 1 3 \$0-wavefold-stages-s \$0-wavefold-stages-r
STAGES 50 8 0 10 -262144 -1 -1 0;
#X obj 214 211 sel 0 1 2;
#X floatatom 88 371 5 0 0 0 - - -, f 5;
#X obj 214 304 t b f f;
#X obj 462 259 *~ 127;
#N canvas 297 27 518 295 parameter-nudging-system 0;
#N canvas 0 22 484 497 param-nudge 0;
#X obj 124 234 random;
#X obj 232 335 f;
#X obj 232 368 +;
#X obj 257 166 random 2;
#X obj 124 275 t f f;
#X obj 124 351 t b f;
#X obj 124 297 *;
#X obj 257 188 sel 0 1;
#X msg 257 280 -1;
#X msg 335 280 1;
#X obj 124 149 t b b b;
#X obj 124 123 r NUDGE!;
#X obj 157 193 r NUDGE-RANGE;
#X obj 247 308 inlet;
#X obj 232 397 outlet;
#X floatatom 316 396 5 0 0 0 - - -, f 5;
#X connect 0 0 4 0;
#X connect 1 0 2 0;
#X connect 2 0 14 0;
#X connect 2 0 15 0;
#X connect 3 0 7 0;
#X connect 4 0 6 0;
#X connect 5 0 2 0;
#X connect 5 1 2 1;
#X connect 6 0 5 0;
#X connect 7 0 8 0;
#X connect 7 1 9 0;
#X connect 8 0 6 1;
#X connect 9 0 6 1;
#X connect 10 0 0 0;
#X connect 10 1 1 0;
#X connect 10 2 3 0;
#X connect 11 0 10 0;
#X connect 12 0 0 1;
#X connect 13 0 1 1;
#X restore 23 45 pd param-nudge;
#N canvas 0 22 484 497 param-nudge 0;
#X obj 124 234 random;
#X obj 232 335 f;
#X obj 232 368 +;
#X obj 257 166 random 2;
#X obj 124 275 t f f;
#X obj 124 351 t b f;
#X obj 124 297 *;
#X obj 257 188 sel 0 1;
#X msg 257 280 -1;
#X msg 335 280 1;
#X obj 124 149 t b b b;
#X obj 124 123 r NUDGE!;
#X obj 157 193 r NUDGE-RANGE;
#X obj 247 308 inlet;
#X obj 232 397 outlet;
#X connect 0 0 4 0;
#X connect 1 0 2 0;
#X connect 2 0 14 0;
#X connect 3 0 7 0;
#X connect 4 0 6 0;
#X connect 5 0 2 0;
#X connect 5 1 2 1;
#X connect 6 0 5 0;
#X connect 7 0 8 0;
#X connect 7 1 9 0;
#X connect 8 0 6 1;
#X connect 9 0 6 1;
#X connect 10 0 0 0;
#X connect 10 1 1 0;
#X connect 10 2 3 0;
#X connect 11 0 10 0;
#X connect 12 0 0 1;
#X connect 13 0 1 1;
#X restore 171 45 pd param-nudge;
#X obj 23 67 clip 0 127;
#X obj 171 67 clip 0 127;
#X obj 23 22 r \$0-wavefold-fold-s;
#X obj 23 95 s \$0-wavefold-fold-r;
#X obj 171 22 r \$0-wavefold-cv-att-s;
#X obj 171 95 s \$0-wavefold-cv-att-r;
#X connect 0 0 2 0;
#X connect 1 0 3 0;
#X connect 2 0 5 0;
#X connect 3 0 7 0;
#X connect 4 0 0 0;
#X connect 6 0 1 0;
#X restore 630 56 pd parameter-nudging-system;
#X obj 462 351 /~ 127;
#X msg 214 235 127;
#X msg 231 257 64;
#X msg 248 280 8;
#X obj 629 121 canvasargs;
#X obj 629 86 argspack \$0-wavefold-fold \$1 \$0-wavefold-cv-att \$2
\$0-wavefold-stages \$3;
#X connect 0 0 1 0;
#X connect 1 0 2 0;
#X connect 2 0 3 0;
#X connect 4 0 16 0;
#X connect 8 0 14 0;
#X connect 9 0 10 0;
#X connect 9 0 22 0;
#X connect 10 0 8 0;
#X connect 11 0 13 0;
#X connect 13 0 24 0;
#X connect 14 0 1 1;
#X connect 15 0 19 0;
#X connect 16 0 17 0;
#X connect 17 0 18 0;
#X connect 18 0 13 1;
#X connect 19 0 9 0;
#X connect 20 0 21 0;
#X connect 21 0 27 0;
#X connect 21 1 28 0;
#X connect 21 2 29 0;
#X connect 23 0 19 0;
#X connect 23 1 19 1;
#X connect 23 2 26 1;
#X connect 24 0 26 0;
#X connect 26 0 14 1;
#X connect 27 0 23 0;
#X connect 28 0 23 0;
#X connect 29 0 23 0;
#X connect 31 0 30 0;
#X coords 0 -1 1 1 175 90 2 100 100;
