#N canvas 197 257 1307 732 10;
#X obj 443 43 inlet~;
#X text 441 24 CLOCK IN;
#X obj 443 114 f;
#X obj 481 120 + 1;
#X obj 125 152 vsl 15 96 0 127 0 1 \$0-16steps-s2-s \$0-16steps-s2-r
2 3 -9 0 10 -262144 -1 -1 2600 1;
#X obj 110 152 vsl 15 96 0 127 0 1 \$0-16steps-s1-s \$0-16steps-s1-r
1 3 -9 0 10 -262144 -1 -1 2600 1;
#X obj 155 152 vsl 15 96 0 127 0 1 \$0-16steps-s4-s \$0-16steps-s4-r
4 3 -9 0 10 -262144 -1 -1 2600 1;
#X obj 140 152 vsl 15 96 0 127 0 1 \$0-16steps-s3-s \$0-16steps-s3-r
3 3 -9 0 10 -262144 -1 -1 2600 1;
#X obj 443 158 t f f;
#X obj 135 128 cnv 5 5 5 empty empty 16STEPS 0 0 0 12 -262144 -66577
0;
#X obj 1014 27 inlet~;
#X msg 1014 94 0;
#X text 1011 6 RESET IN;
#X obj 103 111 cnv 5 5 5 empty empty CLOCK-IN 0 0 0 8 -262144 -226533
0;
#X obj 335 111 cnv 5 5 5 empty empty RESET 0 0 0 8 -262144 -226533
0;
#X symbolatom 110 255 15 0 0 0 - - -, f 15;
#X obj 350 292 cnv 5 5 5 empty empty S1 0 0 0 8 -262144 -226533 0;
#X obj 443 301 f;
#X obj 494 301 f;
#X obj 547 301 f;
#X obj 599 301 f;
#X obj 458 251 / 127;
#X obj 458 273 * 28;
#X obj 509 251 / 127;
#X obj 509 273 * 28;
#X obj 562 251 / 127;
#X obj 562 273 * 28;
#X obj 614 251 / 127;
#X obj 614 273 * 28;
#X obj 443 505 sig~;
#X obj 443 599 outlet~;
#N canvas 120 22 1142 609 choose-scale 0;
#X obj 396 470 outlet;
#X obj 439 53 / 127;
#X obj 439 119 i;
#X obj 439 31 inlet;
#X msg -1 273 set ionian;
#X msg 92 274 set dorian;
#X msg 177 276 set phrygian;
#X msg 277 277 set lydian;
#X msg 364 278 set aeolian;
#X msg 442 307 set whole;
#X msg 537 311 set chromatic;
#X msg 650 316 set harm-major;
#X msg 677 365 set lyd-minor;
#X msg 764 409 set ancient;
#X msg 902 423 set pelog;
#X msg 940 380 set tetra;
#X msg 968 309 set indian;
#X msg 1035 260 set slendro;
#X obj 439 74 * 14;
#X obj 439 178 sel 0 1 2 3 4 5 6 7 8 9 10 11 12 13 14;
#X msg 895 213 set free;
#X obj 938 548 outlet;
#X floatatom 864 530 5 0 0 0 - - -, f 5;
#X obj 864 508 == 14;
#X connect 1 0 18 0;
#X connect 2 0 19 0;
#X connect 2 0 23 0;
#X connect 3 0 1 0;
#X connect 4 0 0 0;
#X connect 5 0 0 0;
#X connect 6 0 0 0;
#X connect 7 0 0 0;
#X connect 8 0 0 0;
#X connect 9 0 0 0;
#X connect 10 0 0 0;
#X connect 11 0 0 0;
#X connect 12 0 0 0;
#X connect 13 0 0 0;
#X connect 14 0 0 0;
#X connect 15 0 0 0;
#X connect 16 0 0 0;
#X connect 17 0 0 0;
#X connect 18 0 2 0;
#X connect 19 0 4 0;
#X connect 19 1 5 0;
#X connect 19 2 6 0;
#X connect 19 3 7 0;
#X connect 19 4 8 0;
#X connect 19 5 9 0;
#X connect 19 6 10 0;
#X connect 19 7 11 0;
#X connect 19 8 12 0;
#X connect 19 9 13 0;
#X connect 19 10 15 0;
#X connect 19 11 16 0;
#X connect 19 12 14 0;
#X connect 19 13 17 0;
#X connect 19 14 20 0;
#X connect 20 0 0 0;
#X connect 23 0 21 0;
#X connect 23 0 22 0;
#X restore 239 374 pd choose-scale;
#X obj 443 481 / 127;
#X obj 340 120 bng 15 50 50 0 empty empty empty 17 7 0 10 -262144 -258113
-1;
#X obj 1014 71 t b b;
#X obj 185 152 vsl 15 96 0 127 0 1 \$0-16steps-s6-s \$0-16steps-s6-r
6 3 -9 0 10 -262144 -1 -1 2600 1;
#X obj 170 152 vsl 15 96 0 127 0 1 \$0-16steps-s5-s \$0-16steps-s5-r
5 3 -9 0 10 -262144 -1 -1 2600 1;
#X obj 215 152 vsl 15 96 0 127 0 1 \$0-16steps-s8-s \$0-16steps-s8-r
8 3 -9 0 10 -262144 -1 -1 3800 1;
#X obj 200 152 vsl 15 96 0 127 0 1 \$0-16steps-s7-s \$0-16steps-s7-r
7 3 -9 0 10 -262144 -1 -1 2600 1;
#X obj 647 300 f;
#X obj 698 300 f;
#X obj 751 300 f;
#X obj 803 300 f;
#X obj 662 251 / 127;
#X obj 662 272 * 28;
#X obj 713 251 / 127;
#X obj 713 272 * 28;
#X obj 766 251 / 127;
#X obj 766 272 * 28;
#X obj 818 251 / 127;
#X obj 818 272 * 28;
#X floatatom 406 328 5 0 0 0 - - -, f 5;
#X obj 1054 77 loadbang;
#X obj 110 271 hsl 128 15 0 127 0 1 \$0-16steps-scale-s \$0-16steps-scale-r
SCALE 133 7 0 10 -262144 -1 -1 10600 1;
#X obj 443 530 +~;
#X obj 821 46 inlet~;
#X obj 443 375 +;
#X obj 821 155 snapshot~;
#X obj 821 177 t b f;
#X obj 443 92 t b b;
#X obj 863 122 bang~;
#X obj 443 552 min~ 1;
#X obj 443 574 max~ 0;
#X obj 677 493 *~ 0.125;
#X obj 821 122 *~ 14;
#X text 820 27 CV(PRE-Q);
#X obj 893 46 inlet~;
#X text 892 27 CV(POST-Q);
#X obj 250 112 cnv 5 5 5 empty empty CV(POST-Q) 0 0 0 8 -262144 -1
0;
#X obj 171 112 cnv 5 5 5 empty empty CV(PRE-Q) 0 0 0 8 -262144 -1 0
;
#X obj 106 120 bng 15 50 50 0 empty empty empty 17 7 0 10 -262144 -226533
-1;
#X obj 662 588 outlet~;
#X obj 443 397 t f f;
#X obj 741 414 / 28;
#X obj 741 503 sig~;
#X obj 662 520 +~;
#X obj 662 542 min~ 1;
#X obj 662 564 max~ 0;
#X text 444 617 QUANTIZED CV OUT;
#X text 715 589 UN-QUANTIZED CV OUT;
#N canvas 0 22 1204 721 scales-tables 0;
#X obj 11 17 loadbang;
#X obj 10 156 loadbang;
#X obj 15 269 loadbang;
#X obj 17 383 loadbang;
#X obj 18 503 loadbang;
#X obj 427 3 loadbang;
#X obj 429 98 loadbang;
#X obj 430 197 loadbang;
#X obj 431 294 loadbang;
#X obj 430 421 loadbang;
#X obj 20 598 loadbang;
#X obj 433 534 loadbang;
#X obj 822 12 loadbang;
#X obj 823 149 loadbang;
#X obj 818 293 loadbang;
#X obj 11 131 table \$0-ionian;
#X obj 8 248 table \$0-aeolian;
#X obj 16 361 table \$0-dorian;
#X obj 17 479 table \$0-phrygian;
#X obj 18 692 table \$0-lyd-minor;
#X obj 459 24 table \$0-chromatic;
#X obj 462 119 table \$0-ancient;
#X obj 464 218 table \$0-tetra;
#X obj 466 315 table \$0-indian;
#X obj 468 441 table \$0-siga;
#X obj 433 653 table \$0-harm-major;
#X obj 864 35 table \$0-pelog;
#X obj 823 267 table \$0-slendro;
#X obj 817 395 table \$0-whole;
#X msg 11 81 \; \$1-ionian 0 0 2 4 5 7 9 11 12 14 16 17 19 21 23 24
26 28 29 31 33 35 36 38 40 41 43 45 47 48;
#X msg 10 201 \; \$1-aeolian 0 0 2 3 5 7 8 10 12 14 15 17 19 20 22
24 26 27 29 31 32 34 36 38 39 41 43 44 46 48;
#X msg 16 312 \; \$1-dorian 0 0 2 3 5 7 9 10 12 14 15 17 19 21 22 24
26 27 29 31 33 34 36 38 39 41 43 45 46 48;
#X msg 17 432 \; \$1-phrygian 0 0 1 3 5 7 8 10 12 13 15 17 19 20 22
24 25 27 29 31 32 34 36 37 39 41 43 44 46 48;
#X msg 18 549 \; \$1-lydian 0 0 2 4 6 7 9 11 12 14 16 18 19 21 23 24
26 28 30 31 33 35 36 38 40 42 43 45 47 48;
#X msg 19 643 \; \$1-lyd-minor 0 0 2 3 6 7 9 11 12 14 15 18 19 21 23
24 26 27 30 31 33 35 36 38 39 42 43 45 47 48;
#X msg 427 50 \; \$1-chromatic 0 0 1 2 3 4 5 6 7 8 9 10 11 12 13 14
15 16 17 18 19 20 21 22 23 24 25 26 27 28;
#X msg 428 151 \; \$1-ancient 0 0 0.5 1 5 7 7.5 8 12 12.5 13 17 19
19.5 20 24 24.5 25 29 31 31.5 32 36 36.5 37 41 43 43.5 44 48;
#X msg 430 248 \; \$1-tetra 0 0 1 1.75 2 3 3.75 4 5 12 13 13.75 14
15 15.75 16 17 24 25 25.75 26 27 27.75 28 29 36 37 37.75 38 39;
#X msg 431 350 \; \$1-indian 0 0 0.9 1.14 1.8 2.04 2.94 3.18 3.84 4.08
4.9 5.22 5.88 6.12 7.02 7.92 8.16 8.82 9.06 9.96 10.2 10.86 11.1 12
12.9 13.14 13.8 14.04 14.94 15.18;
#X msg 430 468 \; \$1-siga 0 0 1.5 3.5 5.5 7 8.5 10.5 12 13.5 15.5
17.5 19 20.5 22.5 24 25.5 27.5 29.5 31 32.5 34.5 36 37.5 39.5 41.5
43 44.5 46.5 48.5;
#X msg 433 601 \; \$1-harm-major 0 0 2 4 5 7 8 11 12 14 16 17 19 20
23 24 26 28 29 31 32 35 36 38 40 41 43 44 47 48;
#X msg 822 73 \; \$1-pelog 0 0 1.5 2.5 3.5 7 8 10.5 12 13.5 14.5 15.5
19 20 22.5 24 25.5 26.5 27.5 31 32 34.5 36 37.5 38.5 39.5 42.5 43.5
45 46.5;
#X msg 823 218 \; \$1-slendro 0 0 2.5 5 7 9.5 12 14.5 17 19 21.5 24
26.5 29 31 33.5 36 38.5 41 43 45.5 47 49.5 52 54 56.5 59 61.5 64 66.5
;
#X msg 818 346 \; \$1-whole 0 0 2 4 6 8 10 12 14 16 18 20 22 24 26
28 30 32 34 36 38 40 42 44 46 48 50 52 54 56;
#X obj 11 39 f \$0;
#X obj 10 178 f \$0;
#X obj 15 291 f \$0;
#X obj 17 405 f \$0;
#X obj 18 525 f \$0;
#X obj 20 620 f \$0;
#X obj 427 25 f \$0;
#X obj 429 120 f \$0;
#X obj 430 219 f \$0;
#X obj 431 316 f \$0;
#X obj 430 443 f \$0;
#X obj 433 556 f \$0;
#X obj 822 34 f \$0;
#X obj 823 171 f \$0;
#X obj 818 315 f \$0;
#X obj 49 524 table \$0-lydian;
#X connect 0 0 44 0;
#X connect 1 0 45 0;
#X connect 2 0 46 0;
#X connect 3 0 47 0;
#X connect 4 0 48 0;
#X connect 5 0 50 0;
#X connect 6 0 51 0;
#X connect 7 0 52 0;
#X connect 8 0 53 0;
#X connect 9 0 54 0;
#X connect 10 0 49 0;
#X connect 11 0 55 0;
#X connect 12 0 56 0;
#X connect 13 0 57 0;
#X connect 14 0 58 0;
#X connect 44 0 29 0;
#X connect 45 0 30 0;
#X connect 46 0 31 0;
#X connect 47 0 32 0;
#X connect 48 0 33 0;
#X connect 49 0 34 0;
#X connect 50 0 35 0;
#X connect 51 0 36 0;
#X connect 52 0 37 0;
#X connect 53 0 38 0;
#X connect 54 0 39 0;
#X connect 55 0 40 0;
#X connect 56 0 41 0;
#X connect 57 0 42 0;
#X connect 58 0 43 0;
#X restore 100 309 pd scales-tables;
#X obj 224 293 cnv 5 5 5 empty empty MAX 0 0 0 8 -262144 -1 0;
#X obj 443 436 tabread;
#X obj 239 348 t f f;
#N canvas 120 22 1142 609 choose-scale 0;
#X obj 438 475 outlet;
#X obj 81 37 / 127;
#X obj 81 103 i;
#X obj 81 15 inlet;
#X msg 80 566 set \$1-ionian;
#X obj 24 150 loadbang;
#X msg 90 464 set \$1-dorian;
#X msg 110 340 set \$1-phrygian;
#X msg 125 238 set \$1-lydian;
#X msg 220 239 set \$1-aeolian;
#X msg 317 239 set \$1-whole;
#X msg 404 236 set \$1-chromatic;
#X msg 512 234 set \$1-harm-major;
#X msg 559 311 set \$1-lyd-minor;
#X msg 588 363 set \$1-ancient;
#X msg 827 283 set \$1-pelog;
#X msg 642 445 set \$1-tetra;
#X msg 817 455 set \$1-indian;
#X msg 989 300 set \$1-slendro;
#X obj 24 171 f \$0;
#X obj 80 536 f;
#X obj 90 435 f;
#X obj 110 318 f;
#X obj 125 210 f;
#X obj 24 193 t f f f f;
#X obj 216 45 loadbang;
#X obj 216 66 f \$0;
#X obj 216 88 t f f f f;
#X obj 220 215 f;
#X obj 317 213 f;
#X obj 404 214 f;
#X obj 512 210 f;
#X obj 559 285 f;
#X obj 589 339 f;
#X obj 661 404 f;
#X obj 807 412 f;
#X obj 552 51 loadbang;
#X obj 552 72 f \$0;
#X obj 830 246 f;
#X obj 1000 257 f;
#X obj 552 94 t f f f f f f;
#X obj 81 125 sel 0 1 2 3 4 5 6 7 8 9 10 11 12 13 14;
#X obj 81 58 * 14;
#X connect 1 0 42 0;
#X connect 2 0 41 0;
#X connect 3 0 1 0;
#X connect 4 0 0 0;
#X connect 5 0 19 0;
#X connect 6 0 0 0;
#X connect 7 0 0 0;
#X connect 8 0 0 0;
#X connect 9 0 0 0;
#X connect 10 0 0 0;
#X connect 11 0 0 0;
#X connect 12 0 0 0;
#X connect 13 0 0 0;
#X connect 14 0 0 0;
#X connect 15 0 0 0;
#X connect 16 0 0 0;
#X connect 17 0 0 0;
#X connect 18 0 0 0;
#X connect 19 0 24 0;
#X connect 20 0 4 0;
#X connect 21 0 6 0;
#X connect 22 0 7 0;
#X connect 23 0 8 0;
#X connect 24 0 20 1;
#X connect 24 1 21 1;
#X connect 24 2 22 1;
#X connect 24 3 23 1;
#X connect 25 0 26 0;
#X connect 26 0 27 0;
#X connect 27 0 28 1;
#X connect 27 1 29 1;
#X connect 27 2 30 1;
#X connect 27 3 31 1;
#X connect 28 0 9 0;
#X connect 29 0 10 0;
#X connect 30 0 11 0;
#X connect 31 0 12 0;
#X connect 32 0 13 0;
#X connect 33 0 14 0;
#X connect 34 0 16 0;
#X connect 35 0 17 0;
#X connect 36 0 37 0;
#X connect 37 0 40 0;
#X connect 38 0 15 0;
#X connect 39 0 18 0;
#X connect 40 0 32 1;
#X connect 40 1 33 1;
#X connect 40 2 34 1;
#X connect 40 3 35 1;
#X connect 40 4 38 1;
#X connect 40 5 39 1;
#X connect 41 0 20 0;
#X connect 41 1 21 0;
#X connect 41 2 22 0;
#X connect 41 3 23 0;
#X connect 41 4 28 0;
#X connect 41 5 29 0;
#X connect 41 6 30 0;
#X connect 41 7 31 0;
#X connect 41 8 32 0;
#X connect 41 9 33 0;
#X connect 41 10 34 0;
#X connect 41 11 35 0;
#X connect 41 12 38 0;
#X connect 41 13 39 0;
#X connect 42 0 2 0;
#X restore 266 398 pd choose-scale;
#X obj 789 537 outlet~;
#X msg 789 490 1 0 \, 0 1 1;
#X obj 789 512 vline~;
#X obj 103 293 cnv 5 5 5 empty empty Q-OUT 0 0 0 8 -262144 -1 0;
#X obj 1014 49 threshold~ 0.99 0 1 0;
#X text 785 559 STEP1;
#N canvas 297 27 648 297 parameter-nudging-system 0;
#N canvas 0 22 484 497 param-nudge 0;
#X obj 124 234 random;
#X obj 232 335 f;
#X obj 232 368 +;
#X obj 257 166 random 2;
#X obj 124 275 t f f;
#X obj 124 351 t b f;
#X obj 124 297 *;
#X obj 257 188 sel 0 1;
#X msg 257 280 -1;
#X msg 335 280 1;
#X obj 124 149 t b b b;
#X obj 124 123 r NUDGE!;
#X obj 157 193 r NUDGE-RANGE;
#X obj 247 308 inlet;
#X obj 232 397 outlet;
#X floatatom 316 396 5 0 0 0 - - -, f 5;
#X connect 0 0 4 0;
#X connect 1 0 2 0;
#X connect 2 0 14 0;
#X connect 2 0 15 0;
#X connect 3 0 7 0;
#X connect 4 0 6 0;
#X connect 5 0 2 0;
#X connect 5 1 2 1;
#X connect 6 0 5 0;
#X connect 7 0 8 0;
#X connect 7 1 9 0;
#X connect 8 0 6 1;
#X connect 9 0 6 1;
#X connect 10 0 0 0;
#X connect 10 1 1 0;
#X connect 10 2 3 0;
#X connect 11 0 10 0;
#X connect 12 0 0 1;
#X connect 13 0 1 1;
#X restore 23 45 pd param-nudge;
#N canvas 0 22 484 497 param-nudge 0;
#X obj 124 234 random;
#X obj 232 335 f;
#X obj 232 368 +;
#X obj 257 166 random 2;
#X obj 124 275 t f f;
#X obj 124 351 t b f;
#X obj 124 297 *;
#X obj 257 188 sel 0 1;
#X msg 257 280 -1;
#X msg 335 280 1;
#X obj 124 149 t b b b;
#X obj 124 123 r NUDGE!;
#X obj 157 193 r NUDGE-RANGE;
#X obj 247 308 inlet;
#X obj 232 397 outlet;
#X connect 0 0 4 0;
#X connect 1 0 2 0;
#X connect 2 0 14 0;
#X connect 3 0 7 0;
#X connect 4 0 6 0;
#X connect 5 0 2 0;
#X connect 5 1 2 1;
#X connect 6 0 5 0;
#X connect 7 0 8 0;
#X connect 7 1 9 0;
#X connect 8 0 6 1;
#X connect 9 0 6 1;
#X connect 10 0 0 0;
#X connect 10 1 1 0;
#X connect 10 2 3 0;
#X connect 11 0 10 0;
#X connect 12 0 0 1;
#X connect 13 0 1 1;
#X restore 141 43 pd param-nudge;
#N canvas 0 22 484 497 param-nudge 0;
#X obj 124 234 random;
#X obj 232 335 f;
#X obj 232 368 +;
#X obj 257 166 random 2;
#X obj 124 275 t f f;
#X obj 124 351 t b f;
#X obj 124 297 *;
#X obj 257 188 sel 0 1;
#X msg 257 280 -1;
#X msg 335 280 1;
#X obj 124 149 t b b b;
#X obj 124 123 r NUDGE!;
#X obj 157 193 r NUDGE-RANGE;
#X obj 247 308 inlet;
#X obj 232 397 outlet;
#X connect 0 0 4 0;
#X connect 1 0 2 0;
#X connect 2 0 14 0;
#X connect 3 0 7 0;
#X connect 4 0 6 0;
#X connect 5 0 2 0;
#X connect 5 1 2 1;
#X connect 6 0 5 0;
#X connect 7 0 8 0;
#X connect 7 1 9 0;
#X connect 8 0 6 1;
#X connect 9 0 6 1;
#X connect 10 0 0 0;
#X connect 10 1 1 0;
#X connect 10 2 3 0;
#X connect 11 0 10 0;
#X connect 12 0 0 1;
#X connect 13 0 1 1;
#X restore 256 44 pd param-nudge;
#X obj 23 67 clip 0 127;
#X obj 141 65 clip 0 127;
#X obj 256 68 clip 0 127;
#X obj 23 22 r \$0-8steps-s1-s;
#X obj 23 95 s \$0-8steps-s1-r;
#X obj 141 20 r \$0-8steps-s2-s;
#X obj 141 93 s \$0-8steps-s2-r;
#X obj 256 21 r \$0-8steps-s3-s;
#X obj 256 94 s \$0-8steps-s3-r;
#N canvas 0 22 484 497 param-nudge 0;
#X obj 124 234 random;
#X obj 232 335 f;
#X obj 232 368 +;
#X obj 257 166 random 2;
#X obj 124 275 t f f;
#X obj 124 351 t b f;
#X obj 124 297 *;
#X obj 257 188 sel 0 1;
#X msg 257 280 -1;
#X msg 335 280 1;
#X obj 124 149 t b b b;
#X obj 124 123 r NUDGE!;
#X obj 157 193 r NUDGE-RANGE;
#X obj 247 308 inlet;
#X obj 232 397 outlet;
#X connect 0 0 4 0;
#X connect 1 0 2 0;
#X connect 2 0 14 0;
#X connect 3 0 7 0;
#X connect 4 0 6 0;
#X connect 5 0 2 0;
#X connect 5 1 2 1;
#X connect 6 0 5 0;
#X connect 7 0 8 0;
#X connect 7 1 9 0;
#X connect 8 0 6 1;
#X connect 9 0 6 1;
#X connect 10 0 0 0;
#X connect 10 1 1 0;
#X connect 10 2 3 0;
#X connect 11 0 10 0;
#X connect 12 0 0 1;
#X connect 13 0 1 1;
#X restore 381 43 pd param-nudge;
#X obj 381 67 clip 0 127;
#N canvas 0 22 484 497 param-nudge 0;
#X obj 124 234 random;
#X obj 232 335 f;
#X obj 232 368 +;
#X obj 257 166 random 2;
#X obj 124 275 t f f;
#X obj 124 351 t b f;
#X obj 124 297 *;
#X obj 257 188 sel 0 1;
#X msg 257 280 -1;
#X msg 335 280 1;
#X obj 124 149 t b b b;
#X obj 124 123 r NUDGE!;
#X obj 157 193 r NUDGE-RANGE;
#X obj 247 308 inlet;
#X obj 232 397 outlet;
#X floatatom 316 396 5 0 0 0 - - -, f 5;
#X connect 0 0 4 0;
#X connect 1 0 2 0;
#X connect 2 0 14 0;
#X connect 2 0 15 0;
#X connect 3 0 7 0;
#X connect 4 0 6 0;
#X connect 5 0 2 0;
#X connect 5 1 2 1;
#X connect 6 0 5 0;
#X connect 7 0 8 0;
#X connect 7 1 9 0;
#X connect 8 0 6 1;
#X connect 9 0 6 1;
#X connect 10 0 0 0;
#X connect 10 1 1 0;
#X connect 10 2 3 0;
#X connect 11 0 10 0;
#X connect 12 0 0 1;
#X connect 13 0 1 1;
#X restore 24 162 pd param-nudge;
#N canvas 0 22 484 497 param-nudge 0;
#X obj 124 234 random;
#X obj 232 335 f;
#X obj 232 368 +;
#X obj 257 166 random 2;
#X obj 124 275 t f f;
#X obj 124 351 t b f;
#X obj 124 297 *;
#X obj 257 188 sel 0 1;
#X msg 257 280 -1;
#X msg 335 280 1;
#X obj 124 149 t b b b;
#X obj 124 123 r NUDGE!;
#X obj 157 193 r NUDGE-RANGE;
#X obj 247 308 inlet;
#X obj 232 397 outlet;
#X connect 0 0 4 0;
#X connect 1 0 2 0;
#X connect 2 0 14 0;
#X connect 3 0 7 0;
#X connect 4 0 6 0;
#X connect 5 0 2 0;
#X connect 5 1 2 1;
#X connect 6 0 5 0;
#X connect 7 0 8 0;
#X connect 7 1 9 0;
#X connect 8 0 6 1;
#X connect 9 0 6 1;
#X connect 10 0 0 0;
#X connect 10 1 1 0;
#X connect 10 2 3 0;
#X connect 11 0 10 0;
#X connect 12 0 0 1;
#X connect 13 0 1 1;
#X restore 142 160 pd param-nudge;
#N canvas 0 22 484 497 param-nudge 0;
#X obj 124 234 random;
#X obj 232 335 f;
#X obj 232 368 +;
#X obj 257 166 random 2;
#X obj 124 275 t f f;
#X obj 124 351 t b f;
#X obj 124 297 *;
#X obj 257 188 sel 0 1;
#X msg 257 280 -1;
#X msg 335 280 1;
#X obj 124 149 t b b b;
#X obj 124 123 r NUDGE!;
#X obj 157 193 r NUDGE-RANGE;
#X obj 247 308 inlet;
#X obj 232 397 outlet;
#X connect 0 0 4 0;
#X connect 1 0 2 0;
#X connect 2 0 14 0;
#X connect 3 0 7 0;
#X connect 4 0 6 0;
#X connect 5 0 2 0;
#X connect 5 1 2 1;
#X connect 6 0 5 0;
#X connect 7 0 8 0;
#X connect 7 1 9 0;
#X connect 8 0 6 1;
#X connect 9 0 6 1;
#X connect 10 0 0 0;
#X connect 10 1 1 0;
#X connect 10 2 3 0;
#X connect 11 0 10 0;
#X connect 12 0 0 1;
#X connect 13 0 1 1;
#X restore 257 161 pd param-nudge;
#X obj 24 184 clip 0 127;
#X obj 142 182 clip 0 127;
#X obj 257 185 clip 0 127;
#N canvas 0 22 484 497 param-nudge 0;
#X obj 124 234 random;
#X obj 232 335 f;
#X obj 232 368 +;
#X obj 257 166 random 2;
#X obj 124 275 t f f;
#X obj 124 351 t b f;
#X obj 124 297 *;
#X obj 257 188 sel 0 1;
#X msg 257 280 -1;
#X msg 335 280 1;
#X obj 124 149 t b b b;
#X obj 124 123 r NUDGE!;
#X obj 157 193 r NUDGE-RANGE;
#X obj 247 308 inlet;
#X obj 232 397 outlet;
#X connect 0 0 4 0;
#X connect 1 0 2 0;
#X connect 2 0 14 0;
#X connect 3 0 7 0;
#X connect 4 0 6 0;
#X connect 5 0 2 0;
#X connect 5 1 2 1;
#X connect 6 0 5 0;
#X connect 7 0 8 0;
#X connect 7 1 9 0;
#X connect 8 0 6 1;
#X connect 9 0 6 1;
#X connect 10 0 0 0;
#X connect 10 1 1 0;
#X connect 10 2 3 0;
#X connect 11 0 10 0;
#X connect 12 0 0 1;
#X connect 13 0 1 1;
#X restore 382 160 pd param-nudge;
#X obj 382 184 clip 0 127;
#X obj 142 137 r \$0-8steps-s6-s;
#X obj 142 210 s \$0-8steps-s6-r;
#X obj 24 139 r \$0-8steps-s5-s;
#X obj 24 212 s \$0-8steps-s5-r;
#X obj 381 20 r \$0-8steps-s4-s;
#X obj 381 93 s \$0-8steps-s4-r;
#X obj 257 138 r \$0-8steps-s7-s;
#X obj 257 211 s \$0-8steps-s7-r;
#X obj 382 137 r \$0-8steps-s8-s;
#X obj 382 210 s \$0-8steps-s8-r;
#N canvas 0 22 484 497 param-nudge 0;
#X obj 124 234 random;
#X obj 232 335 f;
#X obj 232 368 +;
#X obj 257 166 random 2;
#X obj 124 275 t f f;
#X obj 124 351 t b f;
#X obj 124 297 *;
#X obj 257 188 sel 0 1;
#X msg 257 280 -1;
#X msg 335 280 1;
#X obj 124 149 t b b b;
#X obj 124 123 r NUDGE!;
#X obj 157 193 r NUDGE-RANGE;
#X obj 247 308 inlet;
#X obj 232 397 outlet;
#X connect 0 0 4 0;
#X connect 1 0 2 0;
#X connect 2 0 14 0;
#X connect 3 0 7 0;
#X connect 4 0 6 0;
#X connect 5 0 2 0;
#X connect 5 1 2 1;
#X connect 6 0 5 0;
#X connect 7 0 8 0;
#X connect 7 1 9 0;
#X connect 8 0 6 1;
#X connect 9 0 6 1;
#X connect 10 0 0 0;
#X connect 10 1 1 0;
#X connect 10 2 3 0;
#X connect 11 0 10 0;
#X connect 12 0 0 1;
#X connect 13 0 1 1;
#X restore 497 160 pd param-nudge;
#X obj 497 184 clip 0 127;
#X obj 497 137 r \$0-8steps-scale-s;
#X obj 497 210 s \$0-8steps-scale-r;
#X connect 0 0 3 0;
#X connect 1 0 4 0;
#X connect 2 0 5 0;
#X connect 3 0 7 0;
#X connect 4 0 9 0;
#X connect 5 0 11 0;
#X connect 6 0 0 0;
#X connect 8 0 1 0;
#X connect 10 0 2 0;
#X connect 12 0 13 0;
#X connect 13 0 27 0;
#X connect 14 0 17 0;
#X connect 15 0 18 0;
#X connect 16 0 19 0;
#X connect 17 0 25 0;
#X connect 18 0 23 0;
#X connect 19 0 29 0;
#X connect 20 0 21 0;
#X connect 21 0 31 0;
#X connect 22 0 15 0;
#X connect 24 0 14 0;
#X connect 26 0 12 0;
#X connect 28 0 16 0;
#X connect 30 0 20 0;
#X connect 32 0 33 0;
#X connect 33 0 35 0;
#X connect 34 0 32 0;
#X restore 18 462 pd parameter-nudging-system;
#X obj 443 70 threshold~ 0.9 0 0.9 0;
#X obj 565 475 spigot;
#X floatatom 501 390 5 0 0 0 - - -, f 5;
#X obj 443 458 spigot;
#X obj 574 425 == 0;
#X obj 580 391 t f f;
#X floatatom 565 497 5 0 0 0 - - -, f 5;
#X floatatom 621 459 5 0 0 0 - - -, f 5;
#X obj 19 597 canvasargs;
#X obj 245 152 vsl 15 96 0 127 0 1 \$0-16steps-s10-s \$0-16steps-s10-r
10 1 -9 0 10 -262144 -1 -1 3300 1;
#X obj 230 152 vsl 15 96 0 127 0 1 \$0-16steps-s9-s \$0-16steps-s9-r
9 3 -9 0 10 -262144 -1 -1 3800 1;
#X obj 275 152 vsl 15 96 0 127 0 1 \$0-16steps-s12-s \$0-16steps-s12-r
12 1 -9 0 10 -262144 -1 -1 3300 1;
#X obj 260 152 vsl 15 96 0 127 0 1 \$0-16steps-s11-s \$0-16steps-s11-r
11 1 -9 0 10 -262144 -1 -1 3300 1;
#X obj 305 152 vsl 15 96 0 127 0 1 \$0-16steps-s14-s \$0-16steps-s14-r
14 1 -9 0 10 -262144 -1 -1 3300 1;
#X obj 290 152 vsl 15 96 0 127 0 1 \$0-16steps-s13-s \$0-16steps-s13-r
13 1 -9 0 10 -262144 -1 -1 3300 1;
#X obj 335 152 vsl 15 96 0 127 0 1 \$0-16steps-s16-s \$0-16steps-s16-r
16 1 -9 0 10 -262144 -1 -1 3300 1;
#X obj 320 152 vsl 15 96 0 127 0 1 \$0-16steps-s15-s \$0-16steps-s15-r
15 1 -9 0 10 -262144 -1 -1 3300 1;
#X obj 848 300 f;
#X obj 899 300 f;
#X obj 952 300 f;
#X obj 1004 300 f;
#X obj 863 250 / 127;
#X obj 863 272 * 28;
#X obj 914 250 / 127;
#X obj 914 272 * 28;
#X obj 967 250 / 127;
#X obj 967 272 * 28;
#X obj 1019 250 / 127;
#X obj 1019 272 * 28;
#X obj 1052 299 f;
#X obj 1103 299 f;
#X obj 1156 299 f;
#X obj 1208 299 f;
#X obj 1067 250 / 127;
#X obj 1067 271 * 28;
#X obj 1118 250 / 127;
#X obj 1118 271 * 28;
#X obj 1171 250 / 127;
#X obj 1171 271 * 28;
#X obj 1223 250 / 127;
#X obj 1223 271 * 28;
#X obj 443 187 sel 0 1 2 3 4 5 6 7 8 9 10 11 12 13 14 15;
#X obj 444 136 % 16;
#X obj 19 508 msgpack \$0-16steps-s1 \$1 \$0-16steps-s2 \$2 \$0-16steps-s3
\$3 \$0-16steps-s4 \$4 \$0-16steps-s5 \$5 \$0-16steps-s6 \$6 \$0-16steps-s7
\$7 \$0-16steps-s8 \$8 \$0-16steps-s9 \$9 \$0-16steps-s10 \$10 \$0-16steps-s11
\$11 \$0-16steps-s12 \$12 \$0-16steps-s13 \$13 \$0-16steps-s14 \$14
\$0-16steps-s15 \$15 \$0-16steps-s16 \$16 \$0-16steps-scale \$17;
#X obj 19 483 loadbang;
#X connect 0 0 92 0;
#X connect 2 0 134 0;
#X connect 3 0 2 1;
#X connect 4 0 23 0;
#X connect 5 0 21 0;
#X connect 6 0 27 0;
#X connect 7 0 25 0;
#X connect 8 0 133 0;
#X connect 10 0 89 0;
#X connect 11 0 2 1;
#X connect 17 0 51 0;
#X connect 17 0 56 0;
#X connect 18 0 56 0;
#X connect 19 0 56 0;
#X connect 20 0 56 0;
#X connect 21 0 22 0;
#X connect 22 0 17 1;
#X connect 23 0 24 0;
#X connect 24 0 18 1;
#X connect 25 0 26 0;
#X connect 26 0 19 1;
#X connect 27 0 28 0;
#X connect 28 0 20 1;
#X connect 29 0 54 0;
#X connect 31 0 15 0;
#X connect 31 1 97 0;
#X connect 32 0 29 0;
#X connect 34 0 11 0;
#X connect 34 1 33 0;
#X connect 35 0 45 0;
#X connect 36 0 43 0;
#X connect 37 0 49 0;
#X connect 38 0 47 0;
#X connect 39 0 56 0;
#X connect 40 0 56 0;
#X connect 41 0 56 0;
#X connect 42 0 56 0;
#X connect 43 0 44 0;
#X connect 44 0 39 1;
#X connect 45 0 46 0;
#X connect 46 0 40 1;
#X connect 47 0 48 0;
#X connect 48 0 41 1;
#X connect 49 0 50 0;
#X connect 50 0 42 1;
#X connect 52 0 11 0;
#X connect 53 0 83 0;
#X connect 54 0 61 0;
#X connect 55 0 64 0;
#X connect 56 0 72 0;
#X connect 56 0 94 0;
#X connect 57 0 58 0;
#X connect 58 0 56 0;
#X connect 58 1 56 1;
#X connect 59 0 2 0;
#X connect 59 1 70 0;
#X connect 60 0 57 0;
#X connect 61 0 62 0;
#X connect 62 0 30 0;
#X connect 63 0 54 1;
#X connect 63 0 75 1;
#X connect 64 0 57 0;
#X connect 66 0 63 0;
#X connect 72 0 82 0;
#X connect 72 1 73 0;
#X connect 73 0 74 0;
#X connect 74 0 75 0;
#X connect 75 0 76 0;
#X connect 76 0 77 0;
#X connect 77 0 71 0;
#X connect 82 0 95 0;
#X connect 83 0 31 0;
#X connect 83 1 84 0;
#X connect 84 0 82 0;
#X connect 86 0 87 0;
#X connect 87 0 85 0;
#X connect 89 0 34 0;
#X connect 92 0 59 0;
#X connect 93 0 32 0;
#X connect 93 0 98 0;
#X connect 94 0 93 0;
#X connect 95 0 32 0;
#X connect 96 0 95 1;
#X connect 97 0 96 0;
#X connect 97 1 93 1;
#X connect 97 1 99 0;
#X connect 101 0 115 0;
#X connect 102 0 113 0;
#X connect 103 0 119 0;
#X connect 104 0 117 0;
#X connect 105 0 127 0;
#X connect 106 0 125 0;
#X connect 107 0 131 0;
#X connect 108 0 129 0;
#X connect 109 0 56 0;
#X connect 110 0 56 0;
#X connect 111 0 56 0;
#X connect 112 0 56 0;
#X connect 113 0 114 0;
#X connect 114 0 109 1;
#X connect 115 0 116 0;
#X connect 116 0 110 1;
#X connect 117 0 118 0;
#X connect 118 0 111 1;
#X connect 119 0 120 0;
#X connect 120 0 112 1;
#X connect 121 0 56 0;
#X connect 122 0 56 0;
#X connect 123 0 56 0;
#X connect 124 0 56 0;
#X connect 125 0 126 0;
#X connect 126 0 121 1;
#X connect 127 0 128 0;
#X connect 128 0 122 1;
#X connect 129 0 130 0;
#X connect 130 0 123 1;
#X connect 131 0 132 0;
#X connect 132 0 124 1;
#X connect 133 0 17 0;
#X connect 133 0 86 0;
#X connect 133 1 18 0;
#X connect 133 2 19 0;
#X connect 133 3 20 0;
#X connect 133 4 39 0;
#X connect 133 5 40 0;
#X connect 133 6 41 0;
#X connect 133 7 42 0;
#X connect 133 8 109 0;
#X connect 133 9 110 0;
#X connect 133 10 111 0;
#X connect 133 11 112 0;
#X connect 133 12 121 0;
#X connect 133 13 122 0;
#X connect 133 14 123 0;
#X connect 133 15 124 0;
#X connect 134 0 8 0;
#X connect 134 0 3 0;
#X connect 135 0 100 0;
#X connect 136 0 135 0;
#X coords 0 -1 1 1 264 197 2 99 104;
