#N canvas 361 219 1127 651 10;
#X obj 261 98 inlet~;
#X obj 881 94 inlet~;
#X obj 107 143 hradio 15 1 1 4 \$0-1to4-select-s \$0-1to4-select-r
empty 0 -8 0 10 -262144 -226533 -1 0;
#X obj 105 111 cnv 5 5 5 empty empty IN 0 0 0 8 -262144 -66577 0;
#X obj 229 109 cnv 5 5 5 empty empty TRIG 0 0 0 8 -262144 -226533 0
;
#X obj 196 168 cnv 5 5 5 empty empty 3 0 0 0 8 -262144 -66577 0;
#X obj 111 136 cnv 5 5 5 empty empty 1 0 0 0 8 -262144 -66577 0;
#X obj 127 136 cnv 5 5 5 empty empty 2 0 0 0 8 -262144 -66577 0;
#X obj 141 136 cnv 5 5 5 empty empty 3 0 0 0 8 -262144 -66577 0;
#X obj 156 136 cnv 5 5 5 empty empty 4 0 0 0 8 -262144 -66577 0;
#X obj 125 120 cnv 5 5 5 empty empty 1to4-SWITCH 0 0 0 12 -262144 -66577
0;
#X obj 261 362 *~;
#X obj 291 345 line~;
#X obj 261 390 outlet~;
#X obj 881 138 t b b;
#X obj 881 160 f;
#X obj 908 160 + 1;
#X obj 881 182 mod 4;
#X obj 231 116 bng 15 100 50 0 empty empty empty 17 7 0 10 -262144
-226533 -1;
#X obj 291 323 pack 0 1;
#X obj 881 204 s \$0-1to4-select-r;
#X obj 291 128 r \$0-1to4-select-s;
#X obj 291 150 sel 0;
#X msg 291 172 1;
#X msg 318 202 0;
#X obj 401 360 *~;
#X obj 431 343 line~;
#X obj 401 388 outlet~;
#X obj 431 321 pack 0 1;
#X obj 431 126 r \$0-1to4-select-s;
#X msg 431 170 1;
#X msg 458 200 0;
#X obj 542 356 *~;
#X obj 572 339 line~;
#X obj 542 384 outlet~;
#X obj 572 317 pack 0 1;
#X obj 572 122 r \$0-1to4-select-s;
#X msg 572 166 1;
#X msg 599 196 0;
#X obj 669 355 *~;
#X obj 699 338 line~;
#X obj 669 383 outlet~;
#X obj 699 316 pack 0 1;
#X obj 699 121 r \$0-1to4-select-s;
#X msg 699 165 1;
#X msg 726 195 0;
#X obj 431 148 sel 1;
#X obj 572 144 sel 2;
#X obj 699 143 sel 3;
#X obj 880 116 threshold~ 0.9 0 0.9 0;
#X obj 191 143 hradio 15 1 1 3 \$0-1to4-steps-s \$0-1to4-steps-r STEPS
0 -8 0 10 -262144 -226533 -1 0;
#X obj 195 165 cnv 5 5 5 empty empty 2 0 0 0 8 -262144 -66577 0;
#X obj 212 165 cnv 5 5 5 empty empty 3 0 0 0 8 -262144 -66577 0;
#X obj 227 165 cnv 5 5 5 empty empty 4 0 0 0 8 -262144 -66577 0;
#X obj 938 165 + 2;
#X obj 938 143 r \$0-1to4-steps-s;
#X obj 100 192 argspack \$0-1to4-steps \$1;
#X obj 100 217 canvasargs;
#X connect 0 0 11 0;
#X connect 0 0 25 0;
#X connect 0 0 32 0;
#X connect 0 0 39 0;
#X connect 1 0 49 0;
#X connect 11 0 13 0;
#X connect 12 0 11 1;
#X connect 14 0 15 0;
#X connect 14 1 18 0;
#X connect 15 0 16 0;
#X connect 15 0 17 0;
#X connect 16 0 15 1;
#X connect 17 0 20 0;
#X connect 19 0 12 0;
#X connect 21 0 22 0;
#X connect 22 0 23 0;
#X connect 22 1 24 0;
#X connect 23 0 19 0;
#X connect 24 0 19 0;
#X connect 25 0 27 0;
#X connect 26 0 25 1;
#X connect 28 0 26 0;
#X connect 29 0 46 0;
#X connect 30 0 28 0;
#X connect 31 0 28 0;
#X connect 32 0 34 0;
#X connect 33 0 32 1;
#X connect 35 0 33 0;
#X connect 36 0 47 0;
#X connect 37 0 35 0;
#X connect 38 0 35 0;
#X connect 39 0 41 0;
#X connect 40 0 39 1;
#X connect 42 0 40 0;
#X connect 43 0 48 0;
#X connect 44 0 42 0;
#X connect 45 0 42 0;
#X connect 46 0 30 0;
#X connect 46 1 31 0;
#X connect 47 0 37 0;
#X connect 47 1 38 0;
#X connect 48 0 44 0;
#X connect 48 1 45 0;
#X connect 49 0 14 0;
#X connect 54 0 17 1;
#X connect 55 0 54 0;
#X connect 56 0 57 0;
#X coords 0 -1 1 1 150 75 2 100 100;
