#N canvas 250 202 1163 524 10;
#X obj 261 98 inlet~;
#X obj 881 94 inlet~;
#X obj 109 144 hradio 15 1 1 4 \$0-4to1-select-s \$0-4to1-select-r
empty 0 -8 0 10 -262144 -226533 -1 0;
#X obj 105 109 cnv 5 5 5 empty empty 1 0 0 0 8 -262144 -66577 0;
#X obj 137 109 cnv 5 5 5 empty empty 2 0 0 0 8 -262144 -66577 0;
#X obj 207 109 cnv 5 5 5 empty empty 4 0 0 0 8 -262144 -66577 0;
#X obj 229 109 cnv 5 5 5 empty empty TRIG 0 0 0 8 -262144 -226533 0
;
#X obj 172 109 cnv 5 5 5 empty empty 3 0 0 0 8 -262144 -66577 0;
#X obj 113 137 cnv 5 5 5 empty empty 1 0 0 0 8 -262144 -66577 0;
#X obj 129 137 cnv 5 5 5 empty empty 2 0 0 0 8 -262144 -66577 0;
#X obj 143 137 cnv 5 5 5 empty empty 3 0 0 0 8 -262144 -66577 0;
#X obj 158 137 cnv 5 5 5 empty empty 4 0 0 0 8 -262144 -66577 0;
#X obj 125 122 cnv 5 5 5 empty empty 4to1-SWITCH 0 0 0 12 -262144 -66577
0;
#X obj 261 211 *~;
#X obj 291 128 r \$0-4to1-select-s;
#X obj 291 150 == 0;
#X obj 291 194 line~;
#X obj 261 390 outlet~;
#X obj 415 93 inlet~;
#X obj 415 206 *~;
#X obj 445 123 r \$0-4to1-select-s;
#X obj 445 189 line~;
#X obj 445 145 == 1;
#X obj 567 90 inlet~;
#X obj 567 203 *~;
#X obj 597 120 r \$0-4to1-select-s;
#X obj 597 186 line~;
#X obj 597 142 == 2;
#X obj 721 84 inlet~;
#X obj 721 197 *~;
#X obj 751 114 r \$0-4to1-select-s;
#X obj 751 180 line~;
#X obj 751 136 == 3;
#X obj 881 138 t b b;
#X obj 881 160 f;
#X obj 908 160 + 1;
#X obj 881 182 mod 4;
#X obj 881 204 s \$0-4to1-select-r;
#X obj 231 116 bng 15 100 50 0 empty empty empty 17 7 0 10 -262144
-226533 -1;
#X obj 291 172 pack 0 1;
#X obj 445 167 pack 0 1;
#X obj 597 164 pack 0 1;
#X obj 751 158 pack 0 1;
#X obj 881 116 threshold~ 0.9 0 0.9 0;
#X obj 191 144 hradio 15 1 1 3 \$0-4to1-steps-s \$0-4to1-steps-r STEPS
0 -8 0 10 -262144 -226533 -1 0;
#X obj 195 165 cnv 5 5 5 empty empty 2 0 0 0 8 -262144 -66577 0;
#X obj 212 165 cnv 5 5 5 empty empty 3 0 0 0 8 -262144 -66577 0;
#X obj 227 165 cnv 5 5 5 empty empty 4 0 0 0 8 -262144 -66577 0;
#X obj 1025 124 r \$0-4to1-steps-s;
#X obj 1025 146 + 2;
#X floatatom 1025 168 5 0 0 0 - - -, f 5;
#X obj 101 208 msgpack \$0-4to1-steps \$1;
#X obj 101 233 canvasargs;
#X obj 101 183 loadbang;
#X connect 0 0 13 0;
#X connect 1 0 43 0;
#X connect 13 0 17 0;
#X connect 14 0 15 0;
#X connect 15 0 39 0;
#X connect 16 0 13 1;
#X connect 18 0 19 0;
#X connect 19 0 17 0;
#X connect 20 0 22 0;
#X connect 21 0 19 1;
#X connect 22 0 40 0;
#X connect 23 0 24 0;
#X connect 24 0 17 0;
#X connect 25 0 27 0;
#X connect 26 0 24 1;
#X connect 27 0 41 0;
#X connect 28 0 29 0;
#X connect 29 0 17 0;
#X connect 30 0 32 0;
#X connect 31 0 29 1;
#X connect 32 0 42 0;
#X connect 33 0 34 0;
#X connect 33 1 38 0;
#X connect 34 0 35 0;
#X connect 34 0 36 0;
#X connect 35 0 34 1;
#X connect 36 0 37 0;
#X connect 39 0 16 0;
#X connect 40 0 21 0;
#X connect 41 0 26 0;
#X connect 42 0 31 0;
#X connect 43 0 33 0;
#X connect 48 0 49 0;
#X connect 49 0 50 0;
#X connect 50 0 36 1;
#X connect 51 0 52 0;
#X connect 53 0 51 0;
#X coords 0 -1 1 1 150 75 2 100 100;
