#N canvas 446 285 1028 571 10;
#X obj 335 31 inlet~;
#X obj 335 203 timer;
#X obj 272 317 tgl 15 0 empty empty empty 17 7 0 10 -262144 -1 -1 0
1;
#X obj 272 342 metro;
#X obj 335 225 t f f f f;
#X msg 272 449 1 0 \, 0 1 1;
#X obj 272 471 vline~;
#X obj 272 493 outlet~;
#X obj 272 422 t b b;
#X obj 105 169 bng 15 50 50 0 empty empty empty 17 7 0 10 -262144 -226533
-1;
#X obj 108 135 hsl 128 15 0 127 0 1 \$0-clock-multiply-multiply-s \$0-clock-multiply-multiply-r
MPLY 133 7 0 10 -262144 -1 -1 0 1;
#X obj 415 116 / 127;
#X obj 415 215 i;
#X obj 335 254 /;
#X floatatom 206 121 5 0 0 0 - - -, f 5;
#X obj 621 272 delay 1000;
#X msg 621 300 0;
#X msg 594 249 1;
#X obj 335 75 t b b b;
#X obj 594 213 t b b;
#X obj 465 77 inlet~;
#X obj 465 99 snapshot~;
#X obj 465 121 t b f;
#X obj 415 138 +;
#X obj 104 150 hradio 15 1 0 9 \$0-clock-multiply-x-s \$0-clock-multiply-x-r
empty 0 -8 0 10 -262144 -226533 -1 0;
#X obj 415 237 t f f f;
#X obj 415 189 + 1;
#X obj 454 259 - 1;
#X obj 415 167 * 8;
#X obj 132 112 cnv 5 5 5 empty empty CLOCK 0 0 0 12 -262144 -66577
0;
#X obj 262 109 cnv 5 5 5 empty empty CV 0 0 0 8 -262144 -1 0;
#X obj 105 109 cnv 5 5 5 empty empty IN 0 0 0 8 -262144 -226533 0;
#X obj 171 112 cnv 5 5 5 empty empty MULTIPLY 0 0 0 12 -262144 -66577
0;
#X obj 103 193 cnv 5 5 5 empty empty OUT 0 0 0 8 -262144 -66577 0;
#X obj 549 94 env~;
#X obj 549 120 change;
#X obj 549 142 t b;
#N canvas 297 27 748 331 parameter-nudging-system 0;
#N canvas 0 22 484 497 param-nudge 0;
#X obj 124 234 random;
#X obj 232 335 f;
#X obj 232 368 +;
#X obj 257 166 random 2;
#X obj 124 275 t f f;
#X obj 124 351 t b f;
#X obj 124 297 *;
#X obj 257 188 sel 0 1;
#X msg 257 280 -1;
#X msg 335 280 1;
#X obj 124 149 t b b b;
#X obj 124 123 r NUDGE!;
#X obj 157 193 r NUDGE-RANGE;
#X obj 247 308 inlet;
#X obj 232 397 outlet;
#X floatatom 316 396 5 0 0 0 - - -, f 5;
#X connect 0 0 4 0;
#X connect 1 0 2 0;
#X connect 2 0 14 0;
#X connect 2 0 15 0;
#X connect 3 0 7 0;
#X connect 4 0 6 0;
#X connect 5 0 2 0;
#X connect 5 1 2 1;
#X connect 6 0 5 0;
#X connect 7 0 8 0;
#X connect 7 1 9 0;
#X connect 8 0 6 1;
#X connect 9 0 6 1;
#X connect 10 0 0 0;
#X connect 10 1 1 0;
#X connect 10 2 3 0;
#X connect 11 0 10 0;
#X connect 12 0 0 1;
#X connect 13 0 1 1;
#X restore 23 45 pd param-nudge;
#X obj 23 67 clip 0 127;
#X obj 23 22 r \$0-clock-multiply-multiply-s;
#X obj 23 95 s \$0-clock-multiply-multiply-r;
#X connect 0 0 1 0;
#X connect 1 0 3 0;
#X connect 2 0 0 0;
#X restore 638 19 pd parameter-nudging-system;
#X obj 335 53 threshold~ 0.9 0 0.9 0;
#X obj 638 49 argspack \$0-clock-multiply-multiply \$1 \$0-clock-multiply-x
\$2;
#X obj 638 87 canvasargs;
#X connect 0 0 38 0;
#X connect 1 0 4 0;
#X connect 2 0 3 0;
#X connect 3 0 8 0;
#X connect 4 0 13 0;
#X connect 5 0 6 0;
#X connect 6 0 7 0;
#X connect 8 0 5 0;
#X connect 8 1 9 0;
#X connect 10 0 11 0;
#X connect 11 0 23 0;
#X connect 12 0 25 0;
#X connect 13 0 3 1;
#X connect 15 0 16 0;
#X connect 16 0 2 0;
#X connect 17 0 2 0;
#X connect 18 0 1 0;
#X connect 18 1 1 1;
#X connect 18 2 19 0;
#X connect 19 0 17 0;
#X connect 19 1 15 0;
#X connect 20 0 21 0;
#X connect 20 0 34 0;
#X connect 21 0 22 0;
#X connect 22 0 23 0;
#X connect 22 1 23 1;
#X connect 23 0 28 0;
#X connect 25 0 13 1;
#X connect 25 1 14 0;
#X connect 25 2 27 0;
#X connect 26 0 12 0;
#X connect 27 0 24 0;
#X connect 28 0 26 0;
#X connect 34 0 35 0;
#X connect 35 0 36 0;
#X connect 36 0 21 0;
#X connect 38 0 18 0;
#X connect 39 0 40 0;
#X coords 0 -1 1 1 175 100 2 100 100;
