#N canvas 611 385 1026 506 10;
#X obj 222 145 tgl 15 1 \$0-clock-on/off-s \$0-clock-on/off-r ON/OFF
17 7 0 10 -262144 -1 -1 0 1;
#X obj 409 211 metro 100;
#X obj 408 285 vline~;
#X obj 107 126 hsl 128 15 0 127 0 1 \$0-clock-clk-rate-s \$0-clock-clk-rate-r
RATE 133 7 0 10 -262144 -1 -1 12050 1;
#X floatatom 104 141 5 0 0 0 - - -, f 5;
#X msg 110 213 127 \$1;
#X obj 110 235 -;
#X obj 110 258 / 127;
#X obj 110 396 t f f;
#X obj 204 145 bng 15 50 50 0 empty empty empty 17 7 0 10 -262144 -226533
-1;
#X obj 409 233 t b b;
#X obj 110 309 * 1950;
#X obj 160 115 cnv 5 5 5 empty empty CLOCK 0 0 0 12 -262144 -66577
0;
#X obj 408 351 outlet~;
#X obj 320 48 inlet~;
#X obj 574 81 inlet~;
#X obj 320 120 snapshot~;
#X obj 320 171 t b f;
#X obj 110 280 +;
#X text 319 24 CLK-RATE CV INPUT;
#X text 577 62 ON/OFF GATE INPUT;
#X obj 243 109 cnv 5 5 5 empty empty ON/OFF 0 0 0 8 -262144 -226533
0;
#X obj 105 109 cnv 5 5 5 empty empty CLK-RATE 0 0 0 8 -262144 -66577
0;
#X obj 103 167 cnv 5 5 5 empty empty OUT 0 0 0 8 -262144 -226533 0
;
#X obj 574 105 threshold~ 0.99 0 0.99 0;
#X obj 422 96 env~;
#X floatatom 422 118 5 0 0 0 - - -, f 5;
#X obj 422 162 t b;
#X obj 422 137 change;
#X obj 110 353 moses 20;
#X obj 110 331 + 20;
#X msg 408 263 1 0 \, 0 1 1;
#N canvas 297 27 748 331 parameter-nudging-system 0;
#N canvas 0 22 484 497 param-nudge 0;
#X obj 124 234 random;
#X obj 232 335 f;
#X obj 232 368 +;
#X obj 257 166 random 2;
#X obj 124 275 t f f;
#X obj 124 351 t b f;
#X obj 124 297 *;
#X obj 257 188 sel 0 1;
#X msg 257 280 -1;
#X msg 335 280 1;
#X obj 124 149 t b b b;
#X obj 124 123 r NUDGE!;
#X obj 157 193 r NUDGE-RANGE;
#X obj 247 308 inlet;
#X obj 232 397 outlet;
#X floatatom 316 396 5 0 0 0 - - -, f 5;
#X connect 0 0 4 0;
#X connect 1 0 2 0;
#X connect 2 0 14 0;
#X connect 2 0 15 0;
#X connect 3 0 7 0;
#X connect 4 0 6 0;
#X connect 5 0 2 0;
#X connect 5 1 2 1;
#X connect 6 0 5 0;
#X connect 7 0 8 0;
#X connect 7 1 9 0;
#X connect 8 0 6 1;
#X connect 9 0 6 1;
#X connect 10 0 0 0;
#X connect 10 1 1 0;
#X connect 10 2 3 0;
#X connect 11 0 10 0;
#X connect 12 0 0 1;
#X connect 13 0 1 1;
#X restore 23 45 pd param-nudge;
#X obj 23 67 clip 0 127;
#X obj 23 22 r \$0-clock-clk-rate-s;
#X obj 23 95 s \$0-clock-clk-rate-r;
#X connect 0 0 1 0;
#X connect 1 0 3 0;
#X connect 2 0 0 0;
#X restore 593 308 pd parameter-nudging-system;
#X obj 321 94 *~ -1;
#X obj 593 360 canvasargs;
#X obj 593 335 argspack \$0-clock-clk-rate \$1 \$0-clock-on/off \$2
;
#X connect 0 0 1 0;
#X connect 1 0 10 0;
#X connect 2 0 13 0;
#X connect 3 0 5 0;
#X connect 5 0 6 0;
#X connect 6 0 7 0;
#X connect 7 0 18 0;
#X connect 8 0 1 1;
#X connect 8 1 4 0;
#X connect 10 0 31 0;
#X connect 10 1 9 0;
#X connect 11 0 30 0;
#X connect 14 0 25 0;
#X connect 14 0 33 0;
#X connect 15 0 24 0;
#X connect 16 0 17 0;
#X connect 17 0 18 0;
#X connect 17 1 18 1;
#X connect 18 0 11 0;
#X connect 24 0 0 0;
#X connect 25 0 26 0;
#X connect 26 0 28 0;
#X connect 27 0 16 0;
#X connect 28 0 27 0;
#X connect 29 1 8 0;
#X connect 30 0 29 0;
#X connect 31 0 2 0;
#X connect 33 0 16 0;
#X connect 35 0 34 0;
#X coords 0 -1 1 1 175 75 2 100 100;
