#N canvas 493 208 1281 663 10;
#X obj 103 127 cnv 5 5 5 empty empty TRIGGER 0 0 0 12 -262144 -66577
0;
#X obj 158 127 cnv 5 5 5 empty empty SEQ 0 0 0 12 -262144 -66577 0
;
#X obj 103 154 tgl 15 1 \$0-trigger-seq-s1-s \$0-trigger-seq-s1-r GATE-ON/OFF
0 25 0 10 -191407 -1 -1 0 1;
#X obj 118 154 tgl 15 1 \$0-trigger-seq-s2-s \$0-trigger-seq-s2-r empty
17 7 0 10 -262144 -1 -1 1 1;
#X obj 133 154 tgl 15 1 \$0-trigger-seq-s3-s \$0-trigger-seq-s3-r empty
17 7 0 10 -262144 -1 -1 0 1;
#X obj 148 154 tgl 15 1 \$0-trigger-seq-s4-s \$0-trigger-seq-s4-r empty
17 7 0 10 -262144 -1 -1 1 1;
#X obj 163 154 tgl 15 1 \$0-trigger-seq-s5-s \$0-trigger-seq-s5-r empty
4 25 0 10 -191407 -1 -1 0 1;
#X obj 178 154 tgl 15 1 \$0-trigger-seq-s6-s \$0-trigger-seq-s6-r empty
17 7 0 10 -262144 -1 -1 0 1;
#X obj 193 154 tgl 15 1 \$0-trigger-seq-s7-s \$0-trigger-seq-s7-r empty
17 7 0 10 -262144 -1 -1 0 1;
#X obj 208 154 tgl 15 1 \$0-trigger-seq-s8-s \$0-trigger-seq-s8-r empty
17 7 0 10 -262144 -1 -1 0 1;
#X obj 223 154 tgl 15 1 \$0-trigger-seq-s9-s \$0-trigger-seq-s9-r empty
4 25 0 10 -191407 -1 -1 1 1;
#X obj 238 154 tgl 15 1 \$0-trigger-seq-s10-s \$0-trigger-seq-s10-r
empty 17 7 0 10 -262144 -1 -1 0 1;
#X obj 253 154 tgl 15 1 \$0-trigger-seq-s11-s \$0-trigger-seq-s11-r
empty 17 7 0 10 -262144 -1 -1 0 1;
#X obj 268 154 tgl 15 1 \$0-trigger-seq-s12-s \$0-trigger-seq-s12-r
empty 17 7 0 10 -262144 -1 -1 0 1;
#X obj 283 154 tgl 15 1 \$0-trigger-seq-s13-s \$0-trigger-seq-s13-r
empty 4 25 0 10 -191407 -1 -1 1 1;
#X obj 298 154 tgl 15 1 \$0-trigger-seq-s14-s \$0-trigger-seq-s14-r
empty 17 7 0 10 -262144 -1 -1 0 1;
#X obj 313 154 tgl 15 1 \$0-trigger-seq-s15-s \$0-trigger-seq-s15-r
empty 17 7 0 10 -262144 -1 -1 1 1;
#X obj 328 154 tgl 15 1 \$0-trigger-seq-s16-s \$0-trigger-seq-s16-r
empty 17 7 0 10 -262144 -1 -1 0 1;
#X obj 103 139 hradio 15 1 0 16 \$0-trigger-seq-gui-s \$0-trigger-seq-gui-r
empty 0 -8 0 10 -262144 -226533 -1 0;
#X obj 448 50 inlet~;
#X obj 448 136 f;
#X obj 500 176 + 1;
#X obj 448 159 % 16;
#X floatatom 448 181 5 0 0 0 - - -, f 5;
#X obj 448 200 t f f;
#X obj 475 228 s \$0-trigger-seq-gui-r;
#X obj 448 251 sel 0 1 2 3 4 5 6 7 8 9 10 11 12 13 14 15;
#X obj 237 495 t b b;
#X obj 459 639 outlet~;
#X obj 459 609 vline~;
#X obj 327 461 r \$0-trigger-seq-s2-s;
#X obj 230 571 spigot;
#X obj 263 543 r \$0-trigger-seq-s1-s;
#X msg 459 588 1 0 \, 0 1 1;
#X obj 294 488 spigot;
#X obj 346 436 spigot;
#X obj 379 406 r \$0-trigger-seq-s3-s;
#X obj 419 381 spigot;
#X obj 452 351 r \$0-trigger-seq-s4-s;
#X obj 467 550 spigot;
#X obj 500 520 r \$0-trigger-seq-s5-s;
#X obj 518 485 spigot;
#X obj 551 455 r \$0-trigger-seq-s6-s;
#X obj 567 423 spigot;
#X obj 600 393 r \$0-trigger-seq-s7-s;
#X obj 597 368 spigot;
#X obj 630 338 r \$0-trigger-seq-s8-s;
#X obj 618 552 spigot;
#X obj 651 522 r \$0-trigger-seq-s9-s;
#X obj 665 497 spigot;
#X obj 698 467 r \$0-trigger-seq-s10-s;
#X obj 712 436 spigot;
#X obj 745 407 r \$0-trigger-seq-s11-s;
#X obj 746 380 spigot;
#X obj 779 351 r \$0-trigger-seq-s12-s;
#X obj 701 313 spigot;
#X obj 734 284 r \$0-trigger-seq-s13-s;
#X obj 759 571 spigot;
#X obj 792 542 r \$0-trigger-seq-s14-s;
#X obj 797 517 spigot;
#X obj 830 488 r \$0-trigger-seq-s15-s;
#X obj 860 463 spigot;
#X obj 893 434 r \$0-trigger-seq-s16-s;
#X obj 213 188 hradio 8 0 1 16 \$0-trigger-seq-num-of-steps-s \$0-trigger-seq-num-of-steps-r
NUMBER-OF-STEPS 0 -8 0 10 -262144 -1 -1 15;
#X obj 596 69 r \$0-trigger-seq-num-of-steps-s;
#X obj 596 91 + 1;
#X obj 103 186 bng 15 100 50 0 empty empty empty 17 7 0 10 -262144
-226533 -1;
#X obj 93 604 t b;
#X obj 103 111 cnv 5 5 5 empty empty CLOCK-IN 0 0 0 8 -262144 -226533
0;
#X obj 323 108 cnv 5 5 5 empty empty RESET 0 0 0 8 -262144 -226533
0;
#X obj 830 51 inlet~;
#X obj 830 73 threshold~ 0.99 0 1 0;
#X obj 830 95 t b b;
#X msg 830 117 0;
#X obj 323 113 bng 15 100 50 0 empty empty empty 17 7 0 10 -262144
-226533 -1;
#X text 825 20 RESET INPUT;
#X obj 840 439 t b b;
#X obj 448 72 threshold~ 0.9 0 0.9 0;
#X obj 828 255 canvasargs;
#X obj 828 144 argspack \$0-trigger-seq-s1 \$1 \$0-trigger-seq-s2 \$2
\$0-trigger-seq-s3 \$3 \$0-trigger-seq-s4 \$4 \$0-trigger-seq-s5 \$5
\$0-trigger-seq-s6 \$6 \$0-trigger-seq-s7 \$7 \$0-trigger-seq-s8 \$8
\$0-trigger-seq-s9 \$9 \$0-trigger-seq-s10 \$10 \$0-trigger-seq-s11
\$11 \$0-trigger-seq-s12 \$12 \$0-trigger-seq-s13 \$13 \$0-trigger-seq-s14
\$14 \$0-trigger-seq-s15 \$15 \$0-trigger-seq-s16 \$16 \$0-trigger-seq-num-of-steps
\$17;
#X connect 19 0 77 0;
#X connect 20 0 22 0;
#X connect 21 0 20 1;
#X connect 22 0 23 0;
#X connect 22 0 21 0;
#X connect 23 0 24 0;
#X connect 24 0 26 0;
#X connect 24 1 25 0;
#X connect 26 0 27 0;
#X connect 26 1 34 0;
#X connect 26 2 35 0;
#X connect 26 3 37 0;
#X connect 26 4 39 0;
#X connect 26 5 41 0;
#X connect 26 6 43 0;
#X connect 26 7 45 0;
#X connect 26 8 47 0;
#X connect 26 9 49 0;
#X connect 26 10 51 0;
#X connect 26 11 53 0;
#X connect 26 12 55 0;
#X connect 26 13 57 0;
#X connect 26 14 59 0;
#X connect 26 15 76 0;
#X connect 27 0 31 0;
#X connect 29 0 28 0;
#X connect 30 0 34 1;
#X connect 31 0 33 0;
#X connect 32 0 31 1;
#X connect 33 0 29 0;
#X connect 33 0 67 0;
#X connect 34 0 33 0;
#X connect 35 0 33 0;
#X connect 36 0 35 1;
#X connect 37 0 33 0;
#X connect 38 0 37 1;
#X connect 39 0 33 0;
#X connect 40 0 39 1;
#X connect 41 0 33 0;
#X connect 42 0 41 1;
#X connect 43 0 33 0;
#X connect 44 0 43 1;
#X connect 45 0 33 0;
#X connect 46 0 45 1;
#X connect 47 0 33 0;
#X connect 48 0 47 1;
#X connect 49 0 33 0;
#X connect 50 0 49 1;
#X connect 51 0 33 0;
#X connect 52 0 51 1;
#X connect 53 0 33 0;
#X connect 54 0 53 1;
#X connect 55 0 33 0;
#X connect 56 0 55 1;
#X connect 57 0 33 0;
#X connect 58 0 57 1;
#X connect 59 0 33 0;
#X connect 60 0 59 1;
#X connect 61 0 33 0;
#X connect 62 0 61 1;
#X connect 64 0 65 0;
#X connect 65 0 22 1;
#X connect 67 0 66 0;
#X connect 70 0 71 0;
#X connect 71 0 72 0;
#X connect 72 0 73 0;
#X connect 72 1 74 0;
#X connect 73 0 20 1;
#X connect 76 0 61 0;
#X connect 77 0 20 0;
#X connect 79 0 78 0;
#X coords 0 -1 1 1 250 110 2 100 100;
